<?xml version="1.0" encoding="iso-8859-1"?>
<!-- Generator: Adobe Illustrator 22.0.1, SVG Export Plug-In . SVG Version: 6.00 Build 0)  -->
<svg version="1.1" id="Layer_1" xmlns="http://www.w3.org/2000/svg" xmlns:xlink="http://www.w3.org/1999/xlink" x="0px" y="0px"
	 viewBox="0 0 36 36" style="enable-background:new 0 0 36 36;" xml:space="preserve">
<g>
	<g>
		<path style="fill:#F5CE85;" d="M3.507,35.5L0.5,32.493v-2.286l11.61-11.61l-1.247-1.247c-0.483-0.484-0.483-1.271,0-1.754
			l1.788-1.789l-0.033-0.245C12.538,12.964,12.5,12.467,12.5,12c0-6.341,5.159-11.5,11.5-11.5S35.5,5.659,35.5,12
			S30.341,23.5,24,23.5c-0.468,0-0.964-0.038-1.561-0.119l-0.246-0.033l-1.788,1.789c-0.234,0.234-0.546,0.363-0.878,0.363
			c-0.331,0-0.643-0.129-0.877-0.363l-1.247-1.247l-3.61,3.61H11.5v2.293L9.793,31.5H7.5v2.293L5.793,35.5L3.507,35.5z M24,4.5
			c-2.003,0-3.887,0.78-5.304,2.197L18.343,7.05L28.95,17.657l0.354-0.354c2.924-2.924,2.924-7.682,0-10.606
			C27.887,5.28,26.003,4.5,24,4.5z"/>
	</g>
	<g>
		<path style="fill:#967A44;" d="M24,1c6.065,0,11,4.935,11,11s-4.935,11-11,11c-0.447,0-0.922-0.036-1.493-0.114l-0.491-0.067
			l-0.351,0.351l-1.613,1.613C19.911,24.923,19.725,25,19.528,25s-0.384-0.077-0.524-0.217L18.11,23.89l-0.707-0.707l-0.707,0.707
			L13.586,27H12h-1v1v1.586L9.586,31H8H7v1v1.586L5.586,35l-1.872,0L1,32.286l0-1.872l11.11-11.11l0.707-0.707L12.11,17.89
			l-0.893-0.893c-0.289-0.289-0.289-0.759,0-1.047l1.613-1.613l0.351-0.351l-0.067-0.491C13.036,12.922,13,12.447,13,12
			C13,5.935,17.935,1,24,1 M28.95,18.364l0.707-0.707c3.119-3.119,3.119-8.194,0-11.314C28.146,4.832,26.137,4,24,4
			s-4.146,0.832-5.657,2.343L17.636,7.05l0.707,0.707l9.9,9.899L28.95,18.364 M24,0c-6.627,0-12,5.373-12,12
			c0,0.554,0.051,1.094,0.123,1.628l-1.613,1.613c-0.68,0.68-0.68,1.782,0,2.462l0.893,0.893L0,30l0,2.7L3.3,36L6,36l2-2v-2h2l2-2
			v-2h2l3.403-3.403l0.893,0.893c0.34,0.34,0.785,0.51,1.231,0.51s0.891-0.17,1.231-0.51l1.613-1.613C22.906,23.949,23.446,24,24,24
			c6.627,0,12-5.373,12-12C36,5.373,30.627,0,24,0L24,0z M28.95,16.95l-9.9-9.899C20.417,5.683,22.209,5,24,5s3.583,0.683,4.95,2.05
			C31.683,9.784,31.683,14.216,28.95,16.95L28.95,16.95z"/>
	</g>
</g>
<line style="fill:none;stroke:#967A44;stroke-miterlimit:10;" x1="13.571" y1="20.047" x2="17.473" y2="23.95"/>
</svg>
