<?xml version="1.0" encoding="iso-8859-1"?>
<!-- Generator: Adobe Illustrator 22.0.1, SVG Export Plug-In . SVG Version: 6.00 Build 0)  -->
<svg version="1.1" id="Layer_1" xmlns="http://www.w3.org/2000/svg" xmlns:xlink="http://www.w3.org/1999/xlink" x="0px" y="0px"
	 viewBox="0 0 36 36" style="enable-background:new 0 0 36 36;" xml:space="preserve">
<g>
	<circle style="fill:#BAE0BD;" cx="18" cy="18" r="17.5"/>
	<g>
		<path style="fill:#5E9C76;" d="M18,1c9.374,0,17,7.626,17,17s-7.626,17-17,17S1,27.374,1,18S8.626,1,18,1 M18,0
			C8.059,0,0,8.059,0,18s8.059,18,18,18s18-8.059,18-18S27.941,0,18,0L18,0z"/>
	</g>
</g>
<path style="fill:none;stroke:#5E9C76;stroke-width:2;stroke-miterlimit:10;" d="M23,14v-0.185C23,11.708,21.292,10,19.185,10
	h-2.369C14.708,10,13,11.708,13,13.815v0c0,1.78,1.23,3.323,2.965,3.719l4.07,0.93C21.77,18.862,23,20.405,23,22.185v0
	C23,24.292,21.292,26,19.185,26h-2.369C14.708,26,13,24.292,13,22.185V22"/>
<line style="fill:none;stroke:#5E9C76;stroke-width:2;stroke-miterlimit:10;" x1="18" y1="6" x2="18" y2="9"/>
<line style="fill:none;stroke:#5E9C76;stroke-width:2;stroke-miterlimit:10;" x1="18" y1="27" x2="18" y2="30"/>
</svg>
