<?xml version="1.0" encoding="iso-8859-1"?>
<!-- Generator: Adobe Illustrator 22.0.1, SVG Export Plug-In . SVG Version: 6.00 Build 0)  -->
<svg version="1.1" id="Layer_1" xmlns="http://www.w3.org/2000/svg" xmlns:xlink="http://www.w3.org/1999/xlink" x="0px" y="0px"
	 viewBox="0 0 36 25.015" style="enable-background:new 0 0 36 25.015;" xml:space="preserve">
<line style="fill:none;stroke:#66798F;stroke-linecap:round;stroke-miterlimit:10;" x1="21.381" y1="24.42" x2="20.027" y2="17.168"/>
<line style="fill:none;stroke:#66798F;stroke-linecap:round;stroke-miterlimit:10;" x1="34.967" y1="15" x2="29.641" y2="10.382"/>
<line style="fill:none;stroke:#66798F;stroke-linecap:round;stroke-miterlimit:10;" x1="31.619" y1="19.026" x2="26.112" y2="12.852"/>
<line style="fill:none;stroke:#66798F;stroke-linecap:round;stroke-miterlimit:10;" x1="26.934" y1="22.359" x2="23.126" y2="15.014"/>
<line style="fill:none;stroke:#66798F;stroke-linecap:round;stroke-miterlimit:10;" x1="14.619" y1="24.42" x2="15.973" y2="17.168"/>
<line style="fill:none;stroke:#66798F;stroke-linecap:round;stroke-miterlimit:10;" x1="1.033" y1="15" x2="6.359" y2="10.382"/>
<line style="fill:none;stroke:#66798F;stroke-linecap:round;stroke-miterlimit:10;" x1="4.381" y1="19.026" x2="9.888" y2="12.852"/>
<line style="fill:none;stroke:#66798F;stroke-linecap:round;stroke-miterlimit:10;" x1="9.066" y1="22.359" x2="12.874" y2="15.014"/>
<g>
	<ellipse style="fill:#FFEEA3;" cx="18" cy="11" rx="17.369" ry="10.5"/>
	<g>
		<path style="fill:#BA9B48;" d="M18,1c8.013,0,14.913,7.769,16.729,10C32.913,13.231,26.013,21,18,21S3.087,13.231,1.271,11
			C3.087,8.769,9.987,1,18,1 M18,0C8.059,0,0,11,0,11s8.059,11,18,11s18-11,18-11S27.941,0,18,0L18,0z"/>
	</g>
</g>
</svg>
