
<svg width="5px" height="9px" viewBox="0 0 5 9" version="1.1" xmlns="http://www.w3.org/2000/svg">
    <g stroke="none" stroke-width="1" fill="#000000" fill-rule="evenodd">
        <g id="02-Pichon-\-Inner" transform="translate(-821.000000, -728.000000)" fill="#000000">
            <g id="Group-15" transform="translate(821.000000, 727.000000)">
                <path d="M0.15532293,7.85167019 L2.14457299,9.86216879 C2.33879507,10.0584655 2.65537309,10.0601473 2.85166979,9.86592522 C2.85292858,9.86467974 2.85418074,9.86342758 2.85542622,9.86216879 L4.84467628,7.85167019 C5.03889836,7.65537349 5.03721655,7.33879546 4.84091985,7.14457338 C4.74730897,7.05195186 4.62093772,7 4.48924967,7 L0.510749547,7 C0.234607172,7 0.010749547,7.22385763 0.010749547,7.5 C0.010749547,7.63168805 0.0627014063,7.75805931 0.15532293,7.85167019 Z" id="Path-2"></path>
                <path d="M0.15532293,1.84117154 L2.14457299,3.85167014 C2.33879507,4.04796684 2.65537309,4.04964865 2.85166979,3.85542657 C2.85292858,3.85418109 2.85418074,3.85292893 2.85542622,3.85167014 L4.84467628,1.84117154 C5.03889836,1.64487484 5.03721655,1.32829681 4.84091985,1.13407473 C4.74730897,1.04145321 4.62093772,0.98950135 4.48924967,0.98950135 L0.510749547,0.98950135 C0.234607172,0.98950135 0.010749547,1.21335898 0.010749547,1.48950135 C0.010749547,1.6211894 0.0627014063,1.74756066 0.15532293,1.84117154 Z" id="Path-2" transform="translate(2.500000, 2.494751) scale(1, -1) translate(-2.500000, -2.494751) "></path>
            </g>
        </g>
    </g>
</svg>