<svg x="0px" y="0px" viewBox="0 0 32 32" role="img" aria-label="Icons8 home page">
  <title>Icons8 home page</title>
  <path d="M24,10c0-1.657-1.343-3-3-3c-0.68,0-1.301,0.235-1.804,0.617C18.467,6.641,17.312,6,16,6  s-2.467,0.641-3.196,1.617C12.301,7.235,11.68,7,11,7c-1.657,0-3,1.343-3,3H6v12h3v3.134C8.701,25.307,8.5,25.63,8.5,26  c0,0.552,0.447,1,1,1c0.841,0,1.5-0.682,1.5-1.552V22h1v3.134c-0.299,0.173-0.5,0.496-0.5,0.866c0,0.552,0.447,1,1,1  c0.841,0,1.5-0.682,1.5-1.552V22h4v3.134c-0.299,0.173-0.5,0.496-0.5,0.866c0,0.552,0.447,1,1,1c0.841,0,1.5-0.682,1.5-1.552V22h1  v3.134c-0.299,0.173-0.5,0.496-0.5,0.866c0,0.552,0.447,1,1,1c0.841,0,1.5-0.682,1.5-1.552V22h3V10H24z M24,20H8v-8h16V20z M15,16  c0-0.552,0.448-1,1-1s1,0.448,1,1c0,0.552-0.448,1-1,1S15,16.552,15,16z M19,16c0-0.552,0.448-1,1-1s1,0.448,1,1  c0,0.552-0.448,1-1,1S19,16.552,19,16z M11,16c0-0.552,0.448-1,1-1s1,0.448,1,1c0,0.552-0.448,1-1,1S11,16.552,11,16z"/>
</svg>