<svg xmlns="http://www.w3.org/2000/svg" xmlns:xlink="http://www.w3.org/1999/xlink" version="1.0" x="0px" y="0px" width="48px" height="48px" viewBox="0 0 48 48" class="icon icons8-Belarus" ><rect x="10" y="29" fill="#7CB342" width="36" height="10"></rect><rect x="2" y="9" fill="#ECEFF1" width="8" height="30"></rect><g>	<rect x="2" y="9" fill="#FF3D00" width="2" height="2"></rect>	<rect x="4" y="11" fill="#FF3D00" width="2" height="2"></rect>	<rect x="6" y="9" fill="#FF3D00" width="2" height="2"></rect>	<rect x="8" y="11" fill="#FF3D00" width="2" height="2"></rect>	<rect x="2" y="13" fill="#FF3D00" width="2" height="2"></rect>	<rect x="4" y="15" fill="#FF3D00" width="2" height="2"></rect>	<rect x="6" y="13" fill="#FF3D00" width="2" height="2"></rect>	<rect x="8" y="15" fill="#FF3D00" width="2" height="2"></rect>	<rect x="2" y="17" fill="#FF3D00" width="2" height="2"></rect>	<rect x="4" y="19" fill="#FF3D00" width="2" height="2"></rect>	<rect x="6" y="17" fill="#FF3D00" width="2" height="2"></rect>	<rect x="8" y="19" fill="#FF3D00" width="2" height="2"></rect>	<rect x="2" y="21" fill="#FF3D00" width="2" height="2"></rect>	<rect x="4" y="23" fill="#FF3D00" width="2" height="2"></rect>	<rect x="6" y="21" fill="#FF3D00" width="2" height="2"></rect>	<rect x="8" y="23" fill="#FF3D00" width="2" height="2"></rect>	<rect x="2" y="25" fill="#FF3D00" width="2" height="2"></rect>	<rect x="4" y="27" fill="#FF3D00" width="2" height="2"></rect>	<rect x="6" y="25" fill="#FF3D00" width="2" height="2"></rect>	<rect x="8" y="27" fill="#FF3D00" width="2" height="2"></rect>	<rect x="2" y="29" fill="#FF3D00" width="2" height="2"></rect>	<rect x="4" y="31" fill="#FF3D00" width="2" height="2"></rect>	<rect x="6" y="29" fill="#FF3D00" width="2" height="2"></rect>	<rect x="8" y="31" fill="#FF3D00" width="2" height="2"></rect>	<rect x="2" y="33" fill="#FF3D00" width="2" height="2"></rect>	<rect x="4" y="35" fill="#FF3D00" width="2" height="2"></rect>	<rect x="6" y="33" fill="#FF3D00" width="2" height="2"></rect>	<rect x="8" y="35" fill="#FF3D00" width="2" height="2"></rect>	<rect x="2" y="37" fill="#FF3D00" width="2" height="2"></rect>	<rect x="6" y="37" fill="#FF3D00" width="2" height="2"></rect>	<rect x="10" y="9" fill="#FF3D00" width="36" height="20"></rect></g></svg>