<?xml version="1.0" encoding="utf-8"?>
<!-- Generator: Adobe Illustrator 19.1.1, SVG Export Plug-In . SVG Version: 6.00 Build 0)  -->
<svg version="1.1" id="IOS_copy" xmlns="http://www.w3.org/2000/svg" xmlns:xlink="http://www.w3.org/1999/xlink" x="0px" y="0px"
	 viewBox="0 0 16 16" enable-background="new 0 0 16 16" xml:space="preserve">
<path d="M0,16l1.1-5.3l9.8-9.8c1.2-1.2,3-1.2,4.2,0c1.2,1.2,1.2,3,0,4.2l-9.8,9.8L0,16z M2.9,11.7l-0.3,1.7l1.7-0.3l9.4-9.4
	c0.4-0.4,0.4-1,0-1.4c-0.4-0.4-1-0.4-1.4,0L2.9,11.7z"/>
<path d="M0,16l1.1-5.3l9.8-9.8c1.2-1.2,3-1.2,4.2,0c1.2,1.2,1.2,3,0,4.2l-9.8,9.8L0,16z M2.9,11.7l-0.3,1.7l1.7-0.3l9.4-9.4
	c0.4-0.4,0.4-1,0-1.4c-0.4-0.4-1-0.4-1.4,0L2.9,11.7z"/>
</svg>
