<?xml version="1.0" encoding="utf-8"?>
<!-- Generator: Adobe Illustrator 19.1.1, SVG Export Plug-In . SVG Version: 6.00 Build 0)  -->
<svg version="1.1" id="IOS_copy" xmlns="http://www.w3.org/2000/svg" xmlns:xlink="http://www.w3.org/1999/xlink" x="0px" y="0px"
	 viewBox="0 0 16 16" enable-background="new 0 0 16 16" xml:space="preserve">
<path d="M10,10v2h2.4c-0.1,0.1-0.1,0.1-0.2,0.2c-2.3,2.3-6.2,2.3-8.5,0C1.4,9.9,1.4,6,3.7,3.7c2.3-2.3,6.2-2.3,8.5,0
	c1,1,1.6,2.3,1.7,3.6l2-0.1c-0.1-1.8-0.9-3.5-2.3-4.8c-3.1-3.1-8.2-3.1-11.3,0s-3.1,8.2,0,11.3c1.5,1.5,3.6,2.3,5.7,2.3
	c2.1,0,4.1-0.8,5.7-2.3c0.1-0.1,0.3-0.3,0.4-0.4V16h2v-6H10z"/>
</svg>
