<?xml version="1.0" encoding="utf-8"?>
<!-- Generator: Adobe Illustrator 19.1.1, SVG Export Plug-In . SVG Version: 6.00 Build 0)  -->
<svg version="1.1" id="IOS_copy" xmlns="http://www.w3.org/2000/svg" xmlns:xlink="http://www.w3.org/1999/xlink" x="0px" y="0px"
	 viewBox="0 0 16 15" enable-background="new 0 0 16 15" xml:space="preserve">
<path d="M8,14.4L1.4,7.7C1.3,7.6,0,6.2,0,4.6C0,2.1,2,0,4.5,0C6,0,7.2,0.8,8,1.4C8.7,0.8,10,0,11.5,0C14,0,16,2.1,16,4.6
	c0,1.6-1.3,3-1.5,3.1L8,14.4z M4.5,2C3.1,2,2,3.2,2,4.6c0,0.7,0.7,1.5,0.9,1.7L8,11.6l5.1-5.3C13.3,6.1,14,5.2,14,4.6
	C14,3.2,12.9,2,11.5,2C10,2,8.7,3.4,8.7,3.5L8,4.3L7.2,3.5C6.9,3.1,5.7,2,4.5,2z"/>
</svg>
