<?xml version="1.0" encoding="utf-8"?>
<!-- Generator: Adobe Illustrator 19.1.1, SVG Export Plug-In . SVG Version: 6.00 Build 0)  -->
<svg version="1.1" id="IOS_copy" xmlns="http://www.w3.org/2000/svg" xmlns:xlink="http://www.w3.org/1999/xlink" x="0px" y="0px"
	 viewBox="0 0 18 18" enable-background="new 0 0 18 18" xml:space="preserve">
<path d="M13,4c0.6,0,1,0.4,1,1s-0.4,1-1,1s-1-0.4-1-1S12.4,4,13,4z M6,16h2v-2h1.4l1.1-1.1c0.4,0.1,0.7,0.1,1,0.1
	C15,13,18,10,18,6.5S15,0,11.5,0S5,3,5,6.5c0,0.4,0,0.7,0.1,1L0,12.6V18h6V16z M2,13.4l5.3-5.3L7.2,7.6C7.1,7.2,7,6.9,7,6.5
	C7,4.1,9.1,2,11.5,2S16,4.1,16,6.5S13.9,11,11.5,11c-0.2,0-0.6-0.1-1.1-0.2l-0.5-0.1L8.6,12H6v2H4v2H2V13.4z"/>
</svg>
