<?xml version="1.0" encoding="utf-8"?>
<!-- Generator: Adobe Illustrator 19.1.1, SVG Export Plug-In . SVG Version: 6.00 Build 0)  -->
<svg version="1.1" id="IOS_copy" xmlns="http://www.w3.org/2000/svg" xmlns:xlink="http://www.w3.org/1999/xlink" x="0px" y="0px"
	 viewBox="0 0 16 16" enable-background="new 0 0 16 16" xml:space="preserve">
<path d="M5.7,11.7l-1.4-1.4l6-6l1.4,1.4L5.7,11.7z M6.8,12c-0.1,0.2-0.2,0.4-0.4,0.6l-0.8,0.8c-0.8,0.8-2.2,0.8-3,0
	c-0.8-0.8-0.8-2.2,0-3l0.8-0.8c0.1-0.1,0.3-0.3,0.5-0.4L6,7.2C5.6,7.1,5.3,7,4.9,7C3.8,7,2.8,7.4,2,8.2L1.2,9
	c-1.6,1.6-1.6,4.2,0,5.8C2,15.6,3,16,4.1,16c1.1,0,2.1-0.4,2.9-1.2L7.8,14c1.1-1.1,1.4-2.6,1-4L6.8,12z M14.8,1.2
	C14,0.4,13,0,11.9,0C10.8,0,9.8,0.4,9,1.2L8.2,2c-1.1,1.1-1.4,2.6-1,4l2.1-2.1c0.1-0.2,0.2-0.4,0.4-0.5l0.8-0.8
	C10.8,2.2,11.3,2,11.9,2c0.6,0,1.1,0.2,1.5,0.6c0.8,0.8,0.8,2.2,0,3l-0.8,0.8c-0.2,0.2-0.3,0.3-0.5,0.4L10,8.8
	C10.3,8.9,10.7,9,11.1,9c1.1,0,2.1-0.4,2.9-1.2L14.8,7C16.4,5.4,16.4,2.8,14.8,1.2z"/>
</svg>
