<?xml version="1.0" encoding="utf-8"?>
<!-- Generator: Adobe Illustrator 19.1.1, SVG Export Plug-In . SVG Version: 6.00 Build 0)  -->
<svg version="1.1" id="IOS_copy" xmlns="http://www.w3.org/2000/svg" xmlns:xlink="http://www.w3.org/1999/xlink" x="0px" y="0px"
	 viewBox="0 0 16 17" enable-background="new 0 0 16 17" xml:space="preserve">
<path d="M8,17.1l-0.4-0.2C7.3,16.8,0,13.6,0,8V2h1c2.1,0,3.3-0.6,4.3-1.1C6.1,0.4,6.9,0,8,0c1.1,0,1.9,0.4,2.8,0.9
	C11.8,1.4,13,2,15,2h1v6c0,5.6-7.3,8.8-7.6,8.9L8,17.1z M2,4v4c0,3.7,4.6,6.2,6,6.9c1.4-0.7,6-3.2,6-6.9V4c-1.9-0.2-3.1-0.8-4.2-1.3
	C9.1,2.3,8.6,2,8,2C7.4,2,6.9,2.3,6.2,2.6C5.3,3.1,4,3.8,2,4z"/>
</svg>
