<?xml version="1.0" encoding="utf-8"?>
<!-- Generator: Adobe Illustrator 19.1.1, SVG Export Plug-In . SVG Version: 6.00 Build 0)  -->
<svg version="1.1" id="IOS_copy" xmlns="http://www.w3.org/2000/svg" xmlns:xlink="http://www.w3.org/1999/xlink" x="0px" y="0px"
	 viewBox="0 0 15 15" enable-background="new 0 0 15 15" xml:space="preserve">
<path d="M15,15H3v-3c-1.3-0.1-3-0.7-3-3s1.7-2.8,3-3V3h3c0.1-1.3,0.7-3,3-3s2.8,1.7,3,3h3V15z M5,13h8V5h-3V4c0-2-0.5-2-1-2S8,2,8,4
	v1H5v3H4C2,8,2,8.5,2,9s0,1,2,1h1V13z"/>
</svg>
