<?xml version="1.0" encoding="utf-8"?>
<!-- Generator: Adobe Illustrator 19.1.1, SVG Export Plug-In . SVG Version: 6.00 Build 0)  -->
<svg version="1.1" id="IOS_copy" xmlns="http://www.w3.org/2000/svg" xmlns:xlink="http://www.w3.org/1999/xlink" x="0px" y="0px"
	 viewBox="0 0 18 18" enable-background="new 0 0 18 18" xml:space="preserve">
<path d="M3.7,18c-0.9,0-1.9-0.4-2.6-1.1c-1.5-1.5-1.5-3.8,0-5.2c0.4-0.4,3.6-3.6,5.6-5.6c0-0.2,0-0.3,0-0.4C6.7,2.5,9.2,0,12.3,0
	c0.9,0,1.8,0.2,2.6,0.7l1.2,0.6l-3.6,3.6l0.6,0.6l3.6-3.6L17.3,3C17.8,3.8,18,4.7,18,5.7c0,3.2-2.5,5.7-5.7,5.7c-0.1,0-0.3,0-0.4,0
	l-5.6,5.6C5.6,17.6,4.6,18,3.7,18z M12.3,2c-2.1,0-3.7,1.6-3.7,3.7c0,0.2,0,0.4,0,0.6l0.1,0.6L8.4,7.2c-1.9,1.9-5.5,5.5-5.9,5.9
	c-0.7,0.7-0.7,1.7,0,2.4c0.7,0.7,1.7,0.7,2.4,0l6.3-6.3l0.6,0.1c0.1,0,0.3,0,0.6,0c2.1,0,3.7-1.6,3.7-3.7c0-0.1,0-0.2,0-0.2
	l-2.9,2.9L9.7,4.9L12.6,2C12.5,2,12.4,2,12.3,2z"/>
</svg>
