<?xml version="1.0" encoding="utf-8"?>
<!-- Generator: Adobe Illustrator 19.1.1, SVG Export Plug-In . SVG Version: 6.00 Build 0)  -->
<svg version="1.1" id="IOS_copy" xmlns="http://www.w3.org/2000/svg" xmlns:xlink="http://www.w3.org/1999/xlink" x="0px" y="0px"
	 viewBox="0 0 18 12" enable-background="new 0 0 18 12" xml:space="preserve">
<path d="M13.6,12H3.9C1.7,12,0,10.3,0,8.2c0-2,1.5-3.6,3.5-3.8C4,1.9,6.3,0,9,0c2.3,0,4.3,1.4,5.1,3.4C16.3,3.6,18,5.5,18,7.7
	C18,10.1,16,12,13.6,12z M3.9,6.4C2.8,6.4,2,7.2,2,8.2S2.8,10,3.9,10h9.7c1.3,0,2.4-1,2.4-2.3c0-1.3-1.1-2.3-2.4-2.3l-0.9,0.1
	l-0.2-0.8C12,3.1,10.6,2,9,2C7.1,2,5.5,3.5,5.4,5.4l0,0.1v1.2L4.2,6.5C4.1,6.5,4,6.4,3.9,6.4z"/>
</svg>
