<?xml version="1.0" encoding="utf-8"?>
<!-- Generator: Adobe Illustrator 19.1.1, SVG Export Plug-In . SVG Version: 6.00 Build 0)  -->
<svg version="1.1" id="IOS_copy" xmlns="http://www.w3.org/2000/svg" xmlns:xlink="http://www.w3.org/1999/xlink" x="0px" y="0px"
	 viewBox="0 0 16 16" enable-background="new 0 0 16 16" xml:space="preserve">
<path d="M13,1V0h-2v1H5V0H3v1H0v4v2v9h16V7V5V1H13z M14,14H2V7h12V14z M2,5V3h1v1h2V3h6v1h2V3h1v2H2z M10,8h2v2h-2V8z M7,8h2v2H7V8z
	 M4,8h2v2H4V8z M10,11h2v2h-2V11z M7,11h2v2H7V11z M4,11h2v2H4V11z"/>
</svg>
