<?xml version="1.0" encoding="utf-8"?>
<!-- Generator: Adobe Illustrator 19.1.1, SVG Export Plug-In . SVG Version: 6.00 Build 0)  -->
<svg version="1.1" id="IOS_copy" xmlns="http://www.w3.org/2000/svg" xmlns:xlink="http://www.w3.org/1999/xlink" x="0px" y="0px"
	 viewBox="0 0 20 9" enable-background="new 0 0 20 9" xml:space="preserve">
<path d="M17.7,6.6l1.6-1.3l-2-2.4c0.8-0.7,1.4-1.2,1.4-1.2l-1.4-1.4c0,0-3.8,3.7-7.3,3.7C6.5,4,2.7,0.3,2.7,0.3L1.3,1.7
	C1.4,1.8,1.9,2.3,2.7,3l-2,2.4l1.6,1.3l2.1-2.5c0.4,0.2,0.8,0.5,1.3,0.7L4.5,7.9l1.9,0.7l1.1-3.1C8,5.7,8.5,5.9,9,5.9V9h2V5.9
	c0.5-0.1,1-0.2,1.5-0.3l1.1,3.1l1.9-0.7l-1.2-3.1c0.4-0.2,0.9-0.5,1.3-0.7L17.7,6.6z"/>
</svg>
