<?xml version="1.0" encoding="utf-8"?>
<!-- Generator: Adobe Illustrator 19.1.1, SVG Export Plug-In . SVG Version: 6.00 Build 0)  -->
<svg version="1.1" id="IOS_copy" xmlns="http://www.w3.org/2000/svg" xmlns:xlink="http://www.w3.org/1999/xlink" x="0px" y="0px"
	 viewBox="0 0 16 16" enable-background="new 0 0 16 16" xml:space="preserve">
<path d="M7,11h2v2H7V11z M9,9.7c1-0.4,2-1.4,2-2.7c0-1.2-0.8-3-3-3S5,5.8,5,7l2,0c0-0.5,0.2-1,1-1s1,0.5,1,1c0,0.5-0.5,0.8-0.8,0.9
	L8,7.9C7.4,8.1,7,8.7,7,9.4V10h2V9.7z M16,8c0-4.4-3.6-8-8-8S0,3.6,0,8s3.6,8,8,8S16,12.4,16,8z M14,8c0,3.3-2.7,6-6,6s-6-2.7-6-6
	s2.7-6,6-6S14,4.7,14,8z"/>
</svg>
