<?xml version="1.0" encoding="utf-8"?>
<!-- Generator: Adobe Illustrator 19.1.1, SVG Export Plug-In . SVG Version: 6.00 Build 0)  -->
<svg version="1.1" id="IOS_copy" xmlns="http://www.w3.org/2000/svg" xmlns:xlink="http://www.w3.org/1999/xlink" x="0px" y="0px"
	 viewBox="0 0 12 16" enable-background="new 0 0 12 16" xml:space="preserve">
<path d="M11,4V2h1V0h-1H1H0v2h1v2c0,1.6,0.8,3.1,2,4c-1.2,0.9-2,2.4-2,4v2H0v2h1h10h1v-2h-1v-2c0-1.6-0.8-3.1-2-4
	C10.2,7.1,11,5.6,11,4z M9,12v2H8c0-1.1-0.9-2-2-2s-2,0.9-2,2H3v-2c0-1.7,1.3-3,3-3S9,10.3,9,12z M9,4c0,1.7-1.3,3-3,3S3,5.7,3,4V2
	h6V4z M4,4h4c0,0,0,2-2,2S4,4,4,4z"/>
</svg>
