<?xml version="1.0" encoding="utf-8"?>
<!-- Generator: Adobe Illustrator 19.1.1, SVG Export Plug-In . SVG Version: 6.00 Build 0)  -->
<svg version="1.1" id="IOS_copy" xmlns="http://www.w3.org/2000/svg" xmlns:xlink="http://www.w3.org/1999/xlink" x="0px" y="0px"
	 viewBox="0 0 16 14" enable-background="new 0 0 16 14" xml:space="preserve">
<path d="M16,1h-3L8,5.6l-2-1.9C6,3.5,6,3.2,6,3c0-1.7-1.3-3-3-3S0,1.3,0,3s1.3,3,3,3c0.7,0,1.3-0.2,1.7-0.6L6.4,7L4.7,8.5
	C4.2,8.2,3.6,8,3,8c-1.7,0-3,1.3-3,3s1.3,3,3,3s3-1.3,3-3c0-0.3,0-0.5-0.1-0.7l2.1-1.9l5,4.6h3L9.5,7L16,1z M3,4C2.4,4,2,3.6,2,3
	s0.4-1,1-1s1,0.4,1,1S3.6,4,3,4z M3,12c-0.6,0-1-0.4-1-1s0.4-1,1-1s1,0.4,1,1S3.6,12,3,12z"/>
</svg>
