<?xml version="1.0" encoding="utf-8"?>
<!-- Generator: Adobe Illustrator 19.1.1, SVG Export Plug-In . SVG Version: 6.00 Build 0)  -->
<svg version="1.1" id="IOS_copy" xmlns="http://www.w3.org/2000/svg" xmlns:xlink="http://www.w3.org/1999/xlink" x="0px" y="0px"
	 viewBox="0 0 20 14" enable-background="new 0 0 20 14" xml:space="preserve">
<path d="M10,12c-0.6,0-1,0.2-1.4,0.6L10,14l1.4-1.4C11,12.2,10.6,12,10,12z"/>
<path d="M7.2,11.2L5.8,9.8C6.9,8.6,8.4,8,10,8c1.6,0,3.1,0.6,4.2,1.8l-1.4,1.4C11.3,9.7,8.7,9.7,7.2,11.2z"/>
<path d="M4.3,8.3L2.9,6.9C4.8,5,7.3,4,10,4c2.7,0,5.2,1,7.1,2.9l-1.4,1.4C14.1,6.8,12.1,6,10,6S5.9,6.8,4.3,8.3z"/>
<path d="M18.5,5.5c-4.7-4.7-12.3-4.7-17,0L0.1,4.1C2.7,1.5,6.3,0,10,0s7.3,1.5,9.9,4.1L18.5,5.5z"/>
</svg>
