<?xml version="1.0" encoding="utf-8"?>
<!-- Generator: Adobe Illustrator 19.1.1, SVG Export Plug-In . SVG Version: 6.00 Build 0)  -->
<svg version="1.1" id="IOS_copy" xmlns="http://www.w3.org/2000/svg" xmlns:xlink="http://www.w3.org/1999/xlink" x="0px" y="0px"
	 viewBox="0 0 16 16" enable-background="new 0 0 16 16" xml:space="preserve">
<polygon points="12.7,4.9 11.3,6.3 12.1,7 9,7 9,4 9.8,4.8 11.2,3.4 8,0 4.9,3.3 6.3,4.7 7,4 7,7 3.9,7 4.7,6.2 3.3,4.8 0,8 
	3.4,11.3 4.8,9.8 3.9,9 7,9 7,12.1 6.2,11.3 4.8,12.7 8,16 11.1,12.7 9.7,11.3 9,12.1 9,9 12.1,9 11.3,9.7 12.7,11.2 16,8 "/>
</svg>
