<?xml version="1.0" encoding="iso-8859-1"?>
<!-- Generator: Adobe Illustrator 22.0.1, SVG Export Plug-In . SVG Version: 6.00 Build 0)  -->
<svg version="1.1" id="Layer_1" xmlns="http://www.w3.org/2000/svg" xmlns:xlink="http://www.w3.org/1999/xlink" x="0px" y="0px"
	 viewBox="0 0 14 15" style="enable-background:new 0 0 14 15;" xml:space="preserve">
<path d="M10.223,8.79C11.301,7.872,12,6.523,12,5c0-2.757-2.243-5-5-5S2,2.243,2,5c0,1.523,0.699,2.872,1.777,3.79
	C1.534,9.957,0,12.297,0,15h2c0-2.761,2.239-5,5-5s5,2.239,5,5h2C14,12.297,12.466,9.957,10.223,8.79z M4,5c0-1.654,1.346-3,3-3
	s3,1.346,3,3S8.654,8,7,8S4,6.654,4,5z"/>
</svg>
