<svg xmlns="http://www.w3.org/2000/svg" version="1" viewBox="0 0 48 48" class="icon icons8-Australia"><path fill="#283593" d="M2 10h44v28H2z"/><path d="M13 28l.593 1.892 1.812-.704-1.072 1.656L16 31.86l-1.93.17.265 1.97L13 32.56 11.665 34l.266-1.97-1.93-.17 1.667-1.015-1.072-1.656 1.812.703L13 28zm21.5 3l.297.946.906-.352-.536.828.833.507-.965.085.133.985-.668-.72-.668.72.133-.985L33 32.93l.833-.508-.536-.828.906.352L34.5 31zm-5.035-9.015l.297.946.906-.35-.536.827.833.507L30 24l.133.985-.668-.72-.668.72.134-.985-.964-.086.833-.507-.537-.828.906.35.295-.945zM34.5 16l.297.946.906-.352-.536.828.833.507-.965.085.133.985-.668-.72-.668.72.133-.985L33 17.93l.833-.508-.536-.828.906.352L34.5 16zm6 5l.297.946.906-.352-.536.828.833.507-.965.085.133.985-.668-.72-.668.72.133-.985L39 22.93l.833-.508-.536-.828.906.352L40.5 21zM37 25l.275.708.725.056-.556.493.174.743-.618-.403-.618.403.174-.743-.556-.493.725-.056L37 25zM2 11.957l9.46 5.907 1.422-2.38L4.094 10H2v1.957zM24 10h-1.64l-8.786 5.484 1.422 2.38L24 12.24V10zm-9.004 5.77l-1.422 2.374L22.95 24H24v-2.61l-9.004-5.62zM2 21.675V24h1.505l9.377-5.855-1.423-2.375L2 21.676zM24 15H2v4h22v-4zm-13-5v14h4V10h-4z" fill="#FFF"/><path d="M8.898 19h1.744l-8.01 5H2v-.695L8.898 19zm.59-4L2 10.324v1.09L7.746 15h1.742zm8.07 4L24 23.02v-1.087L19.3 19h-1.742zm5.674-9l-8.008 5h1.744L24 10.61V10h-.768zM14 10h-2v6H2v2h10v6h2v-6h10v-2H14v-6z" fill="#E53935"/></svg>