<svg xmlns="http://www.w3.org/2000/svg" version="1" viewBox="0 0 48 48" class="icon icons8-New-Zealand"><path fill="#3F51B5" d="M2 9h44v30H2z"/><path d="M22 11.2L17.6 14H22v4h-3.8l3.8 2.4V23h-1l-7-4.3V23h-4v-4.1L3.5 23H2v-2.3L6.3 18H2v-4h4.9L2 11V9h2.1l5.9 3.7V9h4v4l6.4-4H22v2.2zm9.34 13.098l2.17-1.916-2.882-.276-1.153-2.653-1.15 2.653-2.88.276 2.166 1.916-.626 2.822 2.492-1.468 2.49 1.468-.625-2.822zm5.288 5.807l-1.153-2.654-1.15 2.655-2.88.275 2.166 1.917-.626 2.822 2.492-1.47 2.492 1.47-.627-2.823 2.17-1.917-2.882-.275zm-3.645-9.982l2.492-1.47 2.492 1.47-.627-2.825 2.168-1.916-2.88-.276-1.154-2.653-1.15 2.653-2.88.276 2.167 1.916-.627 2.825zm11.526 1.26l-2.882-.277-1.153-2.653-1.15 2.653-2.88.276 2.167 1.916-.628 2.825 2.492-1.47 2.492 1.47-.627-2.824 2.17-1.918z" fill="#FFF"/><path d="M17.3 18l4.7 2.9V22l-6.4-4h1.7zm-7.8-4L2 9.3v1.1L7.7 14h1.8zM2 22.3v.7h.6l7.4-4.6V18H8.9L2 22.3zM21.2 9L14 13.5v.5h1l7-4.4V9h-.8zM13 9h-2v6H2v2h9v6h2v-6h9v-2h-9V9zm16.476 12.962l.47 1.083 1.175.113-.883.782.256 1.152-1.017-.6-1.017.6.255-1.152-.884-.782 1.176-.113.47-1.083zm6 8l.47 1.083 1.175.113-.883.782.256 1.152-1.017-.6-1.017.6.255-1.152-.884-.782 1.176-.113.47-1.083zm0-15l.47 1.083 1.175.113-.883.782.256 1.152-1.017-.6-1.017.6.255-1.152-.884-.782 1.176-.113.47-1.083zm5 6l.47 1.083 1.175.113-.883.782.256 1.152-1.017-.6-1.017.6.255-1.152-.884-.782 1.176-.113.47-1.083z" fill="#E53935"/></svg>