<?xml version="1.0" encoding="utf-8"?>
<!-- Generator: Adobe Illustrator 19.1.1, SVG Export Plug-In . SVG Version: 6.00 Build 0)  -->
<svg version="1.1" id="IOS_copy" xmlns="http://www.w3.org/2000/svg" xmlns:xlink="http://www.w3.org/1999/xlink" x="0px" y="0px"
	 viewBox="0 0 12 12" enable-background="new 0 0 12 12" xml:space="preserve">
<path d="M10.2,1.8c-0.1-0.1-0.1-0.1-0.2-0.2l1.1-1.1L7,0l0.4,4.2L8.6,3c0.1,0.1,0.2,0.1,0.2,0.2C9.6,3.9,10,4.9,10,6
	S9.6,8.1,8.8,8.8c-1.5,1.5-4.1,1.5-5.7,0C2.4,8.1,2,7.1,2,6s0.4-2.1,1.2-2.8L1.8,1.8C0.6,2.9,0,4.4,0,6s0.6,3.1,1.8,4.2
	C2.9,11.4,4.4,12,6,12s3.1-0.6,4.2-1.8C11.4,9.1,12,7.6,12,6S11.4,2.9,10.2,1.8z"/>
</svg>
