<?xml version="1.0" encoding="utf-8"?>
<!-- Generator: Adobe Illustrator 19.1.1, SVG Export Plug-In . SVG Version: 6.00 Build 0)  -->
<svg version="1.1" id="IOS_copy" xmlns="http://www.w3.org/2000/svg" xmlns:xlink="http://www.w3.org/1999/xlink" x="0px" y="0px"
	 viewBox="0 0 12 12" enable-background="new 0 0 12 12" xml:space="preserve">
<path d="M11.7,9.1L7.8,5.2C7.9,4.8,8,4.4,8,4c0-2.2-1.8-4-4-4C1.8,0,0,1.8,0,4c0,2.2,1.8,4,4,4c0.4,0,0.8-0.1,1.2-0.2l3.9,3.9
	C9.3,11.9,9.5,12,9.8,12H11c0.6,0,1-0.4,1-1V9.9C12,9.5,11.9,9.2,11.7,9.1z M3.4,4.8C2.6,4.8,2,4.2,2,3.4S2.6,2,3.4,2
	c0.8,0,1.4,0.6,1.4,1.4C4.9,4.1,4.2,4.8,3.4,4.8z"/>
</svg>
