<?xml version="1.0" encoding="utf-8"?>
<!-- Generator: Adobe Illustrator 19.1.1, SVG Export Plug-In . SVG Version: 6.00 Build 0)  -->
<svg version="1.1" id="IOS_copy" xmlns="http://www.w3.org/2000/svg" xmlns:xlink="http://www.w3.org/1999/xlink" x="0px" y="0px"
	 viewBox="0 0 12 12" enable-background="new 0 0 12 12" xml:space="preserve">
<path d="M10.9,1.1c-1.2-1.2-3.1-1.2-4.2,0L4.6,3.2C4.2,3.6,4,4,3.8,4.5c-0.5,0.1-1,0.4-1.4,0.8L1.1,6.7c-1.2,1.2-1.2,3.1,0,4.2
	c1.2,1.2,3.1,1.2,4.2,0l2.1-2.1C7.8,8.4,8,8,8.2,7.5c0.5-0.1,1-0.4,1.4-0.8l1.4-1.4C12.1,4.1,12.1,2.2,10.9,1.1z M9.5,3.9L8.8,4.6
	L8.1,5.3L8,5.4C7.8,5.1,7.7,4.8,7.4,4.6L6,6c0.4,0.4,0.4,1,0,1.4L3.9,9.5c-0.4,0.4-1,0.4-1.4,0c-0.4-0.4-0.4-1,0-1.4l0.7-0.7
	l0.7-0.7L4,6.6c0.1,0.3,0.3,0.6,0.6,0.8L6,6C5.6,5.6,5.6,5,6,4.6l2.1-2.1c0.4-0.4,1-0.4,1.4,0C9.9,2.9,9.9,3.5,9.5,3.9z"/>
</svg>
