<?xml version="1.0" encoding="utf-8"?>
<!-- Generator: Adobe Illustrator 19.1.1, SVG Export Plug-In . SVG Version: 6.00 Build 0)  -->
<svg version="1.1" id="IOS_copy" xmlns="http://www.w3.org/2000/svg" xmlns:xlink="http://www.w3.org/1999/xlink" x="0px" y="0px"
	 viewBox="0 0 12 12" enable-background="new 0 0 12 12" xml:space="preserve">
<path d="M10.7,9.6c-0.1,0-1.3-0.1-1.8-0.2c-0.1,0-0.2,0.1-0.2,0.2v1.2c0,0.7-0.5,1.2-1.2,1.2H1.2C0.5,12,0,11.5,0,10.8V8.8
	c0-0.1,0.1-0.2,0.2-0.2C0.7,8.7,1.8,9,2.1,9c0.8,0,1.5-0.7,1.5-1.5c0-0.8-0.7-1.5-1.5-1.5c-0.2,0-1.3,0.2-1.8,0.4
	C0.1,6.4,0,6.3,0,6.2V4.7C0,4,0.5,3.5,1.2,3.5H3c0.1,0,0.2-0.1,0.2-0.2C3.1,2.8,3,1.6,3,1.5C3,0.6,3.8,0,4.5,0
	c0.7,0,1.6,0.6,1.6,1.3c0,0.1-0.1,1.3-0.2,1.8c0,0.1,0.1,0.2,0.2,0.2h1.2c0.7,0,1.2,0.5,1.2,1.2v1.8c0,0.1,0.1,0.2,0.2,0.2
	c0.5-0.1,1.7-0.2,1.8-0.2c0.8,0,1.5,0.7,1.5,1.5C12.1,8.8,11.4,9.6,10.7,9.6z"/>
</svg>
