<?xml version="1.0" encoding="utf-8"?>
<!-- Generator: Adobe Illustrator 19.1.1, SVG Export Plug-In . SVG Version: 6.00 Build 0)  -->
<svg version="1.1" id="IOS_copy" xmlns="http://www.w3.org/2000/svg" xmlns:xlink="http://www.w3.org/1999/xlink" x="0px" y="0px"
	 viewBox="0 0 12 12" enable-background="new 0 0 12 12" xml:space="preserve">
<path d="M2.3,0.1l2.5,2.5c0,0,0,0.7-0.7,1.5C3.3,4.8,2.6,4.8,2.6,4.8L0.1,2.3c-0.4,1.4,0.1,3.1,1.1,4.1C2.8,8,4.7,6.6,5.2,7
	c2.2,2.2,3.9,4.4,4,4.5c0.7,0.7,1.7,0.7,2.3,0.1c0.7-0.7,0.6-1.7-0.1-2.3c-0.1-0.1-2.4-1.9-4.6-4.1C6.5,4.7,8,2.9,6.4,1.3
	C5.4,0.2,3.7-0.2,2.3,0.1z M10.9,10.2c0,0.4-0.3,0.7-0.7,0.7c-0.4,0-0.7-0.3-0.7-0.7c0-0.4,0.3-0.7,0.7-0.7
	C10.6,9.5,10.9,9.8,10.9,10.2z"/>
</svg>
