<?xml version="1.0" encoding="utf-8"?>
<!-- Generator: Adobe Illustrator 19.1.1, SVG Export Plug-In . SVG Version: 6.00 Build 0)  -->
<svg version="1.1" id="IOS_copy" xmlns="http://www.w3.org/2000/svg" xmlns:xlink="http://www.w3.org/1999/xlink" x="0px" y="0px"
	 viewBox="0 0 12 12" enable-background="new 0 0 12 12" xml:space="preserve">
<path d="M10.5,6.6c0-0.1,0-0.4,0-0.6s0-0.5,0-0.6l1.3-1C12,4.3,12,4.2,12,4.1l-1.2-2.2c-0.1-0.1-0.2-0.2-0.4-0.1L8.8,2.4
	C8.4,2.2,8.1,1.9,7.7,1.8L7.6,0.2C7.6,0.1,7.5,0,7.3,0H6h0H4.7C4.5,0,4.4,0.1,4.4,0.2L4.3,1.8C3.9,1.9,3.6,2.2,3.2,2.4L1.6,1.8
	c-0.1-0.1-0.2,0-0.4,0.1L0,4.1c0,0.1,0,0.2,0.1,0.4l1.3,1c0,0.1,0,0.4,0,0.6s0,0.5,0,0.6l-1.3,1C0,7.7,0,7.8,0,7.9l1.2,2.2
	c0.1,0.1,0.2,0.2,0.4,0.1l1.6-0.6c0.4,0.2,0.7,0.5,1.1,0.6l0.1,1.6c0,0.1,0.1,0.2,0.2,0.2H6h0h1.3c0.1,0,0.2-0.1,0.2-0.2l0.1-1.6
	c0.4-0.1,0.7-0.4,1.1-0.6l1.6,0.6c0.1,0.1,0.2,0,0.4-0.1L12,7.9c0-0.1,0-0.2-0.1-0.4L10.5,6.6z M6,8.4L6,8.4C4.7,8.4,3.6,7.3,3.6,6
	S4.7,3.6,6,3.6h0c1.3,0,2.4,1.1,2.4,2.4S7.3,8.4,6,8.4z"/>
</svg>
