<?xml version="1.0" encoding="utf-8"?>
<!-- Generator: Adobe Illustrator 19.1.1, SVG Export Plug-In . SVG Version: 6.00 Build 0)  -->
<svg version="1.1" id="IOS_copy" xmlns="http://www.w3.org/2000/svg" xmlns:xlink="http://www.w3.org/1999/xlink" x="0px" y="0px"
	 viewBox="0 0 14 11" enable-background="new 0 0 14 11" xml:space="preserve">
<path d="M10.5,11h-7C1.6,11,0,9.4,0,7.5c0-0.9,0.4-1.8,1-2.4C1,5,1,5,1,5c0-2.8,2.2-5,5-5c2.4,0,4.4,1.7,4.9,4
	C12.6,4.2,14,5.7,14,7.5C14,9.4,12.4,11,10.5,11z M6,2C4.3,2,3,3.3,3,5c0,0.1,0,0.1,0,0.2l0.1,0.7L2.6,6.3C2.2,6.6,2,7,2,7.5
	C2,8.3,2.7,9,3.5,9h7C11.3,9,12,8.3,12,7.5S11.3,6,10.5,6c-0.1,0-0.2,0-0.3,0L9,6.3l0-1.3C9,3.3,7.6,2,6,2z"/>
</svg>
