<?xml version="1.0" encoding="utf-8"?>
<!-- Generator: Adobe Illustrator 19.1.1, SVG Export Plug-In . SVG Version: 6.00 Build 0)  -->
<svg version="1.1" id="IOS_copy" xmlns="http://www.w3.org/2000/svg" xmlns:xlink="http://www.w3.org/1999/xlink" x="0px" y="0px"
	 viewBox="0 0 12 12" enable-background="new 0 0 12 12" xml:space="preserve">
<path d="M10,8V5c0-1.9-1.3-3.4-3-3.9C7,1.1,7,1,7,1c0-0.6-0.4-1-1-1C5.4,0,5,0.4,5,1c0,0,0,0.1,0,0.1C3.3,1.6,2,3.1,2,5v3l-2,2v1h5
	c0,0.6,0.4,1,1,1c0.6,0,1-0.4,1-1h5v-1L10,8z"/>
</svg>
