<?xml version="1.0" encoding="utf-8"?>
<!-- Generator: Adobe Illustrator 19.1.1, SVG Export Plug-In . SVG Version: 6.00 Build 0)  -->
<svg version="1.1" id="IOS_copy" xmlns="http://www.w3.org/2000/svg" xmlns:xlink="http://www.w3.org/1999/xlink" x="0px" y="0px"
	 viewBox="0 0 16 8" enable-background="new 0 0 16 8" xml:space="preserve">
<path d="M14.4,6.7l1.4-1.4L14,3.5c0.5-0.5,0.8-0.9,0.8-1l-1.7-1.1c0,0-1.7,2.6-5.2,2.6C4.6,4,2.9,1.5,2.8,1.4L1.2,2.6
	c0,0,0.3,0.5,0.9,1L0.3,5.3l1.4,1.4l1.9-1.9c0.2,0.1,0.5,0.3,0.7,0.4L3.2,7.9L5,8.7l1.2-2.9c0.2,0,0.5,0.1,0.7,0.1V9h2V5.9
	c0.3,0,0.5-0.1,0.8-0.1l1.4,2.9L13,7.9l-1.3-2.7c0.3-0.1,0.5-0.3,0.7-0.4L14.4,6.7z"/>
</svg>
