<?xml version="1.0" encoding="utf-8"?>
<!-- Generator: Adobe Illustrator 19.1.1, SVG Export Plug-In . SVG Version: 6.00 Build 0)  -->
<svg version="1.1" id="IOS_copy" xmlns="http://www.w3.org/2000/svg" xmlns:xlink="http://www.w3.org/1999/xlink" x="0px" y="0px"
	 viewBox="0 0 11 12" enable-background="new 0 0 11 12" xml:space="preserve">
<path d="M10,2h1V1.2C11,0.5,10.5,0,9.8,0H1.2C0.5,0,0,0.5,0,1.2V2h1c0.4,2.1,1.7,3.4,2.5,4.1c-0.8,0.7-2,2.1-2.4,3.9H0v0.8
	C0,11.5,0.5,12,1.2,12h8.6c0.7,0,1.2-0.5,1.2-1.2V10h-1C9.5,8.2,8.3,6.8,7.5,6.1C8.3,5.4,9.6,4.1,10,2z M6.3,6.5
	C6.9,7,8.3,8.1,8.7,10H7.9C7.2,9,6.2,8,5.5,8s-1.7,1-2.4,2H2.3c0.5-1.9,1.8-3,2.4-3.5c0.7-0.5-0.1-1-0.1-1C4.5,5.5,2.8,4.4,2.2,2
	h6.6C8.2,4.4,6.5,5.5,6.4,5.5C6.4,5.5,5.6,6,6.3,6.5z M4.3,3h2.4c0,0.5-0.7,1.8-1.2,1.8S4.3,3.5,4.3,3z"/>
</svg>
