<?xml version="1.0" encoding="utf-8"?>
<!-- Generator: Adobe Illustrator 19.1.1, SVG Export Plug-In . SVG Version: 6.00 Build 0)  -->
<svg version="1.1" id="IOS_copy" xmlns="http://www.w3.org/2000/svg" xmlns:xlink="http://www.w3.org/1999/xlink" x="0px" y="0px"
	 viewBox="0 0 12 12" enable-background="new 0 0 12 12" xml:space="preserve">
<path d="M6.6,3.9L9.3,1H12L7.9,5.3L6.6,3.9z M5.9,7.4L4.8,8.5C4.9,8.8,5,9.2,5,9.5C5,10.9,3.9,12,2.5,12C1.1,12,0,10.9,0,9.5
	C0,8.1,1.1,7,2.5,7c0.3,0,0.6,0.1,0.9,0.2L4.6,6L3.4,4.8C3.1,4.9,2.8,5,2.5,5C1.1,5,0,3.9,0,2.5C0,1.1,1.1,0,2.5,0
	C3.9,0,5,1.1,5,2.5c0,0.3-0.1,0.7-0.2,1L12,11H9.3L5.9,7.4z M3.5,9.5c0-0.5-0.5-1-1-1c-0.5,0-1,0.5-1,1c0,0.5,0.5,1,1,1
	C3,10.5,3.5,10,3.5,9.5z M5.9,5.7C5.7,5.7,5.5,5.8,5.5,6c0,0.2,0.1,0.3,0.3,0.3c0.2,0,0.3-0.1,0.3-0.3C6.2,5.8,6.1,5.7,5.9,5.7z
	 M2.5,3.5c0.5,0,1-0.5,1-1c0-0.5-0.5-1-1-1c-0.5,0-1,0.5-1,1C1.5,3,2,3.5,2.5,3.5z"/>
</svg>
