<?xml version="1.0" encoding="utf-8"?>
<!-- Generator: Adobe Illustrator 19.1.1, SVG Export Plug-In . SVG Version: 6.00 Build 0)  -->
<svg version="1.1" id="IOS_copy" xmlns="http://www.w3.org/2000/svg" xmlns:xlink="http://www.w3.org/1999/xlink" x="0px" y="0px"
	 viewBox="0 0 16 11" enable-background="new 0 0 16 11" xml:space="preserve">
<path d="M8,11L6.6,9.6c0.8-0.8,2-0.8,2.8,0L8,11z M11.5,7.5C10.6,6.5,9.3,6,8,6S5.4,6.5,4.5,7.5l1.4,1.4C7,7.7,9,7.7,10.1,8.9
	L11.5,7.5z M13.7,5.3C12.1,3.8,10.1,3,8,3S3.9,3.8,2.3,5.3l1.4,1.4C4.9,5.6,6.4,5,8,5s3.1,0.6,4.2,1.8L13.7,5.3z M13.7,5.3
	C12.1,3.8,10.1,3,8,3S3.9,3.8,2.3,5.3l1.4,1.4C4.9,5.6,6.4,5,8,5s3.1,0.6,4.2,1.8L13.7,5.3z M15.8,3.2c-4.3-4.3-11.3-4.3-15.6,0
	l1.4,1.4c3.5-3.5,9.2-3.5,12.7,0L15.8,3.2z"/>
</svg>
