<?xml version="1.0" encoding="utf-8"?>
<!-- Generator: Adobe Illustrator 19.1.1, SVG Export Plug-In . SVG Version: 6.00 Build 0)  -->
<svg version="1.1" id="IOS_copy" xmlns="http://www.w3.org/2000/svg" xmlns:xlink="http://www.w3.org/1999/xlink" x="0px" y="0px"
	 viewBox="0 0 12 12" enable-background="new 0 0 12 12" xml:space="preserve">
<path d="M6.4,4.4c0.1,0.2,0.2,0.5,0.2,0.8v0.5C6.5,6,6.3,6.1,6,6.1C5.8,6.1,5.7,6,5.6,5.9C5.5,5.7,5.4,5.4,5.4,5.1
	c0-0.3,0.1-0.5,0.2-0.7C5.7,4.2,5.8,4.1,6,4.1C6.2,4.1,6.3,4.2,6.4,4.4z M11.5,6c0,3-2.5,5.5-5.5,5.5C3,11.5,0.5,9,0.5,6
	S3,0.5,6,0.5C9,0.5,11.5,3,11.5,6z M7.8,5.4c0-0.4-0.1-0.8-0.2-1.1C7.4,4,7.2,3.7,7,3.5C6.7,3.3,6.4,3.3,6,3.3
	c-0.3,0-0.7,0.1-0.9,0.2C4.8,3.7,4.6,3.9,4.4,4.2c-0.2,0.3-0.2,0.6-0.2,1c0,0.5,0.1,1,0.4,1.3C4.9,6.8,5.2,7,5.7,7
	C6,7,6.3,6.8,6.6,6.6C6.5,7,6.4,7.3,6.1,7.5C5.9,7.7,5.5,7.8,5.1,7.8H5v0.9h0.1c0.9,0,1.5-0.3,2-0.8c0.5-0.5,0.7-1.2,0.7-2.1V5.4z"
	/>
</svg>
