<svg xmlns="http://www.w3.org/2000/svg" viewBox="0 0 16 16">
  <g>
    <path d="M 2 2 L 2 4 L 4 4 L 4 2 Z M 4 4 L 4 6 L 6 6 L 6 4 Z M 6 4 L 8 4 L 8 2 L 6 2 Z M 8 4 L 8 6 L 10 6 L 10 4 Z M 10 4 L 12 4 L 12 2 L 10 2 Z M 12 4 L 12 6 L 14 6 L 14 4 Z M 12 6 L 10 6 L 10 8 L 12 8 Z M 12 8 L 12 10 L 14 10 L 14 8 Z M 12 10 L 10 10 L 10 12 L 12 12 Z M 12 12 L 12 14 L 14 14 L 14 12 Z M 10 12 L 8 12 L 8 14 L 10 14 Z M 8 12 L 8 10 L 6 10 L 6 12 Z M 6 12 L 4 12 L 4 14 L 6 14 Z M 4 12 L 4 10 L 2 10 L 2 12 Z M 4 10 L 6 10 L 6 8 L 4 8 Z M 4 8 L 4 6 L 2 6 L 2 8 Z M 6 8 L 8 8 L 8 6 L 6 6 Z M 8 8 L 8 10 L 10 10 L 10 8 Z "/>
  </g>
</svg>
