<?xml version="1.0" encoding="iso-8859-1"?>
<!-- Generator: Adobe Illustrator 22.0.1, SVG Export Plug-In . SVG Version: 6.00 Build 0)  -->
<svg version="1.1" id="Layer_1" xmlns="http://www.w3.org/2000/svg" xmlns:xlink="http://www.w3.org/1999/xlink" x="0px" y="0px"
	 viewBox="0 0 14 14" style="enable-background:new 0 0 14 14;" xml:space="preserve">
<g>
	<g>
		<path style="fill:#4E7AB5;" d="M10.5,1c0.668,0,1.296,0.26,1.768,0.732C12.74,2.204,13,2.832,13,3.5
			c0,0.668-0.26,1.296-0.732,1.768l-1,1C10.796,6.74,10.168,7,9.5,7S8.204,6.74,7.732,6.268C7.26,5.796,7,5.168,7,4.5
			c0-0.668,0.26-1.296,0.732-1.768l1-1C9.204,1.26,9.832,1,10.5,1 M10.5,0C9.604,0,8.709,0.342,8.025,1.025
			c-0.357,0.357-0.643,0.643-1,1c-1.367,1.367-1.367,3.583,0,4.95C7.709,7.658,8.604,8,9.5,8s1.791-0.342,2.475-1.025
			c0.357-0.357,0.643-0.643,1-1c1.367-1.367,1.367-3.583,0-4.95C12.291,0.342,11.396,0,10.5,0L10.5,0z"/>
	</g>
</g>
<g>
	<g>
		<path style="fill:#4E7AB5;" d="M4.5,7c0.668,0,1.296,0.26,1.768,0.732C6.74,8.204,7,8.832,7,9.5c0,0.668-0.26,1.296-0.732,1.768
			l-1,1C4.796,12.74,4.168,13,3.5,13s-1.296-0.26-1.768-0.732C1.26,11.796,1,11.168,1,10.5c0-0.668,0.26-1.296,0.732-1.768l1-1
			C3.204,7.26,3.832,7,4.5,7 M4.5,6C3.604,6,2.709,6.342,2.025,7.025c-0.357,0.357-0.643,0.643-1,1c-1.367,1.367-1.367,3.583,0,4.95
			C1.709,13.658,2.604,14,3.5,14s1.791-0.342,2.475-1.025c0.357-0.357,0.643-0.643,1-1c1.367-1.367,1.367-3.583,0-4.95
			C6.291,6.342,5.396,6,4.5,6L4.5,6z"/>
	</g>
</g>
<line style="fill:none;stroke:#4E7AB5;stroke-linecap:round;stroke-linejoin:round;stroke-miterlimit:10;" x1="5" y1="9" x2="9" y2="5"/>
</svg>
