<?xml version="1.0" encoding="iso-8859-1"?>
<!-- Generator: Adobe Illustrator 22.0.1, SVG Export Plug-In . SVG Version: 6.00 Build 0)  -->
<svg version="1.1" id="Layer_1" xmlns="http://www.w3.org/2000/svg" xmlns:xlink="http://www.w3.org/1999/xlink" x="0px" y="0px"
	 viewBox="0 0 14 14" style="enable-background:new 0 0 14 14;" xml:space="preserve">
<path style="fill:none;stroke:#66798F;stroke-miterlimit:10;" d="M10.5,6c0,0,0-1.857,0-2c0-1.933-1.567-3.5-3.5-3.5
	S3.5,2.067,3.5,4c0,0.143,0,2,0,2"/>
<g>
	<path style="fill:#F5CE85;" d="M0.5,13.5V8c0-0.827,0.673-1.5,1.5-1.5h10c0.827,0,1.5,0.673,1.5,1.5v5.5H0.5z"/>
	<path style="fill:#967A44;" d="M12,7c0.551,0,1,0.449,1,1v5H1V8c0-0.551,0.449-1,1-1H12 M12,6H2C0.895,6,0,6.895,0,8v6h14V8
		C14,6.895,13.105,6,12,6L12,6z"/>
</g>
<rect x="1" y="12" style="fill:#FFEEA3;" width="12" height="1"/>
<rect x="1" y="10" style="fill:#FFEEA3;" width="12" height="1"/>
<rect x="1" y="8" style="fill:#FFEEA3;" width="12" height="1"/>
</svg>
