<?xml version="1.0" encoding="iso-8859-1"?>
<!-- Generator: Adobe Illustrator 22.0.1, SVG Export Plug-In . SVG Version: 6.00 Build 0)  -->
<svg version="1.1" id="Layer_1" xmlns="http://www.w3.org/2000/svg" xmlns:xlink="http://www.w3.org/1999/xlink" x="0px" y="0px"
	 viewBox="0 0 14 14" style="enable-background:new 0 0 14 14;" xml:space="preserve">
<g>
	<circle style="fill:#BAE0BD;" cx="7" cy="7" r="6.5"/>
	<g>
		<path style="fill:#5E9C76;" d="M7,1c3.308,0,6,2.692,6,6s-2.692,6-6,6s-6-2.692-6-6S3.692,1,7,1 M7,0C3.134,0,0,3.134,0,7
			s3.134,7,7,7s7-3.134,7-7S10.866,0,7,0L7,0z"/>
	</g>
</g>
<path style="fill:none;stroke:#5E9C76;stroke-miterlimit:10;" d="M8.5,5.5V5c0-0.828-0.672-1.5-1.5-1.5h0C6.172,3.5,5.5,4.172,5.5,5
	v0.779c0,0.43,0.275,0.813,0.684,0.949l1.632,0.544C8.225,7.408,8.5,7.79,8.5,8.221V9c0,0.828-0.672,1.5-1.5,1.5h0
	c-0.828,0-1.5-0.672-1.5-1.5V8.5"/>
<line style="fill:none;stroke:#5E9C76;stroke-miterlimit:10;" x1="7" y1="2" x2="7" y2="3.5"/>
<line style="fill:none;stroke:#5E9C76;stroke-miterlimit:10;" x1="7" y1="10.5" x2="7" y2="12"/>
</svg>
