<?xml version="1.0" encoding="iso-8859-1"?>
<!-- Generator: Adobe Illustrator 22.0.1, SVG Export Plug-In . SVG Version: 6.00 Build 0)  -->
<svg version="1.1" id="Layer_1" xmlns="http://www.w3.org/2000/svg" xmlns:xlink="http://www.w3.org/1999/xlink" x="0px" y="0px"
	 viewBox="0 0 14 12" style="enable-background:new 0 0 14 12;" xml:space="preserve">
<line style="fill:none;stroke:#66798F;stroke-linecap:round;stroke-miterlimit:10;" x1="5.23" y1="10.764" x2="6" y2="8"/>
<line style="fill:none;stroke:#66798F;stroke-linecap:round;stroke-miterlimit:10;" x1="0.5" y1="7.56" x2="2.375" y2="5.56"/>
<line style="fill:none;stroke:#66798F;stroke-linecap:round;stroke-miterlimit:10;" x1="2.5" y1="9.5" x2="4.438" y2="6.932"/>
<line style="fill:none;stroke:#66798F;stroke-linecap:round;stroke-miterlimit:10;" x1="8.77" y1="10.764" x2="8" y2="8"/>
<line style="fill:none;stroke:#66798F;stroke-linecap:round;stroke-miterlimit:10;" x1="13.5" y1="7.56" x2="11.625" y2="5.56"/>
<line style="fill:none;stroke:#66798F;stroke-linecap:round;stroke-miterlimit:10;" x1="11.5" y1="9.5" x2="9.562" y2="6.932"/>
<g>
	<path style="fill:#FFEEA3;" d="M7,9.5C3.945,9.5,1.299,6.004,0.602,5C1.3,3.998,3.951,0.5,7,0.5c3.055,0,5.701,3.496,6.398,4.5
		C12.7,6.002,10.049,9.5,7,9.5z"/>
	<g>
		<path style="fill:#BA9B48;" d="M7,1c2.581,0,4.914,2.811,5.788,4.005C11.722,6.473,9.389,9,7,9C4.419,9,2.086,6.189,1.212,4.995
			C2.278,3.527,4.611,1,7,1 M7,0C3.134,0,0,5,0,5s3.134,5,7,5s7-5,7-5S10.866,0,7,0L7,0z"/>
	</g>
</g>
</svg>
