<?xml version="1.0" encoding="iso-8859-1"?>
<!-- Generator: Adobe Illustrator 22.0.1, SVG Export Plug-In . SVG Version: 6.00 Build 0)  -->
<svg version="1.1" id="Layer_1" xmlns="http://www.w3.org/2000/svg" xmlns:xlink="http://www.w3.org/1999/xlink" x="0px" y="0px"
	 viewBox="0 0 9 9" style="enable-background:new 0 0 9 9;" xml:space="preserve">
<g>
	<g>
		<path style="fill:#4E7AB5;" d="M6.812,1c0.317,0,0.615,0.124,0.84,0.348C7.876,1.572,8,1.87,8,2.187
			c0,0.317-0.124,0.615-0.348,0.84L7.027,3.652C6.803,3.876,6.505,4,6.188,4s-0.615-0.124-0.84-0.348C5.124,3.428,5,3.13,5,2.812
			s0.124-0.615,0.348-0.84l0.625-0.625C6.197,1.123,6.495,1,6.812,1 M6.812,0c-0.56,0-1.12,0.214-1.547,0.641
			C5.043,0.864,4.864,1.043,4.641,1.266c-0.854,0.854-0.854,2.239,0,3.094C5.068,4.786,5.628,5,6.188,5s1.12-0.214,1.547-0.641
			c0.223-0.223,0.402-0.402,0.625-0.625c0.854-0.854,0.854-2.239,0-3.094C7.932,0.214,7.372,0,6.812,0L6.812,0z"/>
	</g>
</g>
<g>
	<g>
		<path style="fill:#4E7AB5;" d="M2.812,5c0.317,0,0.615,0.124,0.84,0.348C3.876,5.572,4,5.87,4,6.187
			c0,0.317-0.124,0.615-0.348,0.84L3.027,7.652C2.803,7.876,2.505,8,2.187,8s-0.615-0.124-0.84-0.348C1.124,7.428,1,7.13,1,6.812
			s0.124-0.615,0.348-0.84l0.625-0.625C2.197,5.124,2.495,5,2.812,5 M2.812,4c-0.56,0-1.12,0.214-1.547,0.641
			C1.043,4.864,0.864,5.043,0.641,5.266c-0.854,0.854-0.854,2.239,0,3.094C1.068,8.786,1.628,9,2.187,9s1.12-0.214,1.547-0.641
			c0.223-0.223,0.402-0.402,0.625-0.625c0.854-0.854,0.854-2.239,0-3.094C3.932,4.214,3.372,4,2.812,4L2.812,4z"/>
	</g>
</g>
<line style="fill:none;stroke:#4E7AB5;stroke-linecap:round;stroke-linejoin:round;stroke-miterlimit:10;" x1="2.728" y1="6.272" x2="6.272" y2="2.728"/>
</svg>
