<?xml version="1.0" encoding="iso-8859-1"?>
<!-- Generator: Adobe Illustrator 22.0.1, SVG Export Plug-In . SVG Version: 6.00 Build 0)  -->
<svg version="1.1" id="Layer_1" xmlns="http://www.w3.org/2000/svg" xmlns:xlink="http://www.w3.org/1999/xlink" x="0px" y="0px"
	 viewBox="0 0 9 9" style="enable-background:new 0 0 9 9;" xml:space="preserve">
<path style="fill:none;stroke:#66798F;stroke-miterlimit:10;" d="M7,5.806c0,0,0-2.704,0-2.806c0-1.381-1.119-2.5-2.5-2.5
	S2,1.619,2,3c0,0.102,0,2.806,0,2.806"/>
<g>
	<path style="fill:#F5CE85;" d="M0.5,8.5V4c0-0.276,0.224-0.5,0.5-0.5h7c0.276,0,0.5,0.224,0.5,0.5v4.5H0.5z"/>
	<path style="fill:#967A44;" d="M8,4v4H1V4H8 M8,3H1C0.448,3,0,3.448,0,4v5h9V4C9,3.448,8.552,3,8,3L8,3z"/>
</g>
<rect x="1" y="6" style="fill:#FFEEA3;" width="7" height="1"/>
<rect x="1" y="4" style="fill:#FFEEA3;" width="7" height="1"/>
</svg>
