<?xml version="1.0" encoding="iso-8859-1"?>
<!-- Generator: Adobe Illustrator 22.0.1, SVG Export Plug-In . SVG Version: 6.00 Build 0)  -->
<svg version="1.1" id="Layer_1" xmlns="http://www.w3.org/2000/svg" xmlns:xlink="http://www.w3.org/1999/xlink" x="0px" y="0px"
	 viewBox="0 0 9 9" style="enable-background:new 0 0 9 9;" xml:space="preserve">
<g>
	<circle style="fill:#BAE0BD;" cx="4.5" cy="4.5" r="4"/>
	<g>
		<path style="fill:#5E9C76;" d="M4.5,1C6.43,1,8,2.57,8,4.5S6.43,8,4.5,8S1,6.43,1,4.5S2.57,1,4.5,1 M4.5,0C2.015,0,0,2.015,0,4.5
			S2.015,9,4.5,9S9,6.985,9,4.5S6.985,0,4.5,0L4.5,0z"/>
	</g>
</g>
<path style="fill:none;stroke:#5E9C76;stroke-miterlimit:10;" d="M5.464,3.536V3.214c0-0.533-0.432-0.964-0.964-0.964h0
	c-0.533,0-0.964,0.432-0.964,0.964v0.501c0,0.277,0.177,0.522,0.44,0.61l1.049,0.35c0.263,0.088,0.44,0.333,0.44,0.61v0.501
	c0,0.533-0.432,0.964-0.964,0.964h0c-0.533,0-0.964-0.432-0.964-0.964V5.464"/>
<line style="fill:none;stroke:#5E9C76;stroke-miterlimit:10;" x1="4.5" y1="1.286" x2="4.5" y2="2.25"/>
<line style="fill:none;stroke:#5E9C76;stroke-miterlimit:10;" x1="4.5" y1="6.75" x2="4.5" y2="7.714"/>
</svg>
