<?xml version="1.0" encoding="iso-8859-1"?>
<!-- Generator: Adobe Illustrator 22.0.1, SVG Export Plug-In . SVG Version: 6.00 Build 0)  -->
<svg version="1.1" id="Layer_1" xmlns="http://www.w3.org/2000/svg" xmlns:xlink="http://www.w3.org/1999/xlink" x="0px" y="0px"
	 viewBox="0 0 9 8" style="enable-background:new 0 0 9 8;" xml:space="preserve">
<line style="fill:none;stroke:#66798F;stroke-width:0.5;stroke-linecap:round;stroke-miterlimit:10;" x1="3.362" y1="6.92" x2="3.857" y2="5.143"/>
<line style="fill:none;stroke:#66798F;stroke-width:0.5;stroke-linecap:round;stroke-miterlimit:10;" x1="0.321" y1="4.86" x2="1.527" y2="3.574"/>
<line style="fill:none;stroke:#66798F;stroke-width:0.5;stroke-linecap:round;stroke-miterlimit:10;" x1="1.607" y1="6.107" x2="2.853" y2="4.456"/>
<line style="fill:none;stroke:#66798F;stroke-width:0.5;stroke-linecap:round;stroke-miterlimit:10;" x1="5.638" y1="6.92" x2="5.143" y2="5.143"/>
<line style="fill:none;stroke:#66798F;stroke-width:0.5;stroke-linecap:round;stroke-miterlimit:10;" x1="8.679" y1="4.86" x2="7.473" y2="3.574"/>
<line style="fill:none;stroke:#66798F;stroke-width:0.5;stroke-linecap:round;stroke-miterlimit:10;" x1="7.393" y1="6.107" x2="6.147" y2="4.456"/>
<g>
	<path style="fill:#FFEEA3;" d="M4.5,5.929c-1.79,0-3.372-1.983-3.895-2.714C1.129,2.484,2.715,0.5,4.5,0.5
		c1.79,0,3.372,1.983,3.895,2.714C7.871,3.944,6.285,5.929,4.5,5.929z"/>
	<g>
		<path style="fill:#BA9B48;" d="M4.5,1c1.281,0,2.577,1.314,3.275,2.214c-0.69,0.885-2,2.215-3.275,2.215
			c-1.281,0-2.577-1.314-3.275-2.214C1.915,2.33,3.225,1,4.5,1 M4.5,0C2.015,0,0,3.214,0,3.214s2.015,3.214,4.5,3.214
			S9,3.214,9,3.214S6.985,0,4.5,0L4.5,0z"/>
	</g>
</g>
</svg>
