<svg xmlns="http://www.w3.org/2000/svg" version="1" viewBox="0 0 48 48" class="icon icons8-Morocco"><path fill="#D50000" d="M2 9h44v30H2z"/><path d="M21.693 28.714l1.09-3.355-2.853-2.074h3.527l1.09-3.357 1.092 3.356h3.526l-2.853 2.073 1.09 3.354-2.854-2.073-2.857 2.074zm3.462-2.515l.885.642-.338-1.04-.547.397zm-1.764-.4l-.337 1.042.885-.643-.547-.4zm.233-.714l.923.67.923-.67-.353-1.084h-1.142l-.352 1.084zm-1.492-1.084l.885.642.21-.642H22.13zm3.74 0l.21.642.883-.642H25.87zm-1.662-.716h.677l-.34-1.042-.337 1.042z" fill="#1B5E20"/></svg>