<svg xmlns="http://www.w3.org/2000/svg" version="1" viewBox="0 0 48 48" class="icon icons8-Tunisia"><path fill="#DD2C00" d="M2 9h44v30H2z"/><path d="M24 16c-4.418 0-8 3.582-8 8s3.582 8 8 8 8-3.582 8-8-3.582-8-8-8zm0 14c-3.314 0-6-2.686-6-6s2.686-6 6-6c1.915.003 3.713.92 4.84 2.467-.883-.813-2.04-1.265-3.24-1.267-2.65 0-4.8 2.15-4.8 4.8s2.15 4.8 4.8 4.8c1.2-.002 2.357-.454 3.24-1.266C27.714 29.08 25.916 29.998 24 30zm4.512-3.884l-2.488-.808-1.537 2.116v-2.616L22 24l2.488-.808v-2.615l1.537 2.116 2.488-.808L26.975 24l1.537 2.116z" fill="#FFF"/></svg>