<?xml version="1.0" encoding="utf-8"?>
<!-- Generator: Adobe Illustrator 19.1.1, SVG Export Plug-In . SVG Version: 6.00 Build 0)  -->
<svg version="1.1" id="IOS_copy" xmlns="http://www.w3.org/2000/svg" xmlns:xlink="http://www.w3.org/1999/xlink" x="0px" y="0px"
	 viewBox="0 0 16 22" enable-background="new 0 0 16 22" xml:space="preserve">
<path fill="#FFA000" d="M15.5,2.5c-0.3-0.9-1-1.6-2-1.8C12.2,0.4,10.2,0,8,0S3.8,0.4,2.5,0.6c-1,0.2-1.7,0.9-2,1.8
	C0.3,3.4,0,4.6,0,6s0.3,2.6,0.5,3.5c0.3,0.9,1,1.6,2,1.8C3.2,11.5,4,11.7,5,11.8V20l2,2h2l2-2v-1l-1-1l1-1v-1l-1-1l1-1v-2.2
	c1-0.1,1.8-0.3,2.5-0.4c1-0.2,1.7-0.9,2-1.8C15.7,8.6,16,7.4,16,6S15.7,3.4,15.5,2.5z M12,3.9C12,4.5,11.5,5,10.9,5H5.1
	C4.5,5,4,4.5,4,3.9V2.5C4,2.2,5.8,2,8,2s4,0.3,4,0.6V3.9z"/>
<rect x="7" y="11.1" fill="#D68600" width="1" height="10.9"/>
</svg>
