<?xml version="1.0" encoding="utf-8"?>
<!-- Generator: Adobe Illustrator 19.1.1, SVG Export Plug-In . SVG Version: 6.00 Build 0)  -->
<svg version="1.1" id="IOS_copy" xmlns="http://www.w3.org/2000/svg" xmlns:xlink="http://www.w3.org/1999/xlink" x="0px" y="0px"
	 viewBox="0 0 18 22" enable-background="new 0 0 18 22" xml:space="preserve">
<path fill="#FF5252" d="M1,4.9c0.1,2.9,0.9,11.9,8,15.9c7-4,7.9-13,8-15.9c-3.7-0.3-6.7-2.5-8-3.6C7.6,2.4,4.4,4.6,1,4.9z"/>
<g>
	<path fill="#D32F2F" d="M9,20.9c7-4,7.9-13,8-15.9c-3.7-0.3-6.7-2.5-8-3.6V20.9z"/>
</g>
<path fill="#C5CAE9" d="M8.9,2.6c1.4,1.1,3.9,2.7,7,3.2c-0.2,3.3-1.4,10.3-7,13.9C3.4,16.2,2.2,9,2,5.8C4.9,5.2,7.4,3.7,8.9,2.6
	 M9,0c0,0-4.5,4-9,4c0,0-0.7,13,9,18c9.5-5,9-18,9-18C12.9,4,9,0,9,0L9,0z"/>
<path fill="#9FA8DA" d="M18,4c-5.1,0-9-4-9-4v2.6c1.5,1.1,3.9,2.7,6.9,3.2C15.7,9.1,14.5,16.2,9,19.7V22C18.5,17,18,4,18,4z"/>
</svg>
