<?xml version="1.0" encoding="utf-8"?>
<!-- Generator: Adobe Illustrator 19.1.1, SVG Export Plug-In . SVG Version: 6.00 Build 0)  -->
<svg version="1.1" id="IOS_copy" xmlns="http://www.w3.org/2000/svg" xmlns:xlink="http://www.w3.org/1999/xlink" x="0px" y="0px"
	 viewBox="0 0 18 22" enable-background="new 0 0 18 22" xml:space="preserve">
<path fill="#7CB342" d="M18,8.4C18,7.1,16.9,6,15.6,6h-3.9c-0.4,0-0.7-0.5-0.4-0.8C11.6,4.6,12,4,12,3c0-3-3-3-3-3S6,0,6,3
	c0,1,0.5,1.7,0.7,2.2C7,5.5,6.7,6,6.3,6H2.4C1.1,6,0,7.1,0,8.4V11c0,0.4,0.5,0.7,0.8,0.4C1.4,11.1,2.2,10.9,3,11
	c1.2,0.2,2.1,1.2,2.3,2.3C5.7,15.3,4.3,17,2.4,17c-0.6,0-1.1-0.2-1.6-0.4C0.5,16.3,0,16.6,0,17v2.6C0,20.9,1.1,22,2.4,22h13.2
	c1.3,0,2.4-1.1,2.4-2.4V8.4z"/>
</svg>
