<?xml version="1.0" encoding="utf-8"?>
<!-- Generator: Adobe Illustrator 19.1.1, SVG Export Plug-In . SVG Version: 6.00 Build 0)  -->
<svg version="1.1" id="IOS_copy" xmlns="http://www.w3.org/2000/svg" xmlns:xlink="http://www.w3.org/1999/xlink" x="0px" y="0px"
	 viewBox="0 0 22 22" enable-background="new 0 0 22 22" xml:space="preserve">
<path fill="#616161" d="M21.9,19.8l-6.5-6.5c1-1.4,1.5-3,1.5-4.9C17,3.8,13.2,0,8.5,0S0,3.8,0,8.5C0,13.2,3.8,17,8.5,17
	c1.8,0,3.5-0.6,4.9-1.5l6.5,6.5L21.9,19.8z"/>
<rect x="17.4" y="15.9" transform="matrix(-0.7071 0.7071 -0.7071 -0.7071 45.5557 18.8699)" fill="#37474F" width="3" height="5.9"/>
<path fill="#BBDEFB" d="M15,8.5c0,3.6-2.9,6.5-6.5,6.5C4.9,15,2,12.1,2,8.5C2,4.9,4.9,2,8.5,2C12.1,2,15,4.9,15,8.5"/>
<path fill="#E3F2FD" d="M11,7.5c-0.4,0-0.8-0.1-1.1-0.4c-0.8-0.8-2-0.8-2.8,0C6.5,7.7,5.5,7.7,5,7.1C4.4,6.5,4.4,5.5,5,5
	C6.9,3,10.1,3,12,5c0.6,0.6,0.6,1.5,0,2.1C11.7,7.4,11.4,7.5,11,7.5z"/>
</svg>
