<?xml version="1.0" encoding="utf-8"?>
<!-- Generator: Adobe Illustrator 19.1.1, SVG Export Plug-In . SVG Version: 6.00 Build 0)  -->
<svg version="1.1" id="IOS_copy" xmlns="http://www.w3.org/2000/svg" xmlns:xlink="http://www.w3.org/1999/xlink" x="0px" y="0px"
	 viewBox="0 0 21.7 16" enable-background="new 0 0 21.7 16" xml:space="preserve">
<path fill="#5D4037" d="M13.8,12.9c0,1.5,0.1,3.1,0.1,3.1s-0.6-1.4-1.1-2.9c-0.3-0.7-0.5-1.5-0.7-2.1C12,10.7,12,10.4,12,10.3
	c0-0.2-0.1-0.3-0.1-0.3l2-0.1c0,0,0,0.1,0,0.3c0,0.2,0,0.4-0.1,0.6C13.8,11.4,13.7,12.2,13.8,12.9z M19.2,12.7
	c-0.2-0.1-0.4-0.3-0.5-0.5c-0.2-0.2-0.3-0.4-0.4-0.7c-0.3-0.5-0.4-1-0.5-1.5c-0.1-0.2-0.1-0.4-0.1-0.5c0-0.1,0-0.2,0-0.2l-1.7,0.7
	c0,0,0-0.1,0-0.1l-2,0c0,0,0,0.1,0.1,0.3c0,0.2,0.1,0.4,0.2,0.7c0.2,0.5,0.5,1.2,0.8,1.9c0.4,0.6,0.8,1.2,1.2,1.6
	c0.2,0.2,0.4,0.3,0.5,0.4c0.1,0.1,0.2,0.1,0.2,0.1s0-0.1-0.1-0.2c-0.1-0.1-0.2-0.3-0.3-0.5c-0.2-0.5-0.4-1.1-0.6-1.7
	c-0.1-0.6-0.1-1.3-0.1-1.8c0-0.2,0-0.3,0-0.5c0,0,0,0,0,0c0.1,0.1,0.2,0.3,0.4,0.5c0.3,0.4,0.7,0.9,1.3,1.3c0.3,0.2,0.5,0.4,0.8,0.6
	c0.3,0.1,0.6,0.2,0.8,0.3c0.2,0,0.4,0.1,0.6,0c0.1,0,0.2,0,0.2,0s-0.1,0-0.2-0.1C19.6,12.9,19.4,12.8,19.2,12.7z M20.5,10.7
	c-0.2-0.2-0.4-0.5-0.5-0.9c-0.1-0.4-0.2-0.8-0.2-1.1c0-0.1,0-0.3,0-0.3c0-0.1,0-0.1,0-0.1L17.7,9c0,0,0,0.1,0.1,0.1
	c0.1,0.1,0.2,0.2,0.3,0.4c0.2,0.3,0.6,0.6,1,0.9c0.4,0.3,0.8,0.5,1.2,0.6c0.2,0,0.3,0,0.4,0c0.1,0,0.2,0,0.2,0S20.7,10.9,20.5,10.7z
	 M10.9,16l1-5h-2L10.9,16z M7.9,10.2c0,0.2,0,0.4,0.1,0.6c0,0.5,0.1,1.3,0,2.1C8,14.5,7.9,16,7.9,16s0.6-1.4,1.1-2.9
	c0.3-0.7,0.5-1.5,0.7-2.1c0.1-0.3,0.1-0.6,0.2-0.7c0-0.2,0.1-0.3,0.1-0.3l-2-0.1C7.9,10,7.9,10.1,7.9,10.2z M6.1,9.8L4.2,9.1
	c0,0,0,0.1,0,0.2c0,0.1-0.1,0.3-0.1,0.5c-0.1,0.4-0.3,1-0.5,1.6c-0.2,0.5-0.6,1-1,1.3c-0.2,0.1-0.4,0.2-0.5,0.3C2,13,1.9,13,1.9,13
	s0.1,0,0.2,0c0.1,0,0.4,0,0.6-0.1c0.2-0.1,0.5-0.2,0.8-0.4c0.3-0.2,0.6-0.4,0.8-0.6c0.5-0.5,0.9-1,1.2-1.4c0.1-0.2,0.2-0.3,0.3-0.5
	c0,0,0,0,0,0.1c0,0.1,0,0.3,0.1,0.6c0,0.5,0,1.1-0.1,1.8c-0.1,0.7-0.3,1.3-0.6,1.8c-0.1,0.2-0.2,0.4-0.3,0.5C4.9,15,4.9,15,4.9,15
	S5,15,5.1,14.9c0.1-0.1,0.3-0.2,0.5-0.4c0.4-0.4,0.9-0.9,1.2-1.6c0.4-0.6,0.7-1.4,0.8-1.9c0.1-0.3,0.1-0.5,0.2-0.7
	c0-0.2,0.1-0.3,0.1-0.3L6,10C6,9.9,6.1,9.8,6.1,9.8z M3.7,9.5c0.1-0.1,0.2-0.3,0.3-0.4C4,9.1,4.1,9,4.1,9L2.2,8.3c0,0,0,0,0,0.1
	c0,0.1,0,0.2,0,0.3c0,0.3-0.1,0.7-0.2,1.1c-0.1,0.4-0.3,0.7-0.5,0.9C1.1,10.9,0.9,11,0.9,11s0.1,0,0.2,0c0.1,0,0.2,0,0.4,0
	c0.4-0.1,0.8-0.3,1.2-0.6C3.1,10.1,3.4,9.8,3.7,9.5z"/>
<path fill="#FFB74D" d="M11,11C6.5,11,1.1,7.7,0.1,7C0.1,7,0,6.9,0,6.8s0-0.1,0-0.2C0.8,5.5,4.8,0,11,0c6.2,0,10.1,5.7,10.8,6.8
	c0.1,0.1,0,0.3-0.1,0.3C20.9,7.8,16.3,11,11,11z"/>
<path fill="#FFA726" d="M10.9,0c-2.5,0-5.5,1.2-7,2.5c0.9-0.2,3-0.5,4-0.5c4.4,0,8,1.8,8,4s-3.6,4-8,4C6.5,10,4.7,9.3,3.5,9
	C5.4,9.7,8.4,11,10.9,11c6,0,11-4,11-4S17.9,0,10.9,0z"/>
</svg>
