<?xml version="1.0" encoding="utf-8"?>
<!-- Generator: Adobe Illustrator 19.1.1, SVG Export Plug-In . SVG Version: 6.00 Build 0)  -->
<svg version="1.1" id="IOS_copy" xmlns="http://www.w3.org/2000/svg" xmlns:xlink="http://www.w3.org/1999/xlink" x="0px" y="0px"
	 viewBox="0 0 22 22" enable-background="new 0 0 22 22" xml:space="preserve">
<polygon fill="#B0BEC5" points="2.7,21 0,22 1,19.3 8.2,12.1 9.9,13.8 "/>
<polygon fill="#D84315" points="13,13.4 8.7,9 17.1,1.8 20.2,4.9 "/>
<path fill="#FF5722" d="M22,4.9l-0.8,0.8c-0.4,0.4-1.2,0.4-1.6,0l-3.2-3.2c-0.4-0.4-0.4-1.2,0-1.6L17.1,0L22,4.9z M12.2,18l0.9-0.9
	c1.2-1.2,1.2-3.2,0-4.4L9.3,8.9c-1.2-1.2-3.2-1.2-4.4,0L4,9.8L12.2,18z"/>
</svg>
