<?xml version="1.0" encoding="utf-8"?>
<!-- Generator: Adobe Illustrator 19.1.1, SVG Export Plug-In . SVG Version: 6.00 Build 0)  -->
<svg version="1.1" id="IOS_copy" xmlns="http://www.w3.org/2000/svg" xmlns:xlink="http://www.w3.org/1999/xlink" x="0px" y="0px"
	 viewBox="0 0 22 20" enable-background="new 0 0 22 20" xml:space="preserve">
<path fill="#FFC107" d="M20.8,20H1.2c-0.4,0-0.8-0.2-1.1-0.6c-0.2-0.4-0.2-0.9,0-1.3L9.9,0.6C10.2,0.2,10.6,0,11,0
	c0.4,0,0.8,0.2,1.1,0.6l9.8,17.5c0.2,0.4,0.2,0.9,0,1.3C21.6,19.8,21.2,20,20.8,20z"/>
<path fill="#5D4037" d="M10,17c0-0.1,0-0.3,0.1-0.4c0-0.1,0.1-0.2,0.2-0.3c0.1-0.1,0.2-0.2,0.3-0.2c0.1,0,0.3-0.1,0.4-0.1
	c0.2,0,0.3,0,0.4,0.1c0.1,0,0.2,0.1,0.3,0.2c0.1,0.1,0.2,0.2,0.2,0.3c0,0.1,0.1,0.3,0.1,0.4c0,0.1,0,0.3-0.1,0.4
	c0,0.1-0.1,0.2-0.2,0.3c-0.1,0.1-0.2,0.2-0.3,0.2C11.3,18,11.2,18,11,18c-0.2,0-0.3,0-0.4-0.1c-0.1-0.1-0.2-0.1-0.3-0.2
	c-0.1-0.1-0.2-0.2-0.2-0.3C10,17.3,10,17.1,10,17 M10,15h2V7h-2V15z"/>
</svg>
