<?xml version="1.0" encoding="utf-8"?>
<!-- Generator: Adobe Illustrator 19.1.1, SVG Export Plug-In . SVG Version: 6.00 Build 0)  -->
<svg version="1.1" id="IOS_copy" xmlns="http://www.w3.org/2000/svg" xmlns:xlink="http://www.w3.org/1999/xlink" x="0px" y="0px"
	 viewBox="0 0 20 20" enable-background="new 0 0 20 20" xml:space="preserve">
<path fill="#2196F3" d="M20,10c0,5.5-4.5,10-10,10C4.5,20,0,15.5,0,10C0,4.5,4.5,0,10,0C15.5,0,20,4.5,20,10"/>
<g>
	<path fill="#FFFFFF" d="M8.8,9.1h1.1c0.9,0,1.3-0.4,1.3-1.2c0-0.3-0.1-0.6-0.3-0.8c-0.2-0.2-0.5-0.3-0.9-0.3C9.7,6.7,9.4,6.8,9.2,7
		C9,7.2,8.8,7.4,8.8,7.6H6.5c0-0.5,0.1-1,0.4-1.4c0.3-0.4,0.7-0.7,1.2-0.9C8.7,5.1,9.3,5,9.9,5c1.1,0,2,0.2,2.6,0.7
		c0.6,0.5,0.9,1.2,0.9,2c0,0.4-0.1,0.8-0.4,1.2c-0.3,0.4-0.6,0.7-1.1,0.9c0.5,0.2,0.9,0.5,1.2,0.9c0.3,0.4,0.5,0.9,0.5,1.4
		c0,0.9-0.3,1.6-1,2.1C11.9,14.7,11,15,9.9,15c-0.7,0-1.3-0.1-1.8-0.4c-0.6-0.2-1-0.6-1.3-1c-0.3-0.4-0.4-0.9-0.4-1.5h2.3
		c0,0.3,0.1,0.6,0.4,0.8c0.2,0.2,0.5,0.3,0.9,0.3c0.4,0,0.7-0.1,1-0.3c0.2-0.2,0.4-0.5,0.4-0.8c0-0.5-0.1-0.8-0.4-1
		c-0.3-0.2-0.6-0.3-1-0.3H8.8V9.1z"/>
</g>
</svg>
