<?xml version="1.0" encoding="utf-8"?>
<!-- Generator: Adobe Illustrator 19.1.1, SVG Export Plug-In . SVG Version: 6.00 Build 0)  -->
<svg version="1.1" id="IOS_copy" xmlns="http://www.w3.org/2000/svg" xmlns:xlink="http://www.w3.org/1999/xlink" x="0px" y="0px"
	 viewBox="0 0 20 20" enable-background="new 0 0 20 20" xml:space="preserve">
<path fill="#2196F3" d="M20,10c0,5.5-4.5,10-10,10C4.5,20,0,15.5,0,10C0,4.5,4.5,0,10,0C15.5,0,20,4.5,20,10"/>
<g>
	<path fill="#FFFFFF" d="M11.9,5v1.8h-0.1C11,6.8,10.3,7,9.7,7.4c-0.5,0.4-0.9,1-1,1.7c0.5-0.5,1.2-0.7,1.9-0.7c0.8,0,1.5,0.3,2,0.9
		c0.5,0.6,0.8,1.4,0.8,2.4c0,0.6-0.1,1.2-0.4,1.7c-0.3,0.5-0.7,0.9-1.2,1.2C11.3,14.9,10.7,15,10,15c-0.7,0-1.3-0.2-1.9-0.5
		c-0.5-0.3-1-0.8-1.3-1.3c-0.3-0.6-0.5-1.3-0.5-2v-0.9c0-1,0.2-1.9,0.6-2.7c0.4-0.8,1-1.4,1.8-1.9C9.7,5.2,10.6,5,11.6,5H11.9z
		 M9.9,10c-0.3,0-0.5,0.1-0.8,0.2c-0.2,0.1-0.3,0.3-0.4,0.5v0.7c0,1.2,0.4,1.8,1.3,1.8c0.3,0,0.6-0.2,0.9-0.5
		c0.2-0.3,0.3-0.7,0.3-1.2c0-0.5-0.1-0.9-0.4-1.2C10.6,10.2,10.3,10,9.9,10z"/>
</g>
</svg>
