<?xml version="1.0" encoding="utf-8"?>
<!-- Generator: Adobe Illustrator 19.1.1, SVG Export Plug-In . SVG Version: 6.00 Build 0)  -->
<svg version="1.1" id="IOS_copy" xmlns="http://www.w3.org/2000/svg" xmlns:xlink="http://www.w3.org/1999/xlink" x="0px" y="0px"
	 viewBox="0 0 20 20" enable-background="new 0 0 20 20" xml:space="preserve">
<path fill="#2196F3" d="M20,10c0,5.5-4.5,10-10,10C4.5,20,0,15.5,0,10C0,4.5,4.5,0,10,0C15.5,0,20,4.5,20,10"/>
<g>
	<path fill="#FFFFFF" d="M13.3,7.7c0,0.5-0.1,0.9-0.4,1.2c-0.2,0.4-0.6,0.6-1,0.9c0.5,0.2,0.9,0.5,1.1,0.9c0.3,0.4,0.4,0.9,0.4,1.4
		c0,0.9-0.3,1.6-0.9,2.1C12,14.7,11.1,15,10,15c-1.1,0-1.9-0.3-2.6-0.8c-0.6-0.5-0.9-1.2-0.9-2.1c0-0.5,0.1-1,0.4-1.4
		c0.3-0.4,0.7-0.7,1.2-0.9C7.7,9.6,7.3,9.3,7.1,9C6.8,8.6,6.7,8.2,6.7,7.7c0-0.8,0.3-1.5,0.9-2C8.2,5.2,9,5,10,5
		c1,0,1.8,0.2,2.4,0.7C13,6.2,13.3,6.9,13.3,7.7z M11.2,12c0-0.4-0.1-0.7-0.3-0.9c-0.2-0.2-0.5-0.3-0.8-0.3c-0.3,0-0.6,0.1-0.8,0.3
		c-0.2,0.2-0.3,0.5-0.3,0.9c0,0.4,0.1,0.7,0.3,0.9c0.2,0.2,0.5,0.3,0.9,0.3c0.3,0,0.6-0.1,0.8-0.3C11.1,12.7,11.2,12.4,11.2,12z
		 M10,6.7C9.7,6.7,9.4,6.8,9.3,7C9.1,7.2,9,7.5,9,7.9c0,0.3,0.1,0.6,0.2,0.8C9.5,8.9,9.7,9,10,9c0.3,0,0.6-0.1,0.7-0.3
		C10.9,8.5,11,8.2,11,7.9c0-0.3-0.1-0.6-0.2-0.8C10.6,6.8,10.3,6.7,10,6.7z"/>
</g>
</svg>
