<svg xmlns="http://www.w3.org/2000/svg" viewBox="0 0 20 20">
    <path d="M10 1.988l3.024 4.055 4.79 1.623-2.92 4.13-.064 5.057L10 15.35 5.17 16.85l-.062-5.058-2.922-4.128 4.79-1.623L10 1.988m0-2c-.63 0-1.226.298-1.603.804L5.745 4.348l-4.2 1.423c-.6.204-1.066.677-1.26 1.277-.196.6-.096 1.258.27 1.773l2.56 3.62.056 4.435c.01.63.314 1.222.825 1.593.346.25.758.382 1.176.382.2 0 .4-.03.595-.09L10 17.443l4.235 1.318c.195.062.395.09.594.09.416 0 .83-.13 1.175-.38.51-.372.816-.963.824-1.594l.054-4.435 2.562-3.62c.365-.514.465-1.172.27-1.772-.195-.6-.662-1.074-1.26-1.276l-4.2-1.423L11.603.792C11.226.287 10.63-.012 10-.012z"/>
</svg>