<?xml version="1.0" encoding="utf-8"?>
<!-- Generator: Adobe Illustrator 19.1.1, SVG Export Plug-In . SVG Version: 6.00 Build 0)  -->
<svg version="1.1" id="IOS_copy" xmlns="http://www.w3.org/2000/svg" xmlns:xlink="http://www.w3.org/1999/xlink" x="0px" y="0px"
	 viewBox="0 0 26 19" enable-background="new 0 0 26 19" xml:space="preserve">
<g>
	<path d="M13,0C8.7,0,4.7,1.7,1.7,4.7L0.3,6.1l1.4,1.4l1.4,1.4l0,0l0,0l1.4,1.4l1.4,1.4l1.4,1.4l0,0l0,0l1.4,1.4l0.1,0.1l0,0
		l1.3,1.3l1.4,1.4l1.4,1.4l1.4-1.4l1.4-1.4l1.4-1.3l0,0l0.1-0.1l1.4-1.4l0,0l1.4-1.4l1.4-1.4l1.4-1.4l0,0l0,0l1.4-1.4l1.4-1.4
		l-1.4-1.4C21.3,1.7,17.3,0,13,0z"/>
</g>
</svg>
