<?xml version="1.0" encoding="utf-8"?>
<!-- Generator: Adobe Illustrator 19.1.1, SVG Export Plug-In . SVG Version: 6.00 Build 0)  -->
<svg version="1.1" id="IOS_copy" xmlns="http://www.w3.org/2000/svg" xmlns:xlink="http://www.w3.org/1999/xlink" x="0px" y="0px"
	 viewBox="0 0 22 22" enable-background="new 0 0 22 22" xml:space="preserve">
<g>
	<path d="M22,7.7c0-0.3,0-0.6-0.1-0.9c0-0.1,0-0.2,0-0.2c0-0.2-0.1-0.4-0.1-0.6c0-0.1,0-0.2-0.1-0.2c-0.1-0.2-0.1-0.5-0.2-0.7
		c0,0,0,0,0-0.1c-0.2-0.5-0.4-0.9-0.6-1.3l-0.1-0.1l0,0c-0.6-0.9-1.3-1.6-2.2-2.2l0,0l-0.1-0.1c-0.4-0.3-0.8-0.5-1.3-0.6
		c0,0,0,0-0.1,0c-0.2-0.1-0.5-0.2-0.7-0.2c-0.1,0-0.2,0-0.2-0.1c-0.2,0-0.4-0.1-0.6-0.1c-0.1,0-0.2,0-0.2,0C14.9,0,14.6,0,14.3,0
		c0,0,0,0,0,0c0,0,0,0,0,0s0,0,0,0c0,0,0,0,0,0c-3.8,0-6.8,2.6-7.5,6.1c0,0,0,0.1,0,0.1c0,0.2-0.1,0.4-0.1,0.6c0,0.1,0,0.2,0,0.3
		c0,0.1,0,0.2,0,0.3c-2,2-4.7,4.7-5,5c-2.3,2.3-2.3,5.8,0,8c1.1,1.1,2.5,1.7,4,1.7c1.5,0,2.9-0.6,4-1.7l5-5c0.1,0,0.2,0,0.2,0
		c0.1,0,0.2,0,0.3,0c0.2,0,0.4-0.1,0.6-0.1c0,0,0.1,0,0.1,0C19.4,14.5,22,11.4,22,7.7C22,7.7,22,7.7,22,7.7C22,7.7,22,7.7,22,7.7
		C22,7.7,22,7.7,22,7.7C22,7.7,22,7.7,22,7.7z"/>
</g>
</svg>
