<?xml version="1.0" encoding="utf-8"?>
<!-- Generator: Adobe Illustrator 19.1.1, SVG Export Plug-In . SVG Version: 6.00 Build 0)  -->
<svg version="1.1" id="IOS_copy" xmlns="http://www.w3.org/2000/svg" xmlns:xlink="http://www.w3.org/1999/xlink" x="0px" y="0px"
	 viewBox="0 0 21 21" enable-background="new 0 0 21 21" xml:space="preserve">
<g>
	<path d="M13.8,1.6l-1.6-1.6l-1.4,1.9L8.1,5.4C6.3,5.5,4.6,6.3,3.3,7.6L2.6,8.3L1.2,9.7l1.4,1.4l1.5,1.5l-3.5,3.5L0,16.8v0.8V19v2h2
		h1.4h0.8l0.6-0.6l3.5-3.5l1.5,1.5l1.4,1.4l1.4-1.4l0.7-0.7c1.3-1.3,2-3,2.2-4.8l3.6-2.7l1.9-1.4l-1.6-1.6L13.8,1.6z"/>
</g>
</svg>
