<?xml version="1.0" encoding="utf-8"?>
<!-- Generator: Adobe Illustrator 19.1.1, SVG Export Plug-In . SVG Version: 6.00 Build 0)  -->
<svg version="1.1" id="IOS_copy" xmlns="http://www.w3.org/2000/svg" xmlns:xlink="http://www.w3.org/1999/xlink" x="0px" y="0px"
	 viewBox="0 0 20 20" enable-background="new 0 0 20 20" xml:space="preserve">
<g>
	<path d="M2,7H0v2v2v2h2h0.6c0,0,0,0.1,0,0.1l-0.4,0.4l-1.4,1.4l1.4,1.4l1.4,1.4l1.4,1.4l1.4-1.4l0.4-0.4c0,0,0.1,0,0.1,0V18v2h2h2
		h2v-2v-0.6c0,0,0.1,0,0.1,0l0.4,0.4l1.4,1.4l1.4-1.4l1.4-1.4l1.4-1.4l-1.4-1.4l-0.4-0.4c0,0,0-0.1,0-0.1H18h2v-2V9V7h-2h-0.6
		c0,0,0-0.1,0-0.1l0.4-0.4l1.4-1.4l-1.4-1.4l-1.4-1.4l-1.4-1.4l-1.4,1.4l-0.4,0.4c0,0-0.1,0-0.1,0V2V0h-2H9H7v2v0.6c0,0-0.1,0-0.1,0
		L6.5,2.2L5.1,0.8L3.6,2.2L2.2,3.6L0.8,5.1l1.4,1.4l0.4,0.4c0,0,0,0.1,0,0.1H2z"/>
</g>
</svg>
