<?xml version="1.0" encoding="utf-8"?>
<!-- Generator: Adobe Illustrator 19.1.1, SVG Export Plug-In . SVG Version: 6.00 Build 0)  -->
<svg version="1.1" id="IOS_copy" xmlns="http://www.w3.org/2000/svg" xmlns:xlink="http://www.w3.org/1999/xlink" x="0px" y="0px"
	 viewBox="0 0 23 18" enable-background="new 0 0 23 18" xml:space="preserve">
<g>
	<path d="M23.1,1H18h-3h-0.8l-0.6,0.5L10,4.8C9.9,2.2,7.7,0,5,0C2.2,0,0,2.2,0,5c0,1.6,0.8,3.1,2,4c-1.2,0.9-2,2.4-2,4
		c0,2.8,2.2,5,5,5c2.7,0,4.9-2.2,5-4.9l3.6,3.3l0.6,0.5H15h3h5.1l-3.8-3.5L14.4,9l4.9-4.5L23.1,1z"/>
</g>
</svg>
