<?xml version="1.0" encoding="utf-8"?>
<!-- Generator: Adobe Illustrator 19.1.1, SVG Export Plug-In . SVG Version: 6.00 Build 0)  -->
<svg version="1.1" id="IOS_copy" xmlns="http://www.w3.org/2000/svg" xmlns:xlink="http://www.w3.org/1999/xlink" x="0px" y="0px"
	 viewBox="0 0 24 14" enable-background="new 0 0 24 14" xml:space="preserve">
<g>
	<path d="M22,6.2C22.1,6.2,22.1,6.1,22,6.2l1.5-1.5l-1.4-1.4l-1.4-1.4l-1.4-1.4l-1.4,1.4C17,2.7,14.2,5,12,5C9.8,5,6.9,2.7,6.1,1.9
		L4.7,0.5L3.3,1.9L1.9,3.3L0.5,4.7l1.4,1.4c0,0,0,0,0.1,0.1L1.2,7.1L0,8.7l1.6,1.3l1.6,1.3L4,11.9l-0.1,0.2l0.6,0.2l0.1,0.1l0,0
		l1.1,0.4l1.9,0.7l1.9,0.7L9.6,14H11h2h1.4l0.1,0.2l1.9-0.7l1.9-0.7l1.1-0.4l0,0l0.1-0.1l0.6-0.2L20,11.9l0.9-0.8l1.6-1.3L24,8.7
		l-1.2-1.6L22,6.2z"/>
</g>
</svg>
