<?xml version="1.0" encoding="utf-8"?><!-- Generator: Adobe Illustrator 19.1.1, SVG Export Plug-In . SVG Version: 6.00 Build 0)  --><svg xmlns="http://www.w3.org/2000/svg" xmlns:xlink="http://www.w3.org/1999/xlink" version="1.1" id="Layer_1" x="0px" y="0px" viewBox="0 0 48 48" enable-background="new 0 0 48 48" xml:space="preserve"  style="fill: rgb(243, 156, 18);">
<polygon fill="#FF3D00" points="2,9 2,24 2,39 46,39 46,24 46,9 "/>
<polygon fill="#2E7D32" points="2,9 2,24 2,39 20,39 20,24 20,9 "/>
<g>
	<g>
		<path fill="#FFFF00" d="M26.2,28.9c-2.4-0.1-13.4-6.9-13.5-8l0.6-1c1.1,1.6,12.4,8.2,13.5,8L26.2,28.9"/>
		<path d="M26.2,28.9C26.2,28.9,26.2,28.9,26.2,28.9c-1.3,0-4.9-2-7.6-3.6c-2.8-1.7-5.8-3.8-5.9-4.4c0,0,0,0,0,0l0.6-1c0,0,0,0,0,0    c0,0,0,0,0,0c0.6,0.8,3.8,2.9,6.7,4.7c3.5,2.1,6.2,3.4,6.7,3.3c0,0,0,0,0,0c0,0,0,0,0,0L26.2,28.9C26.3,28.9,26.2,28.9,26.2,28.9z     M12.8,20.9c0.1,0.5,2.5,2.3,5.9,4.4c2.7,1.6,6.3,3.6,7.6,3.6l0.5-1c-0.7,0-3.8-1.6-6.7-3.3c-2.9-1.7-6.1-3.8-6.7-4.7L12.8,20.9z"/>
	</g>
	<g>
		<path fill="#FFFF00" d="M13.2,19.7c-0.2,0.6,2.9,2.5,6.6,4.7c3.7,2.3,6.9,3.6,7.2,3.4c0,0,0.1-0.2,0.1-0.2c0,0.1-0.2,0.1-0.3,0    c-1-0.3-3.6-1.5-6.9-3.4c-3.2-2-6.1-3.8-6.5-4.5c0-0.1-0.1-0.2,0-0.2l0,0L13.2,19.7L13.2,19.7L13.2,19.7L13.2,19.7z M26.3,28.9    c0,0.1-0.1,0.1-0.3,0.1c-0.9-0.1-3.6-1.4-6.9-3.3c-3.8-2.2-6.9-4.3-6.5-4.8l0.1-0.2l0,0c-0.3,0.9,6.1,4.6,6.5,4.8    c3.7,2.3,6.9,3.6,7.1,3.3L26.3,28.9L26.3,28.9L26.3,28.9z"/>
		<path d="M26.1,29c0,0-0.1,0-0.1,0c-0.9-0.1-3.7-1.4-6.9-3.3c-4.3-2.5-6.4-4.1-6.6-4.7c0-0.1,0-0.1,0-0.2l0.1-0.2c0,0,0,0,0,0l0,0    c0,0,0,0,0,0c0,0,0,0,0,0C12.7,21,13.4,22,19,25.3c0.1,0.1,0.2,0.1,0.3,0.1c3.7,2.3,6.8,3.6,7.1,3.3c0,0,0,0,0,0c0,0,0,0,0,0    l-0.1,0.2c0,0,0,0,0,0C26.3,29,26.2,29,26.1,29z M12.7,20.7l-0.1,0.1c0,0,0,0.1,0,0.1c0.1,0.6,2.3,2.1,6.5,4.6    c3.2,1.9,5.9,3.2,6.8,3.3c0.1,0,0.2,0,0.2,0c0,0,0,0,0,0l0.1-0.1c0,0-0.1,0-0.1,0c-0.8,0-3.6-1.3-7-3.3c0,0-0.1-0.1-0.3-0.1    C14.8,22.9,12.7,21.4,12.7,20.7z M26.9,28c-0.6,0-3.6-1.3-7.1-3.5c-4-2.4-6.8-4.2-6.6-4.8c0,0,0,0,0,0l0,0l0.1-0.2c0,0,0,0,0,0    l0,0c0,0,0,0,0,0c0,0,0,0,0,0c0,0.1,0,0.2,0,0.2c0.5,0.8,3.7,2.8,6.5,4.5c3.1,1.8,5.8,3.1,6.9,3.4c0.1,0,0.3,0,0.3,0c0,0,0,0,0,0    c0,0,0,0,0,0c0,0,0,0-0.1,0.2L26.9,28C27,27.9,27,27.9,26.9,28C27,28,26.9,28,26.9,28z M13.2,19.7c-0.2,0.6,3.4,2.8,6.6,4.7    c3.8,2.3,6.9,3.6,7.1,3.5l0,0c0,0,0-0.1,0.1-0.1c-0.1,0-0.2,0-0.3,0c-1.1-0.3-3.8-1.6-6.9-3.5c-2.8-1.7-6-3.7-6.5-4.5    c0,0,0-0.1,0-0.2L13.2,19.7z"/>
	</g>
	<g>
		<path fill="#FFFF00" d="M20,21.5c2.4,0,5.4-0.3,7.1-1l-0.4-0.6c-1,0.6-4,0.9-6.7,1c-3.2,0-5.5-0.3-6.7-1.1L13,20.5    C15.1,21.3,17.2,21.5,20,21.5"/>
		<path d="M20,21.6C20,21.6,20,21.6,20,21.6c-2.8,0-4.9-0.2-7.1-1.1c0,0,0,0,0,0c0,0,0,0,0,0l0.3-0.6c0,0,0,0,0,0c0,0,0,0,0,0    c1.1,0.7,3.2,1.1,6.7,1.1c2.5,0,5.6-0.4,6.7-1c0,0,0,0,0,0l0.4,0.6c0,0,0,0,0,0c0,0,0,0,0,0C25.3,21.3,22.3,21.6,20,21.6    C20,21.6,20,21.6,20,21.6z M13,20.4c2.1,0.9,4.2,1.1,7,1.1c0,0,0,0,0,0c2.2,0,5.3-0.3,7.1-1L26.7,20c-1.1,0.6-4.3,0.9-6.7,1    c-3.5,0-5.6-0.4-6.7-1.1L13,20.4z"/>
	</g>
	<g>
		<path fill="#FFFF00" d="M27.2,20.6c-0.1,0.1-1.2,0.5-2.8,0.8c-1.1,0.2-2.6,0.3-4.4,0.3c-1.7,0-3.1-0.1-4.2-0.3    c-1.7-0.3-2.6-0.6-2.9-0.8c0-0.1,0.1-0.1,0.1-0.2c0.9,0.4,1.8,0.6,2.9,0.8c1.1,0.1,2.4,0.3,4.2,0.3c1.8,0,3.2-0.2,4.3-0.3    c1.7-0.3,2.6-0.6,2.7-0.8L27.2,20.6L27.2,20.6L27.2,20.6z M26.9,20c-0.2,0.1-1.1,0.5-2.7,0.7C23.1,20.8,21.8,21,20,21    c-1.6,0-3-0.1-4-0.3c-1.6-0.2-2.5-0.6-2.8-0.7c0-0.1,0.1-0.1,0.1-0.2c0.2,0.1,1.1,0.5,2.7,0.7c1,0.1,2.4,0.2,4,0.2    c1.7,0,3.1-0.1,4.1-0.3c1.6-0.2,2.5-0.6,2.6-0.7L26.9,20L26.9,20L26.9,20z"/>
		<path d="M20,21.7c-1.5,0-2.9-0.1-4.2-0.3c-1.7-0.3-2.6-0.6-2.9-0.8l0,0c0,0,0,0,0,0c0,0,0,0,0,0c0,0,0,0,0-0.1c0,0,0-0.1,0-0.1    c0,0,0,0,0,0c0.9,0.4,1.8,0.6,2.9,0.8c1.3,0.2,2.7,0.3,4.1,0.3c0,0,0,0,0,0c1.5,0,2.9-0.1,4.3-0.3c1.7-0.3,2.6-0.6,2.7-0.8    c0,0,0,0,0,0c0,0,0,0,0,0l0.1,0.2c0,0,0,0,0,0c0,0,0,0,0,0c-0.1,0.1-1.2,0.5-2.8,0.8C23,21.5,21.6,21.7,20,21.7    C20,21.7,20,21.7,20,21.7z M12.9,20.6L12.9,20.6c0.4,0.1,1.3,0.5,2.9,0.8c1.3,0.2,2.7,0.3,4.2,0.3c0,0,0,0,0,0    c1.5,0,3-0.1,4.4-0.3c1.6-0.3,2.7-0.6,2.8-0.7l-0.1-0.2c-0.2,0.2-1,0.5-2.7,0.8c-1.5,0.2-2.9,0.3-4.4,0.3c-1.5,0-2.8-0.1-4.2-0.3    c-1.1-0.2-2-0.4-2.9-0.8C13,20.5,12.9,20.5,12.9,20.6C12.9,20.5,12.9,20.6,12.9,20.6z M20,21c-1.4,0-2.8-0.1-4-0.3    c-1.4-0.2-2.3-0.5-2.7-0.7c-0.1,0-0.1,0-0.1,0c0,0,0,0,0,0s0,0,0,0c0-0.1,0.1-0.1,0.1-0.2c0,0,0,0,0,0c0.1,0.1,0.9,0.4,2.7,0.7    c0.8,0.1,2.1,0.2,4,0.2c0,0,0,0,0,0c1.9,0,3.3-0.2,4.1-0.3c1.5-0.2,2.4-0.6,2.6-0.7c0,0,0,0,0,0c0,0,0,0,0,0l0.1,0.2c0,0,0,0,0,0    c0,0,0,0,0,0c-0.2,0.1-1.1,0.5-2.7,0.7C22.8,20.9,21.5,21,20,21C20,21,20,21,20,21z M13.2,20c0,0,0.1,0,0.1,0    c0.4,0.2,1.2,0.5,2.7,0.7c1.2,0.2,2.5,0.3,4,0.3c0,0,0,0,0,0c1.4,0,2.8-0.1,4.2-0.3c1.6-0.3,2.5-0.6,2.7-0.7l-0.1-0.2    c-0.2,0.1-1,0.5-2.6,0.7c-0.9,0.1-2.3,0.3-4.1,0.3c0,0,0,0,0,0c-1.8,0-3.2-0.1-4-0.2c-1.7-0.2-2.5-0.6-2.7-0.7    C13.3,19.9,13.3,19.9,13.2,20z"/>
	</g>
	<g>
		<path fill="#FFFF00" d="M12.1,24.4c1.5,0.8,4.8,1.2,7.9,1.2c2.8,0,6.5-0.4,7.9-1.2l0-0.8C27.4,24.4,23.5,25,20,25    c-3.5,0-6.8-0.6-7.9-1.3L12.1,24.4"/>
		<path d="M20,25.7C20,25.7,20,25.7,20,25.7c-2.8,0-6.3-0.4-7.9-1.2c0,0,0,0,0,0l0-0.7c0,0,0,0,0,0c0,0,0,0,0,0    c1.1,0.7,4.4,1.2,7.8,1.3c3.5,0,7.5-0.6,7.9-1.3c0,0,0,0,0,0c0,0,0,0,0,0l0,0.8c0,0,0,0,0,0C26.5,25.2,22.8,25.7,20,25.7z     M12.1,24.4c1.6,0.9,5.1,1.2,7.9,1.2c2.8,0,6.5-0.4,7.9-1.2l0-0.7C27.2,24.4,23.4,25,20,25c-3.4,0-6.7-0.5-7.8-1.2L12.1,24.4z"/>
	</g>
	<g>
		<path fill="#FFFF00" d="M28,24.3l0,0.2c-0.2,0.2-1.5,0.6-3.1,0.9c-1.2,0.2-2.9,0.3-4.9,0.3c-1.9,0-3.4-0.1-4.6-0.3    c-1.9-0.3-3.1-0.7-3.3-0.9l0-0.2c0.7,0.5,2.7,0.8,3.3,0.9c1.2,0.2,2.7,0.3,4.6,0.3c2,0,3.6-0.1,4.8-0.3C26,25.1,27.6,24.6,28,24.3    L28,24.3L28,24.3z M28,23.6l0,0.2c-0.2,0.2-1.5,0.6-3.1,0.9c-1.2,0.2-2.9,0.3-4.9,0.3c-1.9,0-3.4-0.1-4.6-0.3    c-1.9-0.3-3.1-0.7-3.3-0.9l0-0.2c0.7,0.5,2.7,0.8,3.3,0.9c1.2,0.2,2.7,0.3,4.6,0.3c2,0,3.6-0.1,4.8-0.3C26,24.4,27.6,23.9,28,23.6    L28,23.6L28,23.6z"/>
		<path d="M20,25.7c-1.7,0-3.3-0.1-4.6-0.3c-1.8-0.3-3-0.7-3.3-0.9c0,0,0,0,0,0l0-0.2c0,0,0,0,0,0c0,0,0,0,0,0    c0.7,0.5,2.7,0.8,3.3,0.9c1.4,0.2,2.9,0.3,4.6,0.3c1.8,0,3.4-0.1,4.8-0.3c1.2-0.2,2.8-0.6,3.2-0.9c0,0,0,0,0,0c0,0,0,0,0,0l0,0.2    c0,0,0,0,0,0c-0.2,0.3-1.5,0.6-3.2,0.9C23.4,25.6,21.8,25.7,20,25.7z M12,24.5c0.2,0.1,1.4,0.6,3.3,0.9c1.4,0.2,2.9,0.3,4.6,0.3    c1.8,0,3.4-0.1,4.9-0.3c1.6-0.3,2.9-0.6,3.1-0.9l0-0.1c-0.4,0.3-2,0.7-3.1,0.9c-1.4,0.2-3.1,0.3-4.9,0.3c-1.7,0-3.2-0.1-4.6-0.3    c-0.6-0.1-2.6-0.4-3.3-0.9L12,24.5z M20,25.1c-1.7,0-3.3-0.1-4.6-0.3c-1.8-0.3-3-0.7-3.3-0.9c0,0,0,0,0,0l0-0.2c0,0,0,0,0,0    c0,0,0,0,0,0c0.7,0.5,2.7,0.8,3.3,0.9c1.4,0.2,2.9,0.3,4.6,0.3c1.8,0,3.4-0.1,4.8-0.3c1.2-0.2,2.8-0.6,3.2-0.9c0,0,0,0,0,0    c0,0,0,0,0,0c0,0,0,0,0,0l0,0.2c0,0,0,0,0,0c-0.2,0.3-1.5,0.6-3.2,0.9C23.4,25,21.8,25.1,20,25.1z M12,23.8    c0.2,0.1,1.4,0.6,3.3,0.9c1.4,0.2,2.9,0.3,4.6,0.3c1.8,0,3.4-0.1,4.9-0.3c1.6-0.3,2.9-0.6,3.1-0.9l0-0.1c-0.4,0.3-2,0.7-3.1,0.9    c-1.4,0.2-3.1,0.3-4.9,0.3c-1.7,0-3.2-0.1-4.6-0.3c-0.6-0.1-2.5-0.4-3.3-0.9L12,23.8z"/>
	</g>
	<g>
		<path fill="#FFFF00" d="M20,28.8c-3.4,0-6.3-0.9-6.9-1.1l0.4,0.7c1.1,0.5,3.9,1.1,6.5,1.1c2.6-0.1,4.8-0.3,6.4-1l0.5-0.7    C25.8,28.2,22.1,28.8,20,28.8"/>
		<path d="M19.6,29.5c-2.4,0-5.1-0.6-6.1-1.1c0,0,0,0,0,0L13,27.7c0,0,0,0,0,0c0,0,0,0,0,0c0.1,0,0.2,0,0.3,0.1c1,0.3,3.6,1,6.6,1    c2.2,0,5.9-0.6,6.9-1.1c0,0,0,0,0,0c0,0,0,0,0,0l-0.5,0.7c0,0,0,0,0,0c-1.7,0.8-4.1,1-6.5,1C19.9,29.5,19.8,29.5,19.6,29.5z     M13.5,28.4c1.1,0.5,4,1.1,6.5,1.1c2.4-0.1,4.8-0.2,6.4-1l0.4-0.7c-1.2,0.5-4.7,1.1-6.9,1.1c0,0,0,0,0,0c-3,0-5.6-0.7-6.6-1    c-0.1,0-0.2-0.1-0.3-0.1L13.5,28.4z"/>
	</g>
	<g>
		<path fill="#FFFF00" d="M26.6,28.2c-0.1,0.1-0.1,0.2-0.2,0.3c-0.8,0.3-1.9,0.5-2.4,0.6c-1,0.2-2.6,0.4-4,0.4c-3,0-5.5-0.6-6.6-1.1    l-0.1-0.2l0,0l0.2,0.1c2.1,0.7,4.4,1,6.6,1.1c1.4,0,2.8-0.2,3.9-0.4C25.7,28.7,26.4,28.4,26.6,28.2L26.6,28.2L26.6,28.2L26.6,28.2    z M27,27.6C27,27.6,27,27.6,27,27.6c0,0.1-0.1,0.2-0.2,0.3c-0.4,0.1-1.5,0.5-3.1,0.7c-1,0.1-1.7,0.3-3.8,0.3c-3.9-0.1-6.4-0.9-7-1    l-0.1-0.2c2.3,0.6,4.6,1,7.1,1c1.9,0,2.7-0.2,3.8-0.3c1.9-0.3,2.8-0.6,3.1-0.7c0,0,0,0,0,0L27,27.6L27,27.6L27,27.6z"/>
		<path d="M20,29.6c-3.1,0-5.5-0.6-6.7-1.1c0,0,0,0,0,0l-0.1-0.2c0,0,0,0,0,0l0,0c0,0,0,0,0,0l0.2,0.1c1.8,0.7,4.1,1,6.6,1.1    c1.5,0,3-0.2,3.9-0.4c1.9-0.4,2.5-0.7,2.6-0.7l0.1,0c0,0,0,0,0,0c0,0,0,0,0,0c-0.1,0.1-0.1,0.2-0.2,0.3c0,0,0,0,0,0    c-0.7,0.3-1.9,0.5-2.4,0.6C22.9,29.4,21.3,29.6,20,29.6z M13.4,28.4c1.2,0.5,3.8,1.1,6.6,1.1c1.3,0,2.9-0.1,4-0.4    c0.5-0.1,1.7-0.4,2.4-0.6c0.1-0.1,0.1-0.1,0.2-0.2c-0.2,0.1-0.8,0.3-2.6,0.7c-0.9,0.2-2.4,0.4-3.9,0.4    C17.5,29.3,15.3,29,13.4,28.4l-0.1-0.1L13.4,28.4z M20,28.9c-3.5-0.1-5.9-0.7-7-1c0,0,0,0,0,0l-0.1-0.2c0,0,0,0,0,0c0,0,0,0,0,0    c2.6,0.7,4.8,1,7.1,1c1.7,0,2.5-0.2,3.4-0.3c0.1,0,0.2,0,0.3,0c1.8-0.3,2.7-0.6,3-0.7l0,0c0,0,0,0,0,0c0,0,0,0,0,0l0.2-0.1    c0,0,0,0,0,0c0,0,0,0,0,0h0c0,0,0,0,0,0c0,0,0,0,0,0c-0.1,0.1-0.1,0.2-0.2,0.3c0,0,0,0,0,0c-0.5,0.2-1.7,0.5-3.1,0.7    c-0.2,0-0.3,0-0.4,0.1C22.5,28.7,21.8,28.8,20,28.9z M13,27.8c1.1,0.4,3.5,1,7,1c1.8,0,2.5-0.1,3.3-0.3c0.1,0,0.3,0,0.4-0.1    c1.4-0.2,2.5-0.5,3.1-0.7c0-0.1,0.1-0.1,0.1-0.2l-0.1,0c0,0,0,0,0,0c0,0,0,0,0,0l0,0c-0.3,0.1-1.2,0.4-3,0.7c-0.1,0-0.2,0-0.3,0    c-0.9,0.1-1.7,0.2-3.4,0.3c-2.3,0-4.5-0.4-7.1-1L13,27.8z"/>
	</g>
	<path fill="#FFFF00" d="M20,16.2c-4.3,0-7.9,3.5-7.9,7.8s3.5,7.8,7.9,7.8s7.9-3.5,7.9-7.8C27.9,19.7,24.3,16.2,20,16.2z M25,28.9   C23.7,30.2,22,31,20,31c-2.3,0-4.4-1.4-5-2.1c-1.1-1.3-2-2.9-2.1-5c0.1-2.4,1.1-4.1,2.5-5.3c1.4-1.2,3.2-1.7,4.8-1.7   c1.8,0,3.9,0.9,5.3,2.6c0.9,1.1,1.3,2.4,1.6,4.2C27.1,26,25.9,28,25,28.9z"/>
	<path d="M20,31.9c-4.4,0-7.9-3.5-7.9-7.9c0-4.3,3.5-7.9,7.9-7.9c4.4,0,7.9,3.5,7.9,7.9C27.9,28.3,24.4,31.9,20,31.9z M20,16.2   c-4.3,0-7.9,3.5-7.9,7.8c0,4.3,3.5,7.8,7.9,7.8c4.3,0,7.9-3.5,7.9-7.8C27.9,19.7,24.3,16.2,20,16.2z M20,31.7c-2.1,0-4-0.8-5.5-2.3   C13.1,28,12.3,26,12.3,24c0-2,0.8-4,2.3-5.4c1.5-1.5,3.4-2.3,5.5-2.3c2.1,0,4,0.8,5.5,2.3c1.5,1.5,2.3,3.4,2.3,5.4   c0,2-0.8,4-2.3,5.4C24,30.9,22.1,31.7,20,31.7z M20,16.3c-4.2,0-7.7,3.4-7.7,7.7c0,4.2,3.4,7.7,7.7,7.7c4.2,0,7.7-3.4,7.7-7.7   C27.7,19.8,24.2,16.3,20,16.3z"/>
	<path d="M20,31.2c-1.9,0-3.7-0.8-5.1-2.1c-1.4-1.4-2.1-3.2-2.1-5.1c0-1.9,0.8-3.7,2.1-5.1c1.4-1.4,3.2-2.1,5.1-2.1   c1.9,0,3.7,0.8,5.1,2.1c1.4,1.4,2.1,3.2,2.1,5.1c0,1.9-0.8,3.7-2.1,5.1C23.7,30.4,21.9,31.2,20,31.2z M20,16.8   c-4,0-7.2,3.2-7.2,7.2c0,4,3.2,7.2,7.2,7.2c4,0,7.2-3.2,7.2-7.2C27.2,20,24,16.8,20,16.8z M20,31c-1.9,0-3.6-0.7-5-2.1   c-1.3-1.3-2.1-3.1-2.1-5c0-1.9,0.7-3.6,2.1-5c1.3-1.3,3.1-2.1,5-2.1s3.6,0.7,5,2.1c1.3,1.3,2.1,3.1,2.1,5c0,1.9-0.7,3.6-2.1,5   C23.7,30.3,21.9,31,20,31z M20,17c-3.9,0-7,3.1-7,7c0,3.9,3.1,7,7,7s7-3.1,7-7C27,20.1,23.9,17,20,17z"/>
	<g>
		<path fill="#FFFF00" d="M20.3,16.1h-0.7l0,15.8h0.7L20.3,16.1z"/>
		<path d="M20.3,31.9h-0.7c0,0,0,0,0,0l0-15.8c0,0,0,0,0,0s0,0,0,0h0.7c0,0,0,0,0,0L20.3,31.9C20.4,31.9,20.3,31.9,20.3,31.9    C20.3,31.9,20.3,31.9,20.3,31.9z M19.7,31.9h0.6l0-15.7h-0.6L19.7,31.9z"/>
	</g>
	<g>
		<path fill="#FFFF00" d="M20.3,16h0.2l0,16h-0.2L20.3,16L20.3,16z M19.6,16h0.2l0,16h-0.2L19.6,16L19.6,16z"/>
		<path d="M19.8,32h-0.2c0,0,0,0,0,0V16c0,0,0,0,0,0c0,0,0,0,0,0h0.2c0,0,0,0,0,0L19.8,32C19.8,32,19.8,32,19.8,32    C19.8,32,19.8,32,19.8,32z M19.6,32h0.1l0-15.9h-0.1V32z M20.4,32h-0.2c0,0,0,0,0,0l0-16c0,0,0,0,0,0c0,0,0,0,0,0h0.2c0,0,0,0,0,0    L20.4,32C20.5,32,20.5,32,20.4,32C20.4,32,20.4,32,20.4,32z M20.3,32h0.1l0-15.9h-0.1L20.3,32z"/>
	</g>
	<g>
		<path fill="#FFFF00" d="M27.9,24.3v-0.6l-0.5-0.4l-2.7-0.7l-3.9-0.4l-4.7,0.2l-3.3,0.8l-0.7,0.5v0.6l1.7-0.8l4.1-0.6h3.9l2.9,0.3    l2,0.5L27.9,24.3z"/>
		<path d="M27.9,24.3C27.9,24.3,27.9,24.3,27.9,24.3l-1.3-0.6l-2-0.5l-2.9-0.3l-3.9,0l-4.1,0.6l-1.7,0.8c0,0,0,0,0,0c0,0,0,0,0,0    v-0.6c0,0,0,0,0,0l0.7-0.5c0,0,0,0,0,0l3.3-0.8l4.7-0.2l3.9,0.4l2.7,0.7c0,0,0,0,0,0l0.5,0.4c0,0,0,0,0,0L27.9,24.3    C27.9,24.3,27.9,24.3,27.9,24.3C27.9,24.3,27.9,24.3,27.9,24.3z M21.8,22.9l2.9,0.3l2,0.5l1.2,0.6v-0.5l-0.5-0.4l-2.7-0.7    l-3.9-0.4l-4.7,0.2l-3.3,0.8l-0.7,0.5v0.5l1.7-0.7c0,0,0,0,0,0l4.1-0.6L21.8,22.9z"/>
	</g>
	<g>
		<path fill="#FFFF00" d="M20,22.8c1.9,0,3.7,0.2,5.1,0.5c1.5,0.3,2.5,0.7,2.9,1.1l0,0.2c-0.4-0.5-1.8-0.9-2.9-1.1    C23.6,23.1,21.9,23,20,23c-2,0-3.8,0.2-5.2,0.5c-1.1,0.2-2.6,0.7-2.8,1.1v-0.2c0.1-0.3,1.2-0.8,2.8-1.1C16.2,23,18,22.8,20,22.8    L20,22.8z M20,22.1c1.9,0,3.7,0.2,5.1,0.5c1.5,0.3,2.5,0.7,2.9,1.1l0,0.2c-0.4-0.5-1.8-0.9-2.9-1.1c-1.4-0.3-3.2-0.5-5.1-0.4    c-2,0-3.8,0.2-5.2,0.5c-1.1,0.2-2.6,0.7-2.8,1.1v-0.2c0.1-0.3,1.2-0.8,2.8-1.1C16.2,22.3,18,22.1,20,22.1L20,22.1z"/>
		<path d="M12,24.5C12,24.5,12,24.5,12,24.5C12,24.5,12,24.5,12,24.5l0-0.2c0,0,0,0,0,0c0.1-0.3,1.3-0.8,2.8-1.1    c1.5-0.3,3.4-0.5,5.2-0.5l0,0l0,0c0,0,0,0,0.1,0c1.7,0,3.5,0.2,5.1,0.5c1.5,0.3,2.5,0.7,2.9,1.1c0,0,0,0,0,0l0,0.2c0,0,0,0,0,0    c0,0,0,0,0,0c-0.5-0.5-2-0.9-2.9-1.1c-1.5-0.3-3.3-0.4-5-0.4c0,0,0,0-0.1,0c-1.8,0-3.7,0.2-5.2,0.5C13.6,23.7,12.2,24.1,12,24.5    C12,24.5,12,24.5,12,24.5z M20.1,22.9c1.7,0,3.5,0.2,5,0.5c0.9,0.2,2.4,0.5,2.9,1.1l0-0.1c-0.3-0.4-1.3-0.8-2.9-1.1    c-1.5-0.3-3.3-0.5-5.1-0.5c-1.8,0-3.7,0.2-5.2,0.5c-1.7,0.3-2.7,0.8-2.8,1v0.1c0.3-0.4,1.9-0.9,2.8-1    C16.3,23.1,18.2,22.9,20.1,22.9C20,22.9,20,22.9,20.1,22.9z M12,23.9C12,23.9,12,23.9,12,23.9C12,23.9,12,23.9,12,23.9l0-0.2    c0,0,0,0,0,0c0.1-0.3,1.3-0.8,2.8-1.1c1.5-0.3,3.4-0.5,5.2-0.5v0c1.8,0,3.6,0.2,5.1,0.5c1.5,0.3,2.5,0.7,2.9,1.1c0,0,0,0,0,0    l0,0.2c0,0,0,0,0,0c0,0,0,0,0,0c-0.5-0.5-2-0.9-2.9-1.1c-1.5-0.3-3.3-0.5-5.1-0.4c-1.8,0-3.7,0.2-5.2,0.5    C13.6,23,12.2,23.5,12,23.9C12,23.9,12,23.9,12,23.9z M20.1,22.3c1.7,0,3.5,0.2,5,0.5c0.9,0.2,2.4,0.5,2.9,1.1l0-0.1    c-0.3-0.4-1.3-0.8-2.9-1.1c-1.5-0.3-3.3-0.5-5.1-0.5l0,0c-1.8,0-3.7,0.2-5.2,0.5c-1.6,0.3-2.7,0.8-2.8,1v0.1    c0.3-0.4,1.8-0.9,2.8-1C16.3,22.4,18.2,22.3,20.1,22.3C20,22.3,20,22.3,20.1,22.3z"/>
	</g>
	<g>
		<path fill="#FFFF00" d="M20,18.7c2.9,0,5.5,0.4,6.7,1l0.4,0.7c-1-0.5-3.8-1.1-7.1-1c-2.7,0-5.6,0.3-7,1.1l0.5-0.8    C14.6,19,17.4,18.7,20,18.7"/>
		<path d="M13,20.5C12.9,20.5,12.9,20.5,13,20.5C12.9,20.5,12.9,20.4,13,20.5l0.5-0.9c0,0,0,0,0,0c1.2-0.6,4.2-0.9,6.5-0.9    c0,0,0,0,0,0c2.8,0,5.4,0.4,6.7,1c0,0,0,0,0,0l0.4,0.7c0,0,0,0,0,0c0,0,0,0,0,0c-1.1-0.6-3.8-1.1-7.1-1    C18.1,19.4,14.6,19.6,13,20.5C13,20.5,13,20.5,13,20.5z M13.5,19.6L13,20.4c1.7-0.9,5.1-1,7-1c3.2-0.1,5.9,0.4,7,1l-0.4-0.7    c-1.2-0.6-3.8-1-6.6-1c0,0,0,0,0,0C17.6,18.7,14.7,19,13.5,19.6z"/>
	</g>
	<g>
		<path fill="#FFFF00" d="M20,19.3c1.7,0,3.3,0.1,4.6,0.3c1.2,0.2,2.3,0.6,2.5,0.7l0.1,0.2c-0.4-0.3-1.4-0.5-2.7-0.8    c-1.3-0.2-2.9-0.3-4.6-0.3c-1.9,0-3.4,0.1-4.6,0.3c-1.3,0.2-2.3,0.6-2.5,0.8l0.1-0.2c0.4-0.2,1.1-0.5,2.3-0.7    C16.7,19.4,18.1,19.3,20,19.3L20,19.3L20,19.3z M20,18.6c1.6,0,3.2,0.1,4.4,0.3c1,0.2,1.9,0.5,2.3,0.7l0.2,0.3    c-0.3-0.3-1.5-0.7-2.5-0.9c-1.2-0.2-2.7-0.3-4.3-0.3c-1.7,0-3.2,0.1-4.4,0.3c-1.1,0.2-1.9,0.5-2.2,0.7l0.2-0.2    c0.4-0.2,1.1-0.4,2-0.6C16.8,18.7,18.3,18.6,20,18.6L20,18.6z"/>
		<path d="M27.2,20.6C27.2,20.6,27.2,20.6,27.2,20.6c-0.4-0.3-1.4-0.5-2.7-0.8c-1.1-0.2-2.7-0.3-4.5-0.3c-1.9,0-3.4,0.1-4.6,0.3    c-1.3,0.2-2.2,0.6-2.5,0.8c0,0,0,0,0,0c0,0,0,0,0,0l0.1-0.2c0,0,0,0,0,0c0.6-0.3,1.4-0.5,2.3-0.7c1.2-0.2,2.5-0.3,4.7-0.3l0,0    c0,0,0,0,0,0c1.8,0,3.4,0.1,4.6,0.3c1.2,0.2,2.3,0.6,2.5,0.7L27.2,20.6C27.2,20.6,27.2,20.6,27.2,20.6    C27.2,20.6,27.2,20.6,27.2,20.6z M20.1,19.4c1.8,0,3.3,0.1,4.4,0.3c1.2,0.2,2.2,0.5,2.6,0.7l-0.1-0.1c-0.2-0.2-1.3-0.5-2.5-0.7    c-1.2-0.2-2.8-0.3-4.6-0.3h0c-2.1,0-3.5,0.1-4.6,0.3c-1,0.2-1.7,0.4-2.3,0.7L13,20.5c0.3-0.2,1.2-0.5,2.4-0.7    c1.3-0.2,2.7-0.3,4.6-0.3C20,19.4,20.1,19.4,20.1,19.4z M26.9,20C26.9,20,26.9,20,26.9,20c-0.3-0.4-1.6-0.7-2.5-0.9    c-1.1-0.2-2.5-0.3-4.3-0.3c-1.8,0-3.3,0.1-4.4,0.3c-1,0.2-1.8,0.4-2.2,0.7c0,0,0,0,0,0c0,0,0,0,0,0l0.2-0.2c0,0,0,0,0,0    c0.4-0.2,1.1-0.4,2-0.6c1.1-0.2,2.7-0.3,4.5-0.3l0,0h0c1.7,0,3.3,0.1,4.4,0.3c1,0.2,2,0.5,2.3,0.7c0,0,0,0,0,0L26.9,20    C26.9,19.9,26.9,20,26.9,20C26.9,20,26.9,20,26.9,20z M20,18.8c1.8,0,3.2,0.1,4.3,0.3c0.9,0.2,2,0.4,2.4,0.8l-0.1-0.2    c-0.3-0.2-1.2-0.5-2.3-0.7c-1.1-0.2-2.7-0.3-4.4-0.3l0,0c-1.8,0-3.3,0.1-4.5,0.3c-0.9,0.2-1.6,0.4-2,0.6l-0.1,0.2    c0.4-0.2,1.2-0.4,2.1-0.6C16.7,18.9,18.2,18.8,20,18.8z"/>
	</g>
	<g>
		<path fill="#FFFF00" d="M23.9,27.3C22.5,27,21,26.9,20,27c-4.9,0.1-6.5,1-6.7,1.3L13,27.7c1.2-0.9,3.9-1.4,7.1-1.4    c1.6,0,3,0.1,4.2,0.4L23.9,27.3"/>
		<path d="M13.3,28.3C13.3,28.3,13.3,28.3,13.3,28.3C13.3,28.3,13.3,28.3,13.3,28.3L13,27.7c0,0,0,0,0,0c1.2-0.9,3.9-1.4,7.1-1.4    c1.7,0,3.1,0.1,4.2,0.4c0,0,0,0,0,0c0,0,0,0,0,0l-0.3,0.6c0,0,0,0,0,0C22.8,27.1,21.4,27,20,27C15.2,27,13.6,27.9,13.3,28.3    C13.4,28.3,13.4,28.3,13.3,28.3z M13,27.7l0.3,0.5c0.3-0.3,2-1.2,6.7-1.3c1.4,0,2.8,0.1,3.9,0.3l0.3-0.6c-1.1-0.2-2.5-0.3-4.2-0.4    C16.9,26.3,14.3,26.8,13,27.7z"/>
	</g>
	<g>
		<path fill="#FFFF00" d="M20,26.9c1.4,0,2.7,0.1,4,0.3l-0.1,0.2c-1.2-0.2-2.5-0.3-3.9-0.3c-1.8,0-3.6,0.2-5.2,0.6    c-0.5,0.1-1.3,0.5-1.4,0.7l-0.1-0.2c0-0.2,0.5-0.5,1.5-0.7C16.5,27,18.2,26.9,20,26.9L20,26.9L20,26.9z M20,26.2    c1.4,0,2.9,0.1,4.3,0.4l-0.1,0.2c-1.3-0.3-2.5-0.3-4.2-0.4c-1.8,0-3.7,0.1-5.5,0.6C14,27.2,13,27.5,13,27.8l-0.1-0.2    c0-0.3,0.9-0.6,1.6-0.8C16.3,26.3,18.2,26.2,20,26.2L20,26.2z"/>
		<path d="M13.3,28.4C13.3,28.4,13.3,28.4,13.3,28.4l-0.1-0.2c0,0,0,0,0,0c0-0.2,0.6-0.5,1.5-0.8c1.7-0.5,3.4-0.6,5.3-0.6    c0,0,0,0,0,0c1.3,0,2.7,0.1,4,0.3c0,0,0,0,0,0c0,0,0,0,0,0l-0.1,0.2c0,0,0,0,0,0c-1.1-0.2-2.4-0.3-3.9-0.3c-2,0-3.7,0.2-5.2,0.6    C14.2,27.8,13.4,28.2,13.3,28.4C13.4,28.4,13.4,28.4,13.3,28.4C13.3,28.4,13.3,28.4,13.3,28.4z M13.3,28.2l0.1,0.1    c0.1-0.3,0.9-0.6,1.4-0.7C16.2,27.2,18,27,20,27c1.5,0,2.7,0.1,3.9,0.3l0.1-0.1c-1.3-0.2-2.7-0.3-3.9-0.3c0,0,0,0,0,0    c-1.9,0-3.5,0.1-5.2,0.6C13.8,27.8,13.3,28.1,13.3,28.2z M13,27.8C13,27.8,13,27.8,13,27.8l-0.1-0.2c0,0,0,0,0,0    c0-0.3,1.3-0.7,1.6-0.8c1.5-0.4,3.3-0.6,5.5-0.6c0,0,0,0,0,0c1.4,0,2.9,0.1,4.3,0.4c0,0,0,0,0,0c0,0,0,0,0,0l-0.1,0.2c0,0,0,0,0,0    c-1.4-0.3-2.6-0.3-4.2-0.4c-2.2,0-4,0.2-5.5,0.6C13.8,27.2,13.1,27.6,13,27.8C13,27.8,13,27.8,13,27.8C13,27.8,13,27.8,13,27.8z     M12.9,27.6l0.1,0.1c0.2-0.3,1.4-0.7,1.6-0.8c1.5-0.4,3.2-0.6,5.5-0.6c1.5,0,2.8,0.1,4.2,0.4l0.1-0.1c-1.4-0.3-2.9-0.3-4.2-0.4    c-2.3,0-4,0.2-5.5,0.6C13.6,27.1,13,27.4,12.9,27.6z"/>
	</g>
	<path fill="#FFFF00" d="M27,27.7l-0.6,0.9l-1.7-1.5l-4.4-2.9l-4.9-2.7l-2.6-0.9l0.5-1l0.2-0.1l1.6,0.4l5.3,2.7l3,1.9l2.5,1.8l1,1.2   L27,27.7z"/>
	<path d="M26.4,28.7C26.4,28.7,26.4,28.7,26.4,28.7l-1.7-1.5l-4.4-2.9l-4.9-2.7l-2.6-0.9c0,0,0,0,0,0c0,0,0,0,0,0l0.5-1c0,0,0,0,0,0   l0.2-0.1c0,0,0,0,0,0l1.6,0.4l5.3,2.7l3,1.9l2.5,1.8l1,1.2c0,0,0,0,0,0l0,0.2c0,0,0,0,0,0L26.4,28.7C26.4,28.7,26.4,28.7,26.4,28.7   C26.4,28.7,26.4,28.7,26.4,28.7z M12.9,20.6l2.5,0.9l4.9,2.7l4.4,2.9l1.7,1.5l0.6-0.9l0-0.2l-1-1.2l-2.5-1.8l-3-1.9L15.1,20   l-1.6-0.4l-0.2,0.1L12.9,20.6z"/>
	<path fill="#FFFF00" d="M12.7,20.7c0.4-0.3,3.8,1.2,7.2,3.2c3.4,2.1,6.7,4.4,6.4,4.9l-0.1,0.2l0,0c0,0,0.1-0.1,0-0.2   c-0.1-0.5-2.5-2.3-6.4-4.7c-3.8-2.2-6.9-3.6-7.2-3.2L12.7,20.7L12.7,20.7L12.7,20.7z M27.1,27.7c0.3-0.6-2.8-2.9-6.6-5.1   c-3.9-2.2-6.7-3.5-7.2-3.1l-0.1,0.2c0,0,0,0,0,0c0.1-0.1,0.2-0.1,0.3-0.1c0.9,0,3.4,1.2,6.9,3.2c1.5,0.9,6.5,4.1,6.5,5   c0,0.1,0,0.1,0,0.1L27.1,27.7L27.1,27.7L27.1,27.7z"/>
	<path d="M26.2,29C26.2,29,26.2,29,26.2,29C26.2,29,26.2,29,26.2,29L26.2,29c0,0,0-0.1,0-0.2c-0.2-0.5-2.6-2.4-6.3-4.7   c-4-2.4-6.9-3.6-7.2-3.2c0,0,0,0,0,0c0,0,0,0,0,0l0.1-0.2c0,0,0,0,0,0c0.5-0.3,3.8,1.2,7.2,3.2c3.1,1.9,6.3,4.1,6.5,4.8   c0,0.1,0,0.1,0,0.1L26.2,29C26.3,29,26.3,29,26.2,29L26.2,29L26.2,29C26.3,29,26.3,29,26.2,29C26.3,29,26.2,29,26.2,29z M12.9,20.8   c0.9,0,3.8,1.3,7,3.3c3.8,2.3,6.2,4.2,6.4,4.7c0,0.1,0,0.1,0,0.2l0.1-0.1c0,0,0-0.1,0-0.1c-0.1-0.6-3.4-2.9-6.4-4.8   C16.6,21.9,13.2,20.4,12.9,20.8l-0.2,0C12.7,20.8,12.8,20.8,12.9,20.8z M27,27.9C27,27.9,27,27.9,27,27.9   C26.9,27.9,26.9,27.9,27,27.9L27,27.9c0-0.1,0-0.1,0-0.1l0,0c0-0.9-5.1-4.1-6.5-5c-3.5-2-6-3.2-6.9-3.2l0,0c-0.1,0-0.2,0-0.3,0.1   c0,0,0,0,0,0c0,0,0,0,0,0c0,0,0,0,0,0c0,0,0,0,0,0l0.1-0.2c0,0,0,0,0,0c0.6-0.5,4.3,1.4,7.2,3.1c3.4,2,6.9,4.5,6.6,5.1c0,0,0,0,0,0   L27,27.9C27,27.9,27,27.9,27,27.9C27,27.9,27,27.9,27,27.9z M13.6,19.6c0.9,0,3.4,1.2,6.9,3.2c1,0.6,6.5,4,6.5,5l0,0l0.1-0.1   c0.3-0.5-2.6-2.7-6.6-5.1c-4.1-2.3-6.7-3.4-7.2-3.1l-0.1,0.1C13.4,19.6,13.5,19.6,13.6,19.6L13.6,19.6z"/>
	<path fill="#FFFFFF" d="M15.3,24.9c0,1.3,0.5,2.5,1.4,3.3c0.9,0.9,2,1.4,3.3,1.4c1.3,0,2.5-0.5,3.3-1.4c0.9-0.9,1.4-2,1.4-3.3h0   v-6.3l-9.5,0L15.3,24.9L15.3,24.9L15.3,24.9z"/>
	<path fill="#FF0000" d="M15.5,24.9L15.5,24.9c0,1.2,0.5,2.4,1.3,3.2c0.8,0.8,2,1.3,3.2,1.3c1.2,0,2.4-0.5,3.2-1.3   c0.8-0.8,1.3-1.9,1.3-3.2h0v-6.1l-9.1,0L15.5,24.9 M22.7,20.6l0,3.9l0,0.4h0c0,0.1,0,0.2,0,0.3c-0.1,0.6-0.4,1.1-0.8,1.6   c-0.5,0.5-1.2,0.8-1.9,0.8c-0.7,0-1.4-0.3-1.9-0.8c-0.5-0.5-0.8-1.2-0.8-1.9l0-4.3L22.7,20.6L22.7,20.6L22.7,20.6z"/>
	<g>
		<path fill="#FFFF00" d="M17.7,26.7C17.7,26.6,17.7,26.6,17.7,26.7l-1,0.9c0,0,0,0.1,0,0.1c0,0,0.1,0,0.1,0L17.7,26.7    C17.7,26.7,17.7,26.7,17.7,26.7z"/>
		<path fill="#FFFF00" d="M16.6,26.7L16.6,26.7L16.6,26.7L16.6,26.7l0,0.2c0,0,0,0,0.1,0l0.2-0.2c0,0,0,0,0-0.1l-0.1-0.1l-0.1,0.1    l0.1,0l-0.1,0.1l-0.1,0L16.6,26.7L16.6,26.7L16.6,26.7L16.6,26.7z"/>
		<polygon fill="#FFFF00" points="17.3,27 16.9,26.6 16.7,26.9 17.1,27.2   "/>
		<path fill="#FFFF00" d="M17.1,24.1C17.1,24,17.1,24,17.1,24.1L16.7,24c0,0,0,0,0-0.1c0,0,0,0,0,0.1L17.1,24.1L17,23.5h0    c0,0,0,0,0-0.1c0,0,0-0.1,0-0.1h-1.2c0,0,0,0,0,0.1c0,0,0,0.1,0,0.1h0L15.7,24l0.3,0c0,0,0,0,0,0h-0.4c0,0-0.1,0-0.1,0.1    c0,0,0,0.1,0.1,0.1L17.1,24.1C17.1,24.1,17.1,24.1,17.1,24.1z M16.2,23.7c-0.1,0.1-0.1,0.2-0.1,0.3C16.1,23.8,16.1,23.8,16.2,23.7    z"/>
		<path fill="#FFFF00" d="M15.7,23.4C15.7,23.4,15.7,23.4,15.7,23.4l1.3,0.1c0,0,0,0,0-0.1c0,0,0-0.1,0-0.1L15.7,23.4    C15.7,23.3,15.7,23.3,15.7,23.4z"/>
		<path fill="#FFFF00" d="M16.2,22.6L16.2,22.6L16.2,22.6l0,0.2c0,0,0,0,0,0h0.4c0,0,0,0,0,0l0-0.2h-0.1v0.1h-0.1v-0.1l-0.1,0v0.1    L16.2,22.6L16.2,22.6L16.2,22.6z"/>
		<polygon fill="#FFFF00" points="16.2,23.3 16.5,23.3 16.5,22.8 16.2,22.8   "/>
		<polygon fill="#FFFF00" points="15.8,23.3 16.1,23.3 16.1,23 15.8,23   "/>
		<polygon fill="#FFFF00" points="16.6,23.3 17,23.3 16.9,23 16.6,23   "/>
		<path fill="#FFFF00" d="M15.7,22.8L15.7,22.8L15.7,22.8l0,0.2c0,0,0,0,0,0h0.3c0,0,0,0,0,0l0-0.2l-0.1,0v0.1H16v-0.1l-0.1,0v0.1    L15.7,22.8L15.7,22.8L15.7,22.8z"/>
		<path fill="#FFFF00" d="M16.6,22.8L16.6,22.8L16.6,22.8l0,0.2c0,0,0,0,0,0H17c0,0,0,0,0,0l0-0.2l-0.1,0v0.1h-0.1v-0.1l-0.1,0v0.1    L16.6,22.8L16.6,22.8L16.6,22.8z"/>
		<polygon fill="#FFFF00" points="16.8,27.1 16.8,27.1 16.8,27.1   "/>
		<polygon fill="#FFFF00" points="16.8,27.5 17,27.3 16.8,27.1 16.6,27.3   "/>
		<polygon fill="#FFFF00" points="16.8,27.1 16.8,27.1 16.8,27.1   "/>
		<polygon fill="#FFFF00" points="17.6,26.7 17.4,26.5 17.2,26.7 17.4,26.9   "/>
		<polygon fill="#FFFF00" points="17.4,26.5 17.4,26.5 17.4,26.5   "/>
		<path fill="#FFFF00" d="M16.8,27l-0.1-0.1L16.6,27l0.1,0l0,0l-0.1,0l-0.1,0.1l0.1,0l0,0l0,0l-0.1,0.1v0v0l0.1,0.1c0,0,0,0,0.1,0    L16.8,27C16.8,27.1,16.8,27.1,16.8,27z"/>
		<path fill="#FFFF00" d="M17.1,26.6L17.1,26.6l-0.1,0v0v0l0.1,0.1c0,0,0,0,0.1,0l0.2-0.2c0,0,0,0,0-0.1l-0.1-0.1l-0.1,0.1l0.1,0    l0,0l-0.1,0L17.1,26.6L17.1,26.6L17.1,26.6z"/>
		<path fill="#FFFF00" d="M18.2,27.1l-0.2,0.2c0,0,0,0-0.1,0c0,0,0,0,0.1,0L18.2,27.1l-0.4-0.3l0,0c0,0,0-0.1,0-0.1c0,0-0.1,0-0.1,0    l-0.9,0.9c0,0,0,0.1,0,0.1c0,0,0.1,0,0.1,0l0,0l0.3,0.4l0.2-0.2c0,0,0,0,0,0l-0.2,0.2c0,0,0,0.1,0,0.1c0,0,0.1,0,0.1,0L18.2,27.1    C18.3,27.2,18.3,27.2,18.2,27.1C18.2,27.1,18.2,27.1,18.2,27.1z M17.3,27.5c0,0.1,0.1,0.2,0.1,0.3C17.4,27.7,17.3,27.6,17.3,27.5z    "/>
		<path fill="#FFFF00" d="M16.6,19.2L16.6,19.2L16.6,19.2l0,0.2c0,0,0,0,0,0H17c0,0,0,0,0,0l0-0.2l-0.1,0v0.1h-0.1v-0.1l-0.1,0v0.1    L16.6,19.2L16.6,19.2L16.6,19.2z"/>
		<path fill="#FFFF00" d="M15.8,19.4h0.3c0,0,0,0,0,0l0-0.2l-0.1,0v0.1H16v-0.1l-0.1,0v0.1h-0.1v-0.1l-0.1,0v0h0L15.8,19.4    C15.7,19.3,15.8,19.4,15.8,19.4z"/>
		<polygon fill="#FFFF00" points="16.9,19.4 16.6,19.4 16.6,19.6 17,19.6 16.9,19.4   "/>
		<polygon fill="#FFFF00" points="16.1,19.4 15.8,19.4 15.8,19.6 16.1,19.6 16.1,19.4   "/>
		<polygon fill="#FFFF00" points="16.2,19.6 16.5,19.6 16.5,19.1 16.2,19.1   "/>
		<path fill="#FFFF00" d="M16.2,19.1h0.4c0,0,0,0,0,0l0-0.2h-0.1V19h-0.1v-0.1l-0.1,0V19h-0.1v-0.1l-0.1,0l0,0h0L16.2,19.1    C16.2,19.1,16.2,19.1,16.2,19.1z"/>
		<path fill="#FFFF00" d="M17,19.7C17,19.7,17.1,19.7,17,19.7c0-0.1,0-0.1,0-0.1h-1.3c0,0,0,0,0,0.1c0,0,0,0.1,0,0.1H17z"/>
		<path fill="#FFFF00" d="M17,20.5C17.1,20.5,17.1,20.4,17,20.5c0.1-0.1,0-0.1,0-0.1h-0.3c0,0,0,0,0-0.1c0,0,0,0,0,0.1H17L17,19.9h0    c0,0,0,0,0-0.1c0,0,0-0.1,0-0.1h-1.2c0,0,0,0,0,0.1c0,0,0,0.1,0,0.1h0l-0.1,0.5l0.3,0c0,0,0,0,0,0h-0.4c0,0-0.1,0-0.1,0.1    c0,0,0,0.1,0.1,0.1H17z M16.2,20c-0.1,0.1-0.1,0.2-0.1,0.3C16.1,20.2,16.1,20.1,16.2,20z"/>
		<polygon fill="#FFFF00" points="20.6,19.4 20.3,19.4 20.3,19.6 20.6,19.6 20.6,19.4   "/>
		<path fill="#FFFF00" d="M19.4,19.4h0.3c0,0,0,0,0,0l0-0.2l-0.1,0v0.1h-0.1v-0.1l-0.1,0v0.1h-0.1v-0.1l-0.1,0v0h0L19.4,19.4    C19.4,19.3,19.4,19.4,19.4,19.4z"/>
		<path fill="#FFFF00" d="M20.2,19.2L20.2,19.2L20.2,19.2l0,0.2c0,0,0,0,0,0h0.3c0,0,0,0,0,0l0-0.2l-0.1,0v0.1h-0.1v-0.1l-0.1,0v0.1    L20.2,19.2L20.2,19.2L20.2,19.2z"/>
		<polygon fill="#FFFF00" points="19.7,19.4 19.4,19.4 19.4,19.6 19.8,19.6 19.7,19.4   "/>
		<polygon fill="#FFFF00" points="19.8,19.6 20.2,19.6 20.2,19.1 19.9,19.1   "/>
		<path fill="#FFFF00" d="M19.8,19.1h0.4c0,0,0,0,0,0l0-0.2h-0.1V19h-0.1v-0.1l-0.1,0V19h-0.1v-0.1l-0.1,0l0,0h0L19.8,19.1    C19.8,19.1,19.8,19.1,19.8,19.1z"/>
		<path fill="#FFFF00" d="M20.7,19.7C20.7,19.7,20.7,19.7,20.7,19.7c0-0.1,0-0.1,0-0.1h-1.3c0,0,0,0,0,0.1c0,0,0,0.1,0,0.1H20.7z"/>
		<path fill="#FFFF00" d="M20.3,20.3C20.3,20.3,20.3,20.3,20.3,20.3C20.3,20.3,20.3,20.3,20.3,20.3l0.3,0l-0.1-0.5h0c0,0,0,0,0-0.1    c0,0,0-0.1,0-0.1h-1.2c0,0,0,0,0,0.1c0,0,0,0.1,0,0.1h0l-0.1,0.5l0.3,0c0,0,0,0,0,0h-0.4c0,0-0.1,0-0.1,0.1c0,0,0,0.1,0.1,0.1h1.3    c0,0,0.1,0,0.1-0.1c0,0,0-0.1-0.1-0.1H20.3z M19.8,20c-0.1,0.1-0.1,0.2-0.1,0.3C19.7,20.2,19.7,20.1,19.8,20z"/>
		<path fill="#FFFF00" d="M22.8,26.7C22.9,26.8,22.9,26.8,22.8,26.7l0.2-0.1l0,0v0l-0.1-0.1l0,0l0,0l0.1,0l-0.1-0.1l-0.1,0l0,0    l0.1,0l-0.1-0.1l-0.1,0.1c0,0,0,0,0,0.1L22.8,26.7z"/>
		<path fill="#FFFF00" d="M23.5,27.2L23.5,27.2L23.5,27.2L23.4,27l-0.1,0l0,0l0.1,0l-0.1-0.1L23.2,27c0,0,0,0,0,0.1l0.2,0.2    c0,0,0,0,0.1,0l0.1-0.1v0v0L23.5,27.2L23.5,27.2z"/>
		<polygon fill="#FFFF00" points="22.8,26.7 22.6,26.5 22.4,26.7 22.6,26.9   "/>
		<polygon fill="#FFFF00" points="22.6,26.5 22.6,26.5 22.6,26.5   "/>
		<polygon fill="#FFFF00" points="23,27.3 23.2,27.5 23.4,27.3 23.2,27.1   "/>
		<polygon fill="#FFFF00" points="23.2,27.1 23.2,27.1 23.2,27.1   "/>
		<path fill="#FFFF00" d="M22.2,26.8C22.2,26.8,22.2,26.8,22.2,26.8L22.2,26.8l-0.4,0.4l0.2,0.2c0,0,0,0,0.1,0c0,0,0,0-0.1,0    l-0.2-0.2c0,0-0.1,0-0.1,0c0,0,0,0.1,0,0.1l1,1c0,0,0.1,0,0.1,0c0,0,0-0.1,0-0.1l-0.2-0.2c0,0,0,0,0,0l0.2,0.2l0.3-0.4l0,0    c0,0,0.1,0,0.1,0c0,0,0-0.1,0-0.1L22.2,26.8C22.3,26.7,22.2,26.7,22.2,26.8z M22.7,27.5c0,0.1,0,0.2-0.1,0.3    C22.6,27.7,22.7,27.6,22.7,27.5z"/>
		<path fill="#FFFF00" d="M23.2,26.4l-0.1,0.1c0,0,0,0,0,0.1l0.2,0.2c0,0,0,0,0.1,0l0.1-0.1v0v0l-0.1-0.1l0,0l-0.1-0.1l0.1,0    l-0.1-0.1l-0.1,0l-0.1-0.1L23.2,26.4L23.2,26.4z"/>
		<polygon fill="#FFFF00" points="22.9,27.2 23.3,26.9 23.1,26.6 22.7,27   "/>
		<path fill="#FFFF00" d="M22.3,26.7C22.3,26.7,22.3,26.7,22.3,26.7l0.9,1c0,0,0.1,0,0.1,0c0,0,0-0.1,0-0.1L22.3,26.7    C22.3,26.6,22.3,26.6,22.3,26.7z"/>
		<path fill="#FFFF00" d="M23,22.8l0,0.2c0,0,0,0,0,0h0.3c0,0,0,0,0,0l0-0.2h0v0l-0.1,0v0.1h-0.1v-0.1l-0.1,0v0.1L23,22.8L23,22.8    L23,22.8z"/>
		<path fill="#FFFF00" d="M23.8,22.8l0,0.2c0,0,0,0,0,0h0.3c0,0,0,0,0,0l0-0.2h0l0,0l-0.1,0v0.1h-0.1v-0.1l-0.1,0v0.1L23.8,22.8    L23.8,22.8L23.8,22.8z"/>
		<polygon fill="#FFFF00" points="23.4,23.3 23.4,23 23.1,23 23,23.3   "/>
		<polygon fill="#FFFF00" points="24.2,23.3 24.2,23 23.9,23 23.9,23.3   "/>
		<polygon fill="#FFFF00" points="23.5,23.3 23.8,23.3 23.8,22.8 23.5,22.8   "/>
		<path fill="#FFFF00" d="M23.4,22.6l0,0.2c0,0,0,0,0,0h0.4c0,0,0,0,0,0l0-0.2h0h0l-0.1,0v0.1h-0.1v-0.1l-0.1,0v0.1h-0.1v-0.1H23.4z    "/>
		<path fill="#FFFF00" d="M22.9,23.4C22.9,23.4,23,23.4,22.9,23.4l1.3,0.1c0,0,0,0,0-0.1c0,0,0-0.1,0-0.1L22.9,23.4    C23,23.3,22.9,23.3,22.9,23.4z"/>
		<path fill="#FFFF00" d="M23.9,24C23.9,24,23.9,24,23.9,24l0.3,0l-0.1-0.5h0c0,0,0,0,0-0.1c0,0,0-0.1,0-0.1H23c0,0,0,0,0,0.1    c0,0,0,0.1,0,0.1h0L23,24h0.3c0,0,0,0,0-0.1c0,0,0,0,0,0.1H23c0,0-0.1,0-0.1,0.1c0,0,0,0.1,0.1,0.1h1.3c0,0,0.1,0,0.1-0.1    c0,0,0-0.1-0.1-0.1H23.9z M23.8,23.7c0.1,0.1,0.1,0.2,0.1,0.3C23.9,23.9,23.9,23.8,23.8,23.7z"/>
		<path fill="#FFFF00" d="M23,19.4h0.3c0,0,0,0,0,0l0-0.2h0v0l-0.1,0v0.1h-0.1v-0.1l-0.1,0v0.1h-0.1v-0.1l-0.1,0L23,19.4    C23,19.3,23,19.4,23,19.4z"/>
		<polygon fill="#FFFF00" points="23.4,19.6 23.4,19.4 23.1,19.4 23.1,19.4 23,19.6   "/>
		<path fill="#FFFF00" d="M23.8,19.2l0,0.2c0,0,0,0,0,0h0.3c0,0,0,0,0,0l0-0.2h0l0,0l-0.1,0v0.1h-0.1v-0.1l-0.1,0v0.1L23.8,19.2    L23.8,19.2L23.8,19.2z"/>
		<polygon fill="#FFFF00" points="24.2,19.6 24.2,19.4 23.9,19.4 23.9,19.4 23.9,19.6   "/>
		<polygon fill="#FFFF00" points="23.5,19.6 23.8,19.6 23.8,19.1 23.5,19.1   "/>
		<path fill="#FFFF00" d="M23.4,19.1h0.4c0,0,0,0,0,0l0-0.2h0l0,0l-0.1,0V19h-0.1v-0.1l-0.1,0V19h-0.1v-0.1h-0.1L23.4,19.1    C23.4,19.1,23.4,19.1,23.4,19.1z"/>
		<path fill="#FFFF00" d="M24.3,19.7C24.3,19.7,24.3,19.7,24.3,19.7c0-0.1,0-0.1,0-0.1H23c0,0,0,0,0,0.1c0,0,0,0.1,0,0.1H24.3z"/>
		<path fill="#FFFF00" d="M24.3,20.5C24.3,20.5,24.4,20.4,24.3,20.5c0.1-0.1,0-0.1,0-0.1h-0.4c0,0,0,0,0,0l0.3,0l-0.1-0.5h0    c0,0,0,0,0-0.1c0,0,0-0.1,0-0.1H23c0,0,0,0,0,0.1c0,0,0,0.1,0,0.1h0L23,20.3h0.3c0,0,0,0,0-0.1c0,0,0,0,0,0.1H23    c0,0-0.1,0-0.1,0.1c0,0,0,0.1,0.1,0.1H24.3z M23.8,20c0.1,0.1,0.1,0.2,0.1,0.3C23.9,20.2,23.9,20.1,23.8,20z"/>
	</g>
	<g>
		<path d="M16.8,27.6l-0.2-0.2l0.2-0.2l0.2,0.2L16.8,27.6z M16.6,27.3l0.2,0.2l0.2-0.2l-0.2-0.2L16.6,27.3z"/>
		<path d="M17.4,27l-0.2-0.2l0.2-0.2l0.2,0.2L17.4,27z M17.2,26.7l0.2,0.2l0.2-0.2l-0.2-0.2L17.2,26.7z"/>
		<path d="M16.5,27.4C16.5,27.4,16.5,27.4,16.5,27.4l-0.2-0.1l0,0l0,0l0,0l0.1-0.1l0,0l0,0l-0.1,0l0.1-0.1l0.1,0l0,0l-0.1,0l0.1-0.1    l0.1,0.1c0,0,0,0.1,0,0.1L16.5,27.4C16.6,27.4,16.6,27.4,16.5,27.4z M16.4,27.2L16.4,27.2c0.1,0.1,0.1,0.1,0.1,0.1l0.2-0.2    c0,0,0,0,0,0l-0.1-0.1l0,0l0.1,0l-0.1,0.1l-0.1,0l0,0l0.1,0L16.4,27.2L16.4,27.2L16.4,27.2z"/>
		<path d="M17.1,26.8C17.1,26.8,17.1,26.8,17.1,26.8L17,26.6v0l0.1-0.1l0,0l0,0l-0.1,0l0.1-0.1l0.1,0l0,0l-0.1,0l0.1-0.1l0.1,0.1    c0,0,0,0.1,0,0.1L17.1,26.8C17.2,26.8,17.1,26.8,17.1,26.8z M17,26.6L17,26.6c0.1,0.1,0.1,0.1,0.1,0.1l0.2-0.2c0,0,0,0,0,0    l-0.1-0.1l0,0l0.1,0l-0.1,0.1l-0.1,0l0,0l0.1,0L17,26.6L17,26.6L17,26.6z"/>
		<path d="M16.9,26.9C16.9,26.9,16.9,26.8,16.9,26.9l0.1,0L16.9,26.9L16.9,26.9"/>
		<path id="cp3_27_" d="M16.7,27.3C16.7,27.3,16.7,27.2,16.7,27.3l0.1,0L16.7,27.3L16.7,27.3"/>
		<path id="cp3_26_" d="M17.3,26.7C17.3,26.7,17.3,26.6,17.3,26.7l0.1,0L17.3,26.7L17.3,26.7"/>
		<path d="M16.1,24l-0.4,0l0.1-0.5l0,0l1.2,0l0.1,0.5h-0.4l0,0c0-0.4-0.3-0.5-0.3-0.5C16.4,23.6,16.1,23.6,16.1,24L16.1,24z     M16.7,24H17L17,23.5l-0.5,0c0,0,0.1,0,0.1,0.1C16.6,23.7,16.7,23.8,16.7,24z M15.7,24l0.3,0c0-0.2,0.1-0.3,0.2-0.4    c0,0,0.1,0,0.1-0.1l-0.5,0L15.7,24z"/>
		<path d="M17,24.2h-1.3c0,0-0.1,0-0.1-0.1c0,0,0-0.1,0.1-0.1H17C17.1,24,17.1,24,17,24.2C17.1,24.1,17.1,24.2,17,24.2z M15.7,24    C15.7,24,15.7,24.1,15.7,24C15.7,24.1,15.7,24.1,15.7,24l1.3,0.1c0,0,0,0,0,0c0,0,0,0,0,0H15.7z"/>
		<path d="M16.6,24h-0.4v0l0,0c0-0.2,0.1-0.3,0.1-0.3c0,0,0.1,0,0.1,0C16.4,23.7,16.6,23.7,16.6,24L16.6,24z M16.2,24h0.3    c0-0.2-0.1-0.3-0.2-0.3C16.3,23.7,16.2,23.8,16.2,24z"/>
		<path d="M17,23.4h-1.3c0,0-0.1,0-0.1-0.1c0,0,0-0.1,0.1-0.1H17C17.1,23.3,17.1,23.3,17,23.4C17.1,23.4,17.1,23.4,17,23.4z     M15.7,23.3C15.7,23.3,15.7,23.3,15.7,23.3C15.7,23.4,15.7,23.4,15.7,23.3l1.3,0.1c0,0,0,0,0,0s0,0,0,0H15.7z"/>
		<path d="M16.6,22.8h-0.4c0,0-0.1,0-0.1-0.1l0-0.2l0,0l0,0l0.1,0v0.1h0v-0.1l0.1,0v0.1h0v-0.1h0.1L16.6,22.8    C16.6,22.8,16.6,22.8,16.6,22.8z M16.2,22.6l0,0.1c0,0,0,0,0,0h0.4c0,0,0,0,0,0l0-0.1h-0.1v0.1h-0.1v-0.1l-0.1,0v0.1L16.2,22.6    L16.2,22.6L16.2,22.6z"/>
		<path d="M17,23.5h-1.2c0,0-0.1,0-0.1-0.1c0,0,0-0.1,0.1-0.1H17C17,23.4,17.1,23.4,17,23.5C17.1,23.5,17,23.5,17,23.5z M15.8,23.4    C15.7,23.4,15.7,23.5,15.8,23.4C15.7,23.5,15.7,23.5,15.8,23.4l1.2,0.1c0,0,0,0,0,0c0,0,0,0,0,0H15.8z"/>
		<path d="M16.6,23.3l-0.4,0l0-0.6l0.3,0L16.6,23.3z M16.2,23.3l0.3,0l0-0.5l-0.3,0L16.2,23.3z"/>
		<path d="M15.8,23.3l0-0.3h0.3l0,0.3L15.8,23.3z M15.8,23l0,0.2l0.3,0l0-0.2H15.8z"/>
		<path d="M16.6,23.3l0-0.3H17l0,0.3L16.6,23.3z M16.7,23l0,0.2l0.3,0l0-0.2H16.7z"/>
		<path d="M16.1,23h-0.3c0,0-0.1,0-0.1-0.1l0-0.2l0,0l0,0l0.1,0v0.1h0v-0.1l0.1,0v0.1h0v-0.1l0.1,0L16.1,23C16.2,23,16.2,23,16.1,23    z M15.8,22.8l0,0.1c0,0,0,0,0,0h0.3c0,0,0,0,0,0l0-0.1l-0.1,0v0.1H16v-0.1l-0.1,0v0.1L15.8,22.8L15.8,22.8L15.8,22.8z"/>
		<path d="M17,23h-0.3c0,0-0.1,0-0.1-0.1l0-0.2l0,0l0,0l0.1,0v0.1h0v-0.1l0.1,0v0.1h0v-0.1l0.1,0L17,23C17,23,17,23,17,23z     M16.6,22.8l0,0.1c0,0,0,0,0,0H17c0,0,0,0,0,0l0-0.1l-0.1,0v0.1h-0.1v-0.1l-0.1,0v0.1L16.6,22.8L16.6,22.8L16.6,22.8z"/>
		<path d="M16.3,23C16.3,22.9,16.4,22.9,16.3,23l0.1,0.1h-0.1L16.3,23"/>
		<path id="cp3_25_" d="M15.9,23.1C15.9,23.1,16,23.1,15.9,23.1L15.9,23.1L15.9,23.1L15.9,23.1"/>
		<path id="cp3_24_" d="M16.8,23.1C16.8,23.1,16.8,23.1,16.8,23.1L16.8,23.1L16.8,23.1L16.8,23.1"/>
		<path d="M16.8,27.7C16.8,27.7,16.7,27.7,16.8,27.7c-0.1-0.1-0.1-0.1-0.1-0.1l0.9-0.9c0,0,0,0,0,0c0,0,0,0,0,0c0,0,0,0,0.1,0    c0,0,0,0.1,0,0.1L16.8,27.7C16.8,27.7,16.8,27.7,16.8,27.7z M16.7,27.6C16.7,27.6,16.7,27.6,16.7,27.6    C16.8,27.6,16.8,27.6,16.7,27.6l1-0.9c0,0,0,0,0,0c0,0,0,0,0,0c0,0,0,0,0,0L16.7,27.6z"/>
		<path d="M16.9,27.7C16.9,27.7,16.8,27.7,16.9,27.7c-0.1-0.1-0.1-0.1-0.1-0.1l0.9-0.9c0,0,0.1,0,0.1,0c0,0,0,0,0,0.1c0,0,0,0,0,0    L16.9,27.7C16.9,27.7,16.9,27.7,16.9,27.7z M17.7,26.8C17.7,26.8,17.7,26.8,17.7,26.8l-0.9,0.9c0,0,0,0,0,0c0,0,0,0,0,0L17.7,26.8    C17.8,26.8,17.8,26.8,17.7,26.8C17.8,26.8,17.8,26.8,17.7,26.8C17.7,26.8,17.7,26.8,17.7,26.8z"/>
		<path d="M16.7,26.9C16.6,26.9,16.6,26.9,16.7,26.9l-0.2-0.1l0,0l0,0l0,0l0.1-0.1l0,0l0,0l-0.1,0l0.1-0.1l0.1,0l0,0l-0.1,0l0.1-0.1    l0.1,0.1c0,0,0,0,0,0c0,0,0,0,0,0L16.7,26.9C16.7,26.9,16.7,26.9,16.7,26.9z M16.5,26.8L16.5,26.8c0.1,0.1,0.1,0.1,0.1,0.1    l0.2-0.2c0,0,0,0,0,0c0,0,0,0,0,0l-0.1-0.1l0,0l0.1,0l-0.1,0.1l-0.1,0l0,0l0.1,0L16.5,26.8L16.5,26.8L16.5,26.8z"/>
		<path d="M17.1,27.3l-0.4-0.4l0.2-0.2l0.4,0.4L17.1,27.3z M16.7,26.9l0.3,0.3l0.2-0.2l-0.4-0.3L16.7,26.9z"/>
		<path d="M17.6,27.8L17.6,27.8c-0.1-0.1-0.2-0.2-0.1-0.3c0,0,0-0.1,0-0.1l0,0c0,0,0.2-0.1,0.4,0.1l0,0L17.6,27.8z M17.5,27.4    c0,0,0,0.2,0.1,0.3l0.2-0.2C17.6,27.3,17.5,27.4,17.5,27.4z"/>
		<path d="M17.3,28.2C17.3,28.2,17.2,28.2,17.3,28.2c-0.1-0.1-0.1-0.1-0.1-0.1l1-1c0,0,0,0,0.1,0c0,0,0,0,0.1,0c0,0,0,0.1,0,0.1    L17.3,28.2C17.3,28.2,17.3,28.2,17.3,28.2z M17.2,28.1C17.2,28.1,17.2,28.1,17.2,28.1C17.3,28.2,17.3,28.2,17.2,28.1l1-0.9    c0,0,0,0,0-0.1c0,0,0,0,0,0c0,0,0,0,0,0L17.2,28.1z"/>
		<path d="M17.2,28.1l-0.3-0.4l0,0l0,0l0.9-0.9l0.4,0.3l-0.3,0.3l0,0c-0.3-0.3-0.5-0.1-0.5-0.1l0,0c0,0-0.2,0.3,0.1,0.5l0,0    L17.2,28.1z M16.9,27.7l0.3,0.4l0.2-0.2c-0.2-0.2-0.2-0.3-0.2-0.4c0,0,0-0.1,0-0.1L16.9,27.7z M17.6,27.2c0.1,0,0.2,0,0.4,0.2    l0.2-0.2l-0.4-0.3l-0.4,0.4C17.4,27.2,17.5,27.2,17.6,27.2C17.5,27.2,17.5,27.2,17.6,27.2z"/>
		<path d="M16.3,19.3C16.3,19.2,16.4,19.2,16.3,19.3l0.1,0.1h-0.1L16.3,19.3"/>
		<path id="cp3_23_" d="M15.9,19.5C15.9,19.4,16,19.4,15.9,19.5L15.9,19.5L15.9,19.5L15.9,19.5"/>
		<path id="cp3_22_" d="M16.8,19.5C16.8,19.4,16.8,19.4,16.8,19.5L16.8,19.5L16.8,19.5L16.8,19.5"/>
		<path d="M17,19.4h-0.3c0,0-0.1,0-0.1-0.1l0-0.2l0,0l0,0l0.1,0v0.1h0v-0.1l0.1,0v0.1h0v-0.1l0.1,0L17,19.4C17,19.3,17,19.4,17,19.4    z M16.6,19.2l0,0.1c0,0,0,0,0,0H17c0,0,0,0,0,0l0-0.1l-0.1,0v0.1h-0.1v-0.1l-0.1,0v0.1L16.6,19.2L16.6,19.2L16.6,19.2z"/>
		<path d="M16.1,19.4h-0.3c0,0-0.1,0-0.1-0.1l0-0.2l0,0l0,0l0.1,0v0.1h0v-0.1l0.1,0v0.1h0v-0.1l0.1,0L16.1,19.4    C16.2,19.3,16.2,19.4,16.1,19.4z M15.8,19.2l0,0.1c0,0,0,0,0,0h0.3c0,0,0,0,0,0l0-0.1l-0.1,0v0.1H16v-0.1l-0.1,0v0.1L15.8,19.2    L15.8,19.2L15.8,19.2z"/>
		<path d="M16.6,19.6l0-0.3H17l0,0.3L16.6,19.6z M16.7,19.4l0,0.2l0.3,0l0-0.2H16.7z"/>
		<path d="M15.8,19.6l0-0.3h0.3l0,0.3L15.8,19.6z M15.8,19.4l0,0.2l0.3,0l0-0.2H15.8z"/>
		<path d="M16.6,19.6l-0.4,0l0-0.6l0.3,0L16.6,19.6z M16.2,19.6l0.3,0l0-0.5l-0.3,0L16.2,19.6z"/>
		<path d="M16.6,19.1h-0.4c0,0-0.1,0-0.1-0.1l0-0.2l0,0l0,0l0.1,0V19h0v-0.1l0.1,0V19h0v-0.1h0.1L16.6,19.1    C16.6,19.1,16.6,19.1,16.6,19.1z M16.2,18.9l0,0.1c0,0,0,0,0,0h0.4c0,0,0,0,0,0l0-0.1h-0.1V19h-0.1v-0.1l-0.1,0V19L16.2,18.9    L16.2,18.9L16.2,18.9z"/>
		<path d="M17,19.9h-1.2c0,0-0.1,0-0.1-0.1c0,0,0-0.1,0.1-0.1H17C17,19.7,17.1,19.8,17,19.9C17.1,19.8,17,19.9,17,19.9z M15.8,19.8    C15.7,19.8,15.7,19.8,15.8,19.8C15.7,19.8,15.7,19.8,15.8,19.8l1.2,0.1c0,0,0,0,0,0c0,0,0,0,0,0H15.8z"/>
		<path d="M17,19.8h-1.3c0,0-0.1,0-0.1-0.1c0,0,0-0.1,0.1-0.1H17C17.1,19.6,17.1,19.6,17,19.8C17.1,19.7,17.1,19.8,17,19.8z     M15.7,19.7C15.7,19.7,15.7,19.7,15.7,19.7C15.7,19.7,15.7,19.7,15.7,19.7l1.3,0.1c0,0,0,0,0,0s0,0,0,0H15.7z"/>
		<path d="M16.6,20.4h-0.4v0l0,0c0-0.2,0.1-0.3,0.1-0.3c0,0,0.1,0,0.1,0C16.4,20,16.6,20.1,16.6,20.4L16.6,20.4z M16.2,20.3h0.3    c0-0.2-0.1-0.3-0.2-0.3C16.3,20,16.2,20.1,16.2,20.3z"/>
		<path d="M17,20.5h-1.3c0,0-0.1,0-0.1-0.1c0,0,0-0.1,0.1-0.1H17C17.1,20.3,17.1,20.4,17,20.5C17.1,20.5,17.1,20.5,17,20.5z     M15.7,20.4C15.7,20.4,15.7,20.4,15.7,20.4C15.7,20.4,15.7,20.4,15.7,20.4l1.3,0.1c0,0,0,0,0,0c0,0,0,0,0,0H15.7z"/>
		<path d="M16.1,20.4l-0.4,0l0.1-0.5l0,0l1.2,0l0.1,0.5h-0.4l0,0c0-0.4-0.3-0.5-0.3-0.5C16.4,19.9,16.1,19.9,16.1,20.4L16.1,20.4z     M16.7,20.3H17L17,19.9l-0.5,0c0,0,0.1,0,0.1,0.1C16.6,20,16.7,20.1,16.7,20.3z M15.7,20.3l0.3,0c0-0.2,0.1-0.3,0.2-0.4    c0,0,0.1,0,0.1-0.1l-0.5,0L15.7,20.3z"/>
		<path d="M20,29.4c-1.2,0-2.3-0.5-3.2-1.3c-0.9-0.9-1.3-2-1.3-3.2l0,0v0c0,1.2,0.5,2.3,1.3,3.2C17.7,28.9,18.8,29.3,20,29.4    c1.2,0,2.3-0.5,3.2-1.4c0.8-0.8,1.3-2,1.3-3.1l0,0v-6.1l-9,0l0,6.1h0l0-6.1l9.1,0l0,6.1c0,1.2-0.5,2.3-1.3,3.2    C22.3,28.9,21.2,29.4,20,29.4z M20,27.6c-0.7,0-1.4-0.3-1.9-0.8c-0.5-0.5-0.8-1.2-0.8-1.9l0-4.3h0l5.4,0l0,0l0,0l0,3.9l0,0.4    c0,0.1,0,0.2,0,0.3c-0.1,0.6-0.3,1.1-0.8,1.6C21.4,27.3,20.7,27.6,20,27.6z M17.3,20.6l0,4.3c0,0.7,0.3,1.4,0.8,1.9    c0.5,0.5,1.2,0.8,1.9,0.8c0.7,0,1.4-0.3,1.9-0.8c0.4-0.4,0.7-1,0.8-1.6c0-0.1,0-0.2,0-0.3l0-0.4l0-3.9L17.3,20.6z"/>
		<path d="M20,29.6c-1.2,0-2.4-0.5-3.3-1.4c-0.9-0.9-1.4-2.1-1.4-3.3h0l0-6.3l9.5,0l0,6.3c0,1.3-0.5,2.4-1.4,3.3    C22.5,29.1,21.3,29.6,20,29.6z M15.3,24.8L15.3,24.8c0,1.3,0.5,2.4,1.4,3.3c0.9,0.9,2.1,1.4,3.3,1.4c1.3,0,2.4-0.5,3.3-1.4    c0.9-0.9,1.4-2,1.4-3.3l0,0v-6.3l-9.4,0L15.3,24.8z"/>
		<path d="M20.2,19.6l0-0.3h0.3l0,0.3L20.2,19.6z M20.3,19.4l0,0.2l0.3,0l0-0.2H20.3z"/>
		<path d="M20.6,19.4h-0.3c0,0-0.1,0-0.1-0.1l0-0.2l0,0l0,0l0.1,0v0.1h0v-0.1l0.1,0v0.1h0v-0.1l0.1,0L20.6,19.4    C20.7,19.3,20.6,19.4,20.6,19.4z M20.2,19.2l0,0.1c0,0,0,0,0,0h0.3c0,0,0,0,0,0l0-0.1l-0.1,0v0.1h-0.1v-0.1l-0.1,0v0.1L20.2,19.2    L20.2,19.2L20.2,19.2z"/>
		<path d="M19.8,19.4h-0.3c0,0-0.1,0-0.1-0.1l0-0.2l0,0l0,0l0.1,0v0.1h0v-0.1l0.1,0v0.1h0v-0.1l0.1,0L19.8,19.4    C19.8,19.3,19.8,19.4,19.8,19.4z M19.4,19.2l0,0.1c0,0,0,0,0,0h0.3c0,0,0,0,0,0l0-0.1l-0.1,0v0.1h-0.1v-0.1l-0.1,0v0.1L19.4,19.2    L19.4,19.2L19.4,19.2z"/>
		<path d="M20,19.3C20,19.2,20,19.2,20,19.3l0.1,0.1H20L20,19.3"/>
		<path id="cp3_21_" d="M19.6,19.5C19.6,19.4,19.6,19.4,19.6,19.5L19.6,19.5L19.6,19.5L19.6,19.5"/>
		<path id="cp3_20_" d="M20.4,19.5C20.4,19.4,20.5,19.4,20.4,19.5L20.4,19.5L20.4,19.5L20.4,19.5"/>
		<path d="M19.4,19.6l0-0.3h0.3l0,0.3L19.4,19.6z M19.5,19.4l0,0.2l0.3,0l0-0.2H19.5z"/>
		<path d="M20.2,19.6l-0.4,0l0-0.6l0.3,0L20.2,19.6z M19.9,19.6l0.3,0l0-0.5l-0.3,0L19.9,19.6z"/>
		<path d="M20.2,19.1h-0.4c0,0-0.1,0-0.1-0.1l0-0.2l0,0l0,0l0.1,0V19h0v-0.1l0.1,0V19h0v-0.1h0.1L20.2,19.1    C20.3,19.1,20.2,19.1,20.2,19.1z M19.8,18.9l0,0.1c0,0,0,0,0,0h0.4c0,0,0,0,0,0l0-0.1h-0.1V19H20v-0.1l-0.1,0V19L19.8,18.9    L19.8,18.9L19.8,18.9z"/>
		<path d="M20.6,19.9h-1.2c0,0-0.1,0-0.1-0.1c0,0,0-0.1,0.1-0.1h1.2C20.7,19.7,20.7,19.8,20.6,19.9C20.7,19.8,20.7,19.9,20.6,19.9z     M19.4,19.8C19.4,19.8,19.4,19.8,19.4,19.8C19.4,19.8,19.4,19.8,19.4,19.8l1.2,0.1c0,0,0,0,0,0c0,0,0,0,0,0H19.4z"/>
		<path d="M20.7,19.8h-1.3c0,0-0.1,0-0.1-0.1c0,0,0-0.1,0.1-0.1h1.3C20.7,19.6,20.7,19.6,20.7,19.8C20.7,19.7,20.7,19.8,20.7,19.8z     M19.4,19.7C19.3,19.7,19.3,19.7,19.4,19.7C19.3,19.7,19.3,19.7,19.4,19.7l1.3,0.1c0,0,0,0,0,0s0,0,0,0H19.4z"/>
		<path d="M20.2,20.4h-0.4v0l0,0c0-0.2,0.1-0.3,0.1-0.3c0,0,0.1,0,0.1,0c0,0,0,0,0,0C20,20,20.2,20.1,20.2,20.4L20.2,20.4z     M19.8,20.3h0.3c0-0.2-0.1-0.3-0.2-0.3C20,20,19.9,20.1,19.8,20.3z"/>
		<path d="M20.7,20.5h-1.3c0,0-0.1,0-0.1-0.1c0,0,0-0.1,0.1-0.1h1.3C20.7,20.3,20.8,20.4,20.7,20.5C20.8,20.5,20.7,20.5,20.7,20.5z     M19.3,20.4C19.3,20.4,19.3,20.4,19.3,20.4C19.3,20.4,19.3,20.4,19.3,20.4l1.3,0.1c0,0,0,0,0,0c0,0,0,0,0,0H19.3z"/>
		<path d="M19.7,20.4l-0.4,0l0.1-0.5l1.2,0l0.1,0.5h-0.4l0,0c0-0.4-0.3-0.5-0.3-0.5C20,19.9,19.7,19.9,19.7,20.4L19.7,20.4z     M20.4,20.3h0.3l-0.1-0.5l-0.5,0c0,0,0.1,0,0.1,0.1C20.3,20,20.3,20.1,20.4,20.3z M19.4,20.3l0.3,0c0-0.2,0.1-0.3,0.2-0.4    c0,0,0.1,0,0.1-0.1l-0.5,0L19.4,20.3z"/>
		<path id="cp3_19_" d="M22.7,26.7C22.7,26.7,22.7,26.6,22.7,26.7l-0.1,0L22.7,26.7L22.7,26.7"/>
		<path d="M23.1,26.9C23.1,26.9,23.1,26.8,23.1,26.9l-0.1,0L23.1,26.9L23.1,26.9"/>
		<path id="cp3_18_" d="M23.3,27.3C23.3,27.3,23.3,27.2,23.3,27.3l-0.1,0L23.3,27.3L23.3,27.3"/>
		<path d="M22.9,26.8C22.9,26.8,22.8,26.8,22.9,26.8l-0.3-0.3c0,0,0-0.1,0-0.1l0.1-0.1l0.1,0.1l-0.1,0l0,0l0.1,0l0.1,0.1l-0.1,0l0,0    l0,0l0.1,0.1l0,0L22.9,26.8C22.9,26.8,22.9,26.8,22.9,26.8z M22.7,26.4L22.7,26.4c-0.1,0.1-0.1,0.1-0.1,0.1l0.2,0.2c0,0,0,0,0,0    l0.1-0.1l0,0l0,0l-0.1-0.1l0.1,0l0,0l-0.1,0L22.7,26.4L22.7,26.4L22.7,26.4z"/>
		<path d="M23.5,27.4C23.4,27.4,23.4,27.4,23.5,27.4l-0.3-0.3c0,0,0-0.1,0-0.1l0.1-0.1l0.1,0.1l-0.1,0l0,0l0.1,0l0.1,0.1l-0.1,0l0,0    l0,0l0.1,0.1v0L23.5,27.4C23.5,27.4,23.5,27.4,23.5,27.4z M23.3,26.9L23.3,26.9c-0.1,0.1-0.1,0.1-0.1,0.1l0.2,0.2c0,0,0,0,0,0    l0.1-0.1l0,0l0,0l-0.1-0.1l0.1,0l0,0l-0.1,0L23.3,26.9L23.3,26.9L23.3,26.9z"/>
		<path d="M22.6,27l-0.3-0.3l0.2-0.2l0.2,0.2L22.6,27z M22.4,26.7l0.2,0.2l0.2-0.2l-0.2-0.2L22.4,26.7z"/>
		<path d="M23.2,27.6L23,27.3l0.2-0.2l0,0l0,0l0,0l0,0h0l0.2,0.2L23.2,27.6z M23,27.3l0.2,0.2l0.2-0.2l-0.2-0.2L23,27.3z"/>
		<path d="M22.9,27.3L22.7,27l0.4-0.4l0.2,0.2L22.9,27.3z M22.7,27l0.2,0.2l0.3-0.3l-0.2-0.2L22.7,27z"/>
		<path d="M23.3,26.9C23.3,26.9,23.3,26.9,23.3,26.9l-0.3-0.3c0,0,0,0,0,0c0,0,0,0,0,0l0.1-0.1l0.1,0.1l-0.1,0l0,0l0.1,0l0.1,0.1    l-0.1,0l0,0l0,0l0.1,0.1l0,0L23.3,26.9C23.4,26.9,23.4,26.9,23.3,26.9z M23.2,26.5L23.2,26.5c-0.1,0.1-0.1,0.1-0.1,0.1    c0,0,0,0,0,0l0.2,0.2c0,0,0,0,0,0l0.1-0.1l0,0l0,0l-0.1-0.1l0.1,0l0,0l-0.1,0L23.2,26.5L23.2,26.5L23.2,26.5z"/>
		<path d="M23.1,27.7C23.1,27.7,23.1,27.7,23.1,27.7l-0.9-0.9c0,0,0,0,0,0c0,0,0,0,0-0.1c0,0,0,0,0.1,0c0,0,0,0,0.1,0l0.9,0.9    C23.2,27.6,23.2,27.7,23.1,27.7C23.2,27.7,23.1,27.7,23.1,27.7z M22.3,26.8C22.3,26.8,22.3,26.8,22.3,26.8    C22.3,26.8,22.2,26.8,22.3,26.8C22.2,26.8,22.2,26.8,22.3,26.8C22.2,26.8,22.2,26.8,22.3,26.8l0.8,0.9c0,0,0,0,0,0c0,0,0,0,0,0    L22.3,26.8C22.3,26.8,22.3,26.8,22.3,26.8z"/>
		<path d="M23.2,27.7C23.2,27.7,23.2,27.7,23.2,27.7l-1-0.9c0,0,0-0.1,0-0.1c0,0,0,0,0.1,0c0,0,0,0,0,0c0,0,0,0,0,0l0.9,0.9    C23.3,27.6,23.3,27.6,23.2,27.7C23.3,27.7,23.2,27.7,23.2,27.7z M22.3,26.7C22.3,26.7,22.3,26.7,22.3,26.7    C22.3,26.7,22.3,26.7,22.3,26.7l0.9,1c0,0,0,0,0,0c0,0,0,0,0,0L22.3,26.7C22.3,26.7,22.3,26.7,22.3,26.7    C22.3,26.7,22.3,26.7,22.3,26.7z"/>
		<path d="M22.4,27.8l-0.3-0.3l0,0c0.2-0.2,0.4-0.1,0.4-0.1l0,0c0,0,0,0.1,0,0.1C22.6,27.5,22.6,27.6,22.4,27.8L22.4,27.8z     M22.2,27.5l0.2,0.2c0.1-0.2,0.1-0.3,0.1-0.3C22.5,27.4,22.4,27.3,22.2,27.5z"/>
		<path d="M22.7,28.2C22.7,28.2,22.7,28.2,22.7,28.2l-1-1c0,0,0-0.1,0-0.1c0,0,0,0,0.1,0c0,0,0,0,0.1,0l1,1    C22.8,28.1,22.8,28.2,22.7,28.2C22.8,28.2,22.7,28.2,22.7,28.2z M21.8,27.1C21.8,27.1,21.8,27.1,21.8,27.1    C21.8,27.1,21.8,27.2,21.8,27.1C21.7,27.2,21.7,27.2,21.8,27.1l0.9,1c0,0,0,0,0.1,0c0,0,0,0,0-0.1L21.8,27.1    C21.8,27.1,21.8,27.1,21.8,27.1z"/>
		<path d="M22.8,28.1l-0.3-0.3l0,0c0.3-0.3,0.1-0.5,0.1-0.5l0,0c0,0-0.3-0.1-0.5,0.1l0,0l-0.3-0.3l0.4-0.3l0.9,0.9l0,0L22.8,28.1z     M22.6,27.8l0.2,0.2l0.3-0.4l-0.4-0.4c0,0,0,0.1,0,0.1C22.7,27.5,22.7,27.7,22.6,27.8z M21.9,27.2l0.2,0.2    c0.1-0.1,0.3-0.2,0.4-0.2c0.1,0,0.1,0,0.1,0l-0.4-0.4L21.9,27.2z"/>
		<path id="cp3_17_" d="M23.2,23.1C23.2,23.1,23.2,23.1,23.2,23.1L23.2,23.1L23.2,23.1L23.2,23.1"/>
		<path id="cp3_16_" d="M24.1,23.1C24.1,23.1,24,23.1,24.1,23.1L24.1,23.1L24.1,23.1L24.1,23.1"/>
		<path d="M23.7,23C23.7,22.9,23.6,22.9,23.7,23l-0.1,0.1h0.1L23.7,23"/>
		<path d="M23.4,23H23c0,0-0.1,0-0.1-0.1l0-0.2l0.1,0v0.1h0v-0.1l0.1,0v0.1h0v-0.1l0.1,0l0,0L23.4,23C23.4,23,23.4,23,23.4,23z     M23,22.8l0,0.1c0,0,0,0,0,0h0.3c0,0,0,0,0,0l0-0.1l-0.1,0v0.1h-0.1v-0.1l-0.1,0v0.1L23,22.8L23,22.8L23,22.8z"/>
		<path d="M24.2,23h-0.3c0,0-0.1,0-0.1-0.1l0-0.2l0.1,0v0.1h0v-0.1l0.1,0v0.1h0v-0.1l0.1,0l0,0L24.2,23C24.3,23,24.3,23,24.2,23z     M23.9,22.8l0,0.1c0,0,0,0,0,0h0.3c0,0,0,0,0,0l0-0.1l-0.1,0v0.1h-0.1v-0.1l-0.1,0v0.1L23.9,22.8L23.9,22.8L23.9,22.8z"/>
		<path d="M23.4,23.3l-0.4,0l0-0.3h0.3L23.4,23.3z M23.1,23.3l0.3,0l0-0.2h-0.3L23.1,23.3z"/>
		<path d="M24.2,23.3l-0.4,0l0-0.3h0.3L24.2,23.3z M23.9,23.3l0.3,0l0-0.2h-0.3L23.9,23.3z"/>
		<path d="M23.4,23.3l0-0.6l0.3,0l0,0.6L23.4,23.3z M23.5,22.8l0,0.5l0.3,0l0-0.5L23.5,22.8z"/>
		<path d="M23.8,22.8h-0.4c0,0-0.1,0-0.1-0.1l0-0.2h0.1v0.1h0v-0.1l0.1,0v0.1h0v-0.1l0.1,0l0,0L23.8,22.8    C23.9,22.8,23.8,22.8,23.8,22.8z M23.4,22.6l0,0.1c0,0,0,0,0,0h0.4c0,0,0,0,0,0l0-0.1l-0.1,0v0.1h-0.1v-0.1l-0.1,0v0.1L23.4,22.6    L23.4,22.6L23.4,22.6z"/>
		<path d="M24.2,23.5H23c0,0-0.1,0-0.1-0.1c0,0,0-0.1,0.1-0.1h1.2C24.3,23.4,24.3,23.4,24.2,23.5C24.3,23.5,24.3,23.5,24.2,23.5z     M23,23.4C23,23.4,23,23.5,23,23.4C23,23.5,23,23.5,23,23.4l1.2,0.1c0,0,0,0,0,0c0,0,0,0,0,0H23z"/>
		<path d="M24.3,23.4H23c0,0-0.1,0-0.1-0.1c0,0,0-0.1,0.1-0.1h1.3C24.3,23.3,24.3,23.3,24.3,23.4C24.3,23.4,24.3,23.4,24.3,23.4z     M23,23.3C23,23.3,23,23.3,23,23.3C23,23.4,23,23.4,23,23.3l1.3,0.1c0,0,0,0,0,0s0,0,0,0H23z"/>
		<path d="M23.8,24h-0.4l0,0c0-0.3,0.2-0.4,0.2-0.4c0,0,0.1,0,0.1,0C23.8,23.7,23.8,23.8,23.8,24L23.8,24z M23.5,24h0.3    c0-0.2-0.1-0.3-0.2-0.3C23.6,23.7,23.5,23.8,23.5,24z"/>
		<path d="M24.3,24.2H23c0,0-0.1,0-0.1-0.1c0,0,0-0.1,0.1-0.1h1.3C24.3,24,24.4,24,24.3,24.2C24.4,24.1,24.3,24.2,24.3,24.2z M23,24    C22.9,24,22.9,24.1,23,24C22.9,24.1,22.9,24.1,23,24l1.3,0.1c0,0,0,0,0,0c0,0,0,0,0,0H23z"/>
		<path d="M23.9,24L23.9,24c0-0.4-0.3-0.5-0.3-0.5c0,0-0.3,0.1-0.3,0.5l0,0h-0.4l0.1-0.5l1.2,0v0l0.1,0.5L23.9,24z M23,24h0.3    c0-0.2,0.1-0.3,0.2-0.4c0,0,0.1-0.1,0.1-0.1l-0.5,0L23,24z M23.7,23.5c0,0,0.1,0,0.1,0.1c0.1,0.1,0.2,0.2,0.2,0.4l0.3,0l0-0.5    L23.7,23.5z"/>
		<path id="cp3_15_" d="M23.2,19.5C23.2,19.4,23.2,19.4,23.2,19.5L23.2,19.5L23.2,19.5L23.2,19.5"/>
		<path d="M23.7,19.3C23.7,19.2,23.6,19.2,23.7,19.3l-0.1,0.1h0.1L23.7,19.3"/>
		<path id="cp3_14_" d="M24.1,19.5C24.1,19.4,24,19.4,24.1,19.5L24.1,19.5L24.1,19.5L24.1,19.5"/>
		<path d="M23.4,19.4H23c0,0-0.1,0-0.1-0.1l0-0.2l0.1,0v0.1h0v-0.1l0.1,0v0.1h0v-0.1l0.1,0l0,0L23.4,19.4    C23.4,19.3,23.4,19.4,23.4,19.4z M23,19.2l0,0.1c0,0,0,0,0,0h0.3c0,0,0,0,0,0l0-0.1l-0.1,0v0.1h-0.1v-0.1l-0.1,0v0.1L23,19.2    L23,19.2L23,19.2z"/>
		<path d="M24.2,19.4h-0.3c0,0-0.1,0-0.1-0.1l0-0.2l0.1,0v0.1h0v-0.1l0.1,0v0.1h0v-0.1l0.1,0l0,0L24.2,19.4    C24.3,19.3,24.3,19.4,24.2,19.4z M23.9,19.2l0,0.1c0,0,0,0,0,0h0.3c0,0,0,0,0,0l0-0.1l-0.1,0v0.1h-0.1v-0.1l-0.1,0v0.1L23.9,19.2    L23.9,19.2L23.9,19.2z"/>
		<path d="M23.4,19.6l-0.4,0l0-0.3h0.3L23.4,19.6z M23.1,19.6l0.3,0l0-0.2h-0.3L23.1,19.6z"/>
		<path d="M24.2,19.6l-0.4,0l0-0.3h0.3L24.2,19.6z M23.9,19.6l0.3,0l0-0.2h-0.3L23.9,19.6z"/>
		<path d="M23.4,19.6l0-0.6l0.3,0l0,0.6L23.4,19.6z M23.5,19.1l0,0.5l0.3,0l0-0.5L23.5,19.1z"/>
		<path d="M23.8,19.1h-0.4c0,0-0.1,0-0.1-0.1l0-0.2h0.1V19h0v-0.1l0.1,0V19h0v-0.1l0.1,0l0,0L23.8,19.1    C23.9,19.1,23.8,19.1,23.8,19.1z M23.4,18.9l0,0.1c0,0,0,0,0,0h0.4c0,0,0,0,0,0l0-0.1l-0.1,0V19h-0.1v-0.1l-0.1,0V19L23.4,18.9    L23.4,18.9L23.4,18.9z"/>
		<path d="M24.3,19.8H23c0,0-0.1,0-0.1-0.1c0,0,0-0.1,0.1-0.1h1.3C24.3,19.6,24.3,19.6,24.3,19.8C24.3,19.7,24.3,19.8,24.3,19.8z     M23,19.7C23,19.7,23,19.7,23,19.7C23,19.7,23,19.7,23,19.7l1.3,0.1c0,0,0,0,0,0s0,0,0,0H23z"/>
		<path d="M24.2,19.9H23c0,0-0.1,0-0.1-0.1c0,0,0-0.1,0.1-0.1h1.2C24.3,19.7,24.3,19.8,24.2,19.9C24.3,19.8,24.3,19.9,24.2,19.9z     M23,19.8C23,19.8,23,19.8,23,19.8C23,19.8,23,19.8,23,19.8l1.2,0.1c0,0,0,0,0,0c0,0,0,0,0,0H23z"/>
		<path d="M23.8,20.4h-0.4l0,0c0-0.3,0.2-0.4,0.2-0.4c0,0,0.1,0,0.1,0C23.8,20.1,23.8,20.2,23.8,20.4L23.8,20.4z M23.5,20.3h0.3    c0-0.2-0.1-0.3-0.2-0.3C23.6,20,23.5,20.1,23.5,20.3z"/>
		<path d="M24.3,20.5H23c0,0-0.1,0-0.1-0.1c0,0,0-0.1,0.1-0.1h1.3C24.3,20.3,24.4,20.4,24.3,20.5C24.4,20.5,24.3,20.5,24.3,20.5z     M23,20.4C22.9,20.4,22.9,20.4,23,20.4C22.9,20.4,22.9,20.4,23,20.4l1.3,0.1c0,0,0,0,0,0c0,0,0,0,0,0H23z"/>
		<path d="M23.9,20.4L23.9,20.4c0-0.4-0.3-0.5-0.3-0.5c0,0-0.3,0.1-0.3,0.5l0,0h-0.4l0.1-0.5l1.2,0v0l0.1,0.5L23.9,20.4z M23,20.3    h0.3c0-0.2,0.1-0.3,0.2-0.4c0,0,0.1-0.1,0.1-0.1l-0.5,0L23,20.3z M23.7,19.9c0,0,0.1,0,0.1,0.1c0.1,0.1,0.2,0.2,0.2,0.4l0.3,0    l0-0.5L23.7,19.9z"/>
	</g>
	<g>
		<path fill="#003399" d="M19.4,23.3l0,0.9v0v0c0,0.2,0.1,0.3,0.2,0.5c0.1,0.1,0.3,0.2,0.4,0.2c0.2,0,0.3-0.1,0.4-0.2    c0.1-0.1,0.2-0.3,0.2-0.5v-0.9L19.4,23.3z M19.7,24.4c-0.1,0-0.1-0.1-0.1-0.1s0.1-0.1,0.1-0.1c0.1,0,0.1,0.1,0.1,0.1    S19.8,24.4,19.7,24.4z M19.7,23.8c-0.1,0-0.1-0.1-0.1-0.1c0-0.1,0.1-0.1,0.1-0.1c0.1,0,0.1,0.1,0.1,0.1    C19.8,23.7,19.8,23.8,19.7,23.8z M20,24.1c-0.1,0-0.1-0.1-0.1-0.1c0-0.1,0.1-0.1,0.1-0.1s0.1,0.1,0.1,0.1    C20.1,24,20.1,24.1,20,24.1z M20.4,24.4c-0.1,0-0.1-0.1-0.1-0.1c0-0.1,0.1-0.1,0.1-0.1c0.1,0,0.1,0.1,0.1,0.1    C20.5,24.4,20.4,24.4,20.4,24.4z M20.4,23.8c-0.1,0-0.1-0.1-0.1-0.1c0-0.1,0.1-0.1,0.1-0.1c0.1,0,0.1,0.1,0.1,0.1    C20.5,23.7,20.4,23.8,20.4,23.8z"/>
		<path fill="#003399" d="M19.4,21.3l0,0.9v0v0c0,0.2,0.1,0.3,0.2,0.5c0.1,0.1,0.3,0.2,0.4,0.2c0.2,0,0.3-0.1,0.4-0.2    c0.1-0.1,0.2-0.3,0.2-0.5v-0.9L19.4,21.3z M19.7,22.4c-0.1,0-0.1-0.1-0.1-0.1c0-0.1,0.1-0.1,0.1-0.1c0.1,0,0.1,0.1,0.1,0.1    C19.8,22.3,19.8,22.4,19.7,22.4z M19.7,21.7c-0.1,0-0.1-0.1-0.1-0.1c0-0.1,0.1-0.1,0.1-0.1c0.1,0,0.1,0.1,0.1,0.1    C19.8,21.7,19.8,21.7,19.7,21.7z M20,22c-0.1,0-0.1-0.1-0.1-0.1s0.1-0.1,0.1-0.1s0.1,0.1,0.1,0.1S20.1,22,20,22z M20.4,22.4    c-0.1,0-0.1-0.1-0.1-0.1c0-0.1,0.1-0.1,0.1-0.1c0.1,0,0.1,0.1,0.1,0.1C20.5,22.3,20.4,22.4,20.4,22.4z M20.4,21.7    c-0.1,0-0.1-0.1-0.1-0.1s0.1-0.1,0.1-0.1c0.1,0,0.1,0.1,0.1,0.1S20.4,21.7,20.4,21.7z"/>
		<path fill="#003399" d="M17.8,23.3l0,0.9l0,0v0c0,0.2,0.1,0.3,0.2,0.5c0.1,0.1,0.3,0.2,0.4,0.2c0.2,0,0.3-0.1,0.4-0.2    c0.1-0.1,0.2-0.3,0.2-0.5v-0.9L17.8,23.3z M18,24.4c-0.1,0-0.1-0.1-0.1-0.1s0.1-0.1,0.1-0.1c0.1,0,0.1,0.1,0.1,0.1    S18.1,24.4,18,24.4z M18,23.8c-0.1,0-0.1-0.1-0.1-0.1c0-0.1,0.1-0.1,0.1-0.1c0.1,0,0.1,0.1,0.1,0.1C18.2,23.7,18.1,23.8,18,23.8z     M18.4,24.1c-0.1,0-0.1-0.1-0.1-0.1c0-0.1,0.1-0.1,0.1-0.1c0.1,0,0.1,0.1,0.1,0.1C18.5,24,18.4,24.1,18.4,24.1z M18.7,24.4    c-0.1,0-0.1-0.1-0.1-0.1c0-0.1,0.1-0.1,0.1-0.1c0.1,0,0.1,0.1,0.1,0.1C18.8,24.4,18.8,24.4,18.7,24.4z M18.7,23.8    c-0.1,0-0.1-0.1-0.1-0.1c0-0.1,0.1-0.1,0.1-0.1c0.1,0,0.1,0.1,0.1,0.1C18.8,23.7,18.8,23.8,18.7,23.8z"/>
		<path fill="#003399" d="M21.1,23.3l0,0.9v0v0c0,0.2,0.1,0.3,0.2,0.5c0.1,0.1,0.3,0.2,0.4,0.2c0.2,0,0.3-0.1,0.4-0.2    c0.1-0.1,0.2-0.3,0.2-0.5v-0.9L21.1,23.3z M21.3,24.4c-0.1,0-0.1-0.1-0.1-0.1s0.1-0.1,0.1-0.1c0.1,0,0.1,0.1,0.1,0.1    S21.4,24.4,21.3,24.4z M21.3,23.8c-0.1,0-0.1-0.1-0.1-0.1c0-0.1,0.1-0.1,0.1-0.1c0.1,0,0.1,0.1,0.1,0.1    C21.5,23.7,21.4,23.8,21.3,23.8z M21.7,24.1c-0.1,0-0.1-0.1-0.1-0.1c0-0.1,0.1-0.1,0.1-0.1s0.1,0.1,0.1,0.1    C21.8,24,21.7,24.1,21.7,24.1z M22,24.4c-0.1,0-0.1-0.1-0.1-0.1c0-0.1,0.1-0.1,0.1-0.1s0.1,0.1,0.1,0.1    C22.1,24.4,22.1,24.4,22,24.4z M22,23.8c-0.1,0-0.1-0.1-0.1-0.1c0-0.1,0.1-0.1,0.1-0.1c0.1,0,0.1,0.1,0.1,0.1    C22.1,23.7,22.1,23.8,22,23.8z"/>
		<path fill="#003399" d="M19.4,25.4l0,0.9v0v0c0,0.2,0.1,0.3,0.2,0.5c0.1,0.1,0.3,0.2,0.4,0.2c0.2,0,0.3-0.1,0.4-0.2    c0.1-0.1,0.2-0.3,0.2-0.5v-0.9L19.4,25.4z M19.7,26.5c-0.1,0-0.1-0.1-0.1-0.1c0-0.1,0.1-0.1,0.1-0.1c0.1,0,0.1,0.1,0.1,0.1    C19.8,26.4,19.8,26.5,19.7,26.5z M19.7,25.8c-0.1,0-0.1-0.1-0.1-0.1s0.1-0.1,0.1-0.1c0.1,0,0.1,0.1,0.1,0.1S19.8,25.8,19.7,25.8z     M20,26.1c-0.1,0-0.1-0.1-0.1-0.1s0.1-0.1,0.1-0.1s0.1,0.1,0.1,0.1S20.1,26.1,20,26.1z M20.4,26.5c-0.1,0-0.1-0.1-0.1-0.1    s0.1-0.1,0.1-0.1c0.1,0,0.1,0.1,0.1,0.1S20.4,26.5,20.4,26.5z M20.4,25.8c-0.1,0-0.1-0.1-0.1-0.1c0-0.1,0.1-0.1,0.1-0.1    c0.1,0,0.1,0.1,0.1,0.1C20.5,25.8,20.4,25.8,20.4,25.8z"/>
	</g>
</g>
</svg>