<?xml version="1.0" encoding="iso-8859-1"?>
<!-- Generator: Adobe Illustrator 22.0.1, SVG Export Plug-In . SVG Version: 6.00 Build 0)  -->
<svg version="1.1" id="Layer_1" xmlns="http://www.w3.org/2000/svg" xmlns:xlink="http://www.w3.org/1999/xlink" x="0px" y="0px"
	 viewBox="0 0 18 18" style="enable-background:new 0 0 18 18;" xml:space="preserve">
<g>
	<g>
		<path style="fill:#F5CE85;" d="M2.207,17.5L0.5,15.793V14.57l4.469-4.468l-0.224-0.34C4.357,9.172,4.438,8.38,4.939,7.88
			l0.608-0.608L5.527,7.04C5.512,6.862,5.5,6.682,5.5,6.5c0-3.309,2.691-6,6-6s6,2.691,6,6s-2.691,6-6,6
			c-0.183,0-0.361-0.012-0.539-0.027l-0.232-0.021l-0.608,0.608C9.837,13.344,9.46,13.5,9.06,13.5c-0.294,0-0.577-0.084-0.821-0.245
			l-0.34-0.224L6.43,14.5H4.5v1.93L3.43,17.5L2.207,17.5z"/>
	</g>
	<g>
		<path style="fill:#967A44;" d="M11.5,1C14.533,1,17,3.467,17,6.5S14.533,12,11.5,12c-0.167,0-0.331-0.011-0.494-0.025
			l-0.465-0.042l-0.33,0.33l-0.444,0.444C9.578,12.896,9.327,13,9.06,13c-0.196,0-0.385-0.056-0.548-0.163l-0.68-0.447l-0.575,0.575
			L6.222,14H5H4v1v1.222L3.223,17l-0.808,0L1,15.586l0-0.808l4.034-4.034l0.575-0.575l-0.447-0.68
			C4.905,9.094,4.96,8.567,5.293,8.234L5.737,7.79l0.33-0.33L6.025,6.994C6.011,6.831,6,6.667,6,6.5C6,3.467,8.467,1,11.5,1 M11.5,0
			C7.91,0,5,2.91,5,6.5c0,0.197,0.012,0.391,0.029,0.583L4.586,7.527c-0.682,0.682-0.768,1.734-0.259,2.51L0,14.363L0,16l2,2
			l1.637,0L5,16.637V15h1.637l1.327-1.327C8.295,13.891,8.678,14,9.06,14c0.512,0,1.023-0.195,1.414-0.585l0.444-0.444
			C11.109,12.988,11.303,13,11.5,13c3.59,0,6.5-2.91,6.5-6.5S15.09,0,11.5,0L11.5,0z"/>
	</g>
</g>
<g>
	<path style="fill:#967A44;" d="M13.975,8.975c1.367-1.367,1.367-3.583,0-4.95s-3.583-1.367-4.95,0L13.975,8.975z"/>
</g>
<line style="fill:none;stroke:#967A44;stroke-miterlimit:10;" x1="5.865" y1="11.11" x2="7.816" y2="13.061"/>
</svg>
