<?xml version="1.0" encoding="iso-8859-1"?>
<!-- Generator: Adobe Illustrator 22.0.1, SVG Export Plug-In . SVG Version: 6.00 Build 0)  -->
<svg version="1.1" id="Layer_1" xmlns="http://www.w3.org/2000/svg" xmlns:xlink="http://www.w3.org/1999/xlink" x="0px" y="0px"
	 viewBox="0 0 18 18" style="enable-background:new 0 0 18 18;" xml:space="preserve">
<g>
	<g>
		<path style="fill:#4E7AB5;" d="M13.625,2c0.634,0,1.231,0.247,1.679,0.696C15.753,3.144,16,3.741,16,4.375
			c0,0.634-0.247,1.231-0.696,1.679l-1.25,1.25C13.606,7.753,13.009,8,12.375,8s-1.231-0.247-1.679-0.696
			C10.247,6.856,10,6.259,10,5.625c0-0.634,0.247-1.231,0.696-1.679l1.25-1.25C12.394,2.247,12.991,2,13.625,2 M13.625,0
			c-1.12,0-2.239,0.427-3.094,1.281c-0.446,0.446-0.804,0.804-1.25,1.25c-1.709,1.709-1.709,4.479,0,6.187
			C10.136,9.573,11.255,10,12.375,10s2.239-0.427,3.094-1.281c0.446-0.446,0.804-0.804,1.25-1.25c1.709-1.709,1.709-4.479,0-6.187
			C15.864,0.427,14.745,0,13.625,0L13.625,0z"/>
	</g>
</g>
<g>
	<g>
		<path style="fill:#4E7AB5;" d="M5.625,10c0.634,0,1.231,0.247,1.679,0.696C7.753,11.144,8,11.741,8,12.375
			c0,0.634-0.247,1.231-0.696,1.679l-1.25,1.25C5.606,15.753,5.009,16,4.375,16c-0.634,0-1.231-0.247-1.679-0.696
			C2.247,14.856,2,14.259,2,13.625c0-0.634,0.247-1.231,0.696-1.679l1.25-1.25C4.394,10.247,4.991,10,5.625,10 M5.625,8
			c-1.12,0-2.239,0.427-3.094,1.281c-0.446,0.446-0.804,0.804-1.25,1.25c-1.709,1.709-1.709,4.479,0,6.187
			C2.136,17.573,3.255,18,4.375,18s2.239-0.427,3.094-1.281c0.446-0.446,0.804-0.804,1.25-1.25c1.709-1.709,1.709-4.479,0-6.187
			C7.864,8.427,6.745,8,5.625,8L5.625,8z"/>
	</g>
</g>
<line style="fill:none;stroke:#4E7AB5;stroke-width:2;stroke-linecap:round;stroke-linejoin:round;stroke-miterlimit:10;" x1="6.5" y1="11.5" x2="11.5" y2="6.5"/>
</svg>
