<?xml version="1.0" encoding="iso-8859-1"?>
<!-- Generator: Adobe Illustrator 22.0.1, SVG Export Plug-In . SVG Version: 6.00 Build 0)  -->
<svg version="1.1" id="Layer_1" xmlns="http://www.w3.org/2000/svg" xmlns:xlink="http://www.w3.org/1999/xlink" x="0px" y="0px"
	 viewBox="0 0 18 18" style="enable-background:new 0 0 18 18;" xml:space="preserve">
<path style="fill:none;stroke:#66798F;stroke-width:2;stroke-miterlimit:10;" d="M13.625,4.096C12.876,2.279,11.087,1,9,1
	C6.239,1,4,3.239,4,6c0,0.204,0,2.857,0,2.857"/>
<g>
	<path style="fill:#F5CE85;" d="M0.5,17.5V9c0-0.827,0.673-1.5,1.5-1.5h14c0.827,0,1.5,0.673,1.5,1.5v8.5H0.5z"/>
	<path style="fill:#967A44;" d="M16,8c0.551,0,1,0.449,1,1v8H1V9c0-0.551,0.449-1,1-1H16 M16,7H2C0.895,7,0,7.895,0,9v9h18V9
		C18,7.895,17.105,7,16,7L16,7z"/>
</g>
<rect x="1" y="14" style="fill:#FFEEA3;" width="16" height="2"/>
<rect x="1" y="10" style="fill:#FFEEA3;" width="16" height="2"/>
</svg>
