<?xml version="1.0" encoding="iso-8859-1"?>
<!-- Generator: Adobe Illustrator 22.0.1, SVG Export Plug-In . SVG Version: 6.00 Build 0)  -->
<svg version="1.1" id="Layer_1" xmlns="http://www.w3.org/2000/svg" xmlns:xlink="http://www.w3.org/1999/xlink" x="0px" y="0px"
	 viewBox="0 0 18 18" style="enable-background:new 0 0 18 18;" xml:space="preserve">
<g>
	<circle style="fill:#FFEEA3;" cx="9" cy="9" r="8.5"/>
	<g>
		<path style="fill:#BA9B48;" d="M9,1c4.411,0,8,3.589,8,8s-3.589,8-8,8s-8-3.589-8-8S4.589,1,9,1 M9,0C4.029,0,0,4.029,0,9
			c0,4.971,4.029,9,9,9s9-4.029,9-9C18,4.029,13.971,0,9,0L9,0z"/>
	</g>
</g>
<g>
	<circle style="fill:#FFFFFF;" cx="9" cy="9" r="7"/>
</g>
<polyline style="fill:none;stroke:#66798F;stroke-miterlimit:10;" points="12.479,3.86 9,9 12.449,12.449 "/>
<g>
	<circle style="fill:#66798F;" cx="9" cy="9" r="1"/>
</g>
</svg>
