<?xml version="1.0" encoding="iso-8859-1"?>
<!-- Generator: Adobe Illustrator 22.0.1, SVG Export Plug-In . SVG Version: 6.00 Build 0)  -->
<svg version="1.1" id="Layer_1" xmlns="http://www.w3.org/2000/svg" xmlns:xlink="http://www.w3.org/1999/xlink" x="0px" y="0px"
	 viewBox="0 0 18 14" style="enable-background:new 0 0 18 14;" xml:space="preserve">
<line style="fill:none;stroke:#66798F;stroke-linecap:round;stroke-miterlimit:10;" x1="10.69" y1="12.947" x2="10.014" y2="9.321"/>
<line style="fill:none;stroke:#66798F;stroke-linecap:round;stroke-miterlimit:10;" x1="17.483" y1="8.589" x2="14.82" y2="6.28"/>
<line style="fill:none;stroke:#66798F;stroke-linecap:round;stroke-miterlimit:10;" x1="15.81" y1="10.25" x2="13.056" y2="7.163"/>
<line style="fill:none;stroke:#66798F;stroke-linecap:round;stroke-miterlimit:10;" x1="13.467" y1="11.916" x2="11.563" y2="8.244"/>
<line style="fill:none;stroke:#66798F;stroke-linecap:round;stroke-miterlimit:10;" x1="7.31" y1="12.947" x2="7.986" y2="9.321"/>
<line style="fill:none;stroke:#66798F;stroke-linecap:round;stroke-miterlimit:10;" x1="0.517" y1="8.589" x2="3.18" y2="6.28"/>
<line style="fill:none;stroke:#66798F;stroke-linecap:round;stroke-miterlimit:10;" x1="2.19" y1="10.25" x2="4.944" y2="7.163"/>
<line style="fill:none;stroke:#66798F;stroke-linecap:round;stroke-miterlimit:10;" x1="4.533" y1="11.916" x2="6.437" y2="8.244"/>
<g>
	<path style="fill:#FFEEA3;" d="M9,11.5c-4.053,0-7.531-4.344-8.385-5.5C1.469,4.845,4.954,0.5,9,0.5c4.053,0,7.531,4.344,8.385,5.5
		C16.531,7.155,13.046,11.5,9,11.5z"/>
	<g>
		<path style="fill:#BA9B48;" d="M9,1c3.531,0,6.664,3.59,7.758,5C15.664,7.41,12.531,11,9,11S2.336,7.41,1.242,6
			C2.336,4.59,5.469,1,9,1 M9,0C4.029,0,0,6,0,6s4.029,6,9,6s9-6,9-6S13.971,0,9,0L9,0z"/>
	</g>
</g>
</svg>
