<svg xmlns="http://www.w3.org/2000/svg" viewBox="0 0 48 48"  fill="#7F8C8D"><path fill="#64B5F6" d="M2 9h44v30H2z"/><path fill="#F5F5F5" d="M2 19h44v10H2z"/><path d="M23.827 24.072l1.557 3.392s.027.065.07.047c.043-.017.016-.082.016-.082l-1.298-3.5m-.036 1.32c-.02.516.298.8.257 1.26-.04.46.212.72.27.9.06.18-.063.286-.01.312.052.026.167-.116.13-.37-.04-.256-.232-.33-.187-.894.045-.563-.23-.694-.163-1.207" fill="#FFC107" stroke="#BF360C" stroke-width=".061"/><path d="M23.813 24l.14 3.73s0 .07.047.07.047-.07.047-.07l.14-3.73m-.54 1.205c-.214.47-.03.853-.244 1.263-.215.41-.08.747-.095.935-.014.188-.168.24-.13.284.04.044.2-.043.263-.293.064-.25-.086-.394.17-.896.258-.502.054-.73.312-1.178" fill="#FFC107" stroke="#BF360C" stroke-width=".061"/><path d="M23.827 23.928l-1.298 3.5s-.028.065.015.083c.043.02.07-.046.07-.046l1.557-3.392m-.96.907c-.377.35-.353.775-.71 1.072-.354.297-.36.66-.444.828-.085.168-.247.158-.228.213.02.055.2.037.354-.17.154-.207.07-.397.5-.763s.328-.653.738-.97" fill="#FFC107" stroke="#BF360C" stroke-width=".061"/><path d="M23.868 23.868l-2.538 2.737s-.05.05-.017.083.083-.017.083-.017l2.737-2.537m-1.234.47c-.485.18-.626.582-1.067.72-.44.138-.585.47-.728.594-.143.123-.29.05-.292.11-.003.057.17.11.392-.022s.217-.34.754-.513c.536-.173.552-.478 1.052-.613" fill="#FFC107" stroke="#BF360C" stroke-width=".061"/><path d="M24.236 25.336c.025.495.306.715.25 1.166.122-.357-.17-.634-.153-1.16m-.42-1.3l1.067 2.33-.894-2.402" fill="#BF360C"/><path d="M23.707 25.324c-.167.467.01.777-.215 1.173.25-.284.085-.65.302-1.132m.11-1.36l.094 2.56.094-2.56" fill="#BF360C"/><path d="M23.222 25.11c-.333.37-.29.723-.648 1.003.338-.167.327-.57.712-.93m.624-1.215l-.893 2.4 1.066-2.33" fill="#BF360C"/><path d="M22.856 24.73c-.448.212-.543.555-.982.677.376-.025.52-.4 1.014-.587m1.04-.884l-1.743 1.877 1.877-1.744" fill="#BF360C"/><path d="M23.928 23.827l-3.392 1.557s-.065.027-.047.07c.017.043.082.016.082.016l3.5-1.298m-1.32-.036c-.516-.02-.8.298-1.26.257-.46-.04-.72.212-.9.27-.18.06-.286-.063-.312-.01-.025.052.116.167.37.13.256-.04.33-.232.894-.186.563.045.694-.23 1.207-.163" fill="#FFC107" stroke="#BF360C" stroke-width=".061"/><path d="M24 23.813l-3.73.14s-.07 0-.07.047.07.047.07.047l3.73.14m-1.205-.54c-.47-.214-.853-.03-1.263-.244-.41-.215-.747-.08-.935-.095-.188-.014-.24-.168-.284-.13-.044.04.043.2.293.263.25.064.394-.086.896.17.502.258.73.054 1.178.312" fill="#FFC107" stroke="#BF360C" stroke-width=".061"/><path d="M24.072 23.827l-3.5-1.298s-.065-.028-.083.015c-.02.043.046.07.046.07l3.392 1.557m-.907-.96c-.35-.377-.775-.353-1.072-.71-.297-.354-.66-.36-.828-.444-.168-.085-.158-.247-.213-.228-.055.02-.037.2.17.354.207.154.397.07.763.5s.653.328.97.738" fill="#FFC107" stroke="#BF360C" stroke-width=".061"/><path d="M24.132 23.868l-2.737-2.538s-.05-.05-.083-.017.017.083.017.083l2.537 2.737m-.47-1.234c-.18-.485-.582-.626-.72-1.067-.138-.44-.47-.585-.594-.728-.123-.143-.05-.29-.11-.292-.058-.003-.11.17.022.392.132.22.34.217.513.754.173.536.478.552.613 1.052" fill="#FFC107" stroke="#BF360C" stroke-width=".061"/><path d="M22.664 24.236c-.495.025-.715.306-1.166.25.357.122.634-.17 1.16-.153m1.3-.42l-2.33 1.067 2.402-.894" fill="#BF360C"/><path d="M22.676 23.707c-.467-.167-.777.01-1.173-.215.284.25.65.085 1.132.302m1.36.11l-2.56.095 2.56.093" fill="#BF360C"/><path d="M22.89 23.222c-.37-.333-.723-.29-1.003-.647.167.338.57.327.93.712m1.215.623l-2.4-.893 2.33 1.066" fill="#BF360C"/><path d="M23.27 22.856c-.21-.448-.555-.543-.677-.982.025.376.4.52.587 1.014m.884 1.04l-1.877-1.743 1.744 1.877" fill="#BF360C"/><path d="M24.173 23.928l-1.557-3.392s-.027-.065-.07-.047c-.043.017-.016.082-.016.082l1.298 3.5m.036-1.32c.02-.516-.298-.8-.257-1.26.04-.46-.212-.72-.27-.9-.06-.18.063-.286.01-.312-.052-.025-.167.116-.13.37.04.256.232.33.186.894-.045.563.23.694.163 1.207" fill="#FFC107" stroke="#BF360C" stroke-width=".061"/><path d="M24.187 24l-.14-3.73s0-.07-.047-.07-.047.07-.047.07l-.14 3.73m.54-1.205c.214-.47.03-.853.244-1.263.215-.41.08-.747.095-.935.014-.188.168-.24.13-.284-.04-.044-.2.043-.263.293-.064.25.086.394-.17.896-.258.502-.054.73-.312 1.178" fill="#FFC107" stroke="#BF360C" stroke-width=".061"/><path d="M24.173 24.072l1.298-3.5s.028-.065-.015-.083c-.043-.02-.07.046-.07.046l-1.557 3.392m.96-.907c.377-.35.353-.775.71-1.072.354-.297.36-.66.444-.828.085-.168.247-.158.228-.213-.02-.055-.2-.037-.354.17-.154.207-.07.397-.5.763s-.328.653-.738.97" fill="#FFC107" stroke="#BF360C" stroke-width=".061"/><path d="M24.132 24.132l2.538-2.737s.05-.05.017-.083-.083.017-.083.017l-2.737 2.537m1.234-.47c.485-.18.626-.582 1.067-.72.44-.138.585-.472.728-.594.143-.123.29-.05.292-.11.003-.057-.17-.11-.392.022-.22.132-.217.34-.754.513-.536.173-.552.478-1.052.613" fill="#FFC107" stroke="#BF360C" stroke-width=".061"/><path d="M23.764 22.664c-.025-.495-.306-.715-.25-1.166-.122.357.17.634.153 1.16m.42 1.3l-1.067-2.33.894 2.402" fill="#BF360C"/><path d="M24.293 22.676c.167-.467-.01-.777.215-1.173-.25.283-.085.65-.302 1.132m-.11 1.36l-.094-2.56-.094 2.56" fill="#BF360C"/><path d="M24.778 22.89c.333-.37.29-.723.648-1.003-.338.167-.327.57-.712.93m-.624 1.215l.893-2.4-1.066 2.33" fill="#BF360C"/><path d="M25.144 23.27c.448-.21.543-.555.982-.677-.376.025-.52.4-1.014.587m-1.04.884l1.743-1.877-1.877 1.744" fill="#BF360C"/><path d="M24.072 24.173l3.392-1.557s.065-.027.047-.07c-.017-.043-.082-.016-.082-.016l-3.5 1.298m1.32.036c.516.02.8-.298 1.26-.257.46.04.72-.212.9-.27.18-.06.286.063.312.01.025-.052-.116-.167-.37-.13-.256.04-.33.232-.894.186-.563-.045-.694.23-1.207.163" fill="#FFC107" stroke="#BF360C" stroke-width=".061"/><path d="M24 24.187l3.73-.14s.07 0 .07-.047-.07-.047-.07-.047l-3.73-.14m1.205.54c.47.214.853.03 1.263.244.41.215.747.08.935.095.188.014.24.168.284.13.044-.04-.043-.2-.293-.263-.25-.064-.394.086-.896-.17-.502-.258-.73-.054-1.178-.312" fill="#FFC107" stroke="#BF360C" stroke-width=".061"/><path d="M23.928 24.173l3.5 1.298s.065.028.083-.015c.02-.043-.046-.07-.046-.07l-3.392-1.557m.907.96c.35.377.775.353 1.072.71.297.354.66.36.828.444.168.085.158.247.213.228.055-.02.037-.2-.17-.354-.207-.154-.397-.07-.763-.5s-.653-.328-.97-.738" fill="#FFC107" stroke="#BF360C" stroke-width=".061"/><path d="M23.868 24.132l2.737 2.538s.05.05.083.017-.017-.083-.017-.083l-2.537-2.737m.47 1.234c.18.485.582.626.72 1.067.138.44.47.585.594.728.123.143.05.29.11.292.057.003.11-.172-.022-.392-.132-.22-.34-.217-.513-.754-.173-.536-.478-.552-.613-1.052" fill="#FFC107" stroke="#BF360C" stroke-width=".061"/><path d="M25.336 23.764c.495-.025.715-.306 1.166-.25-.357-.122-.634.17-1.16.153m-1.3.42l2.33-1.067-2.402.893" fill="#BF360C"/><path d="M25.324 24.293c.467.167.777-.01 1.173.215-.284-.25-.65-.085-1.132-.302m-1.36-.11l2.56-.094-2.56-.094" fill="#BF360C"/><path d="M25.11 24.778c.37.333.723.29 1.003.648-.167-.338-.57-.327-.93-.712m-1.215-.624l2.4.893-2.33-1.066" fill="#BF360C"/><path d="M24.73 25.144c.212.448.555.543.677.982-.025-.376-.4-.52-.587-1.014m-.884-1.04l1.877 1.743-1.744-1.877" fill="#BF360C"/><circle cx="24" cy="24" r="1.52" fill="#FFC107" stroke="#BF360C" stroke-width=".082"/><path d="M24.518 23.675c-.104 0-.203.045-.262.14.117.104.375.116.55-.013-.075-.082-.184-.127-.288-.127zm-.002.024c.1-.003.195.044.21.09-.118.13-.305.117-.422.024.052-.082.134-.114.212-.115z" fill="#843511"/><path d="M24.538 23.603c-.152 0-.187.035-.257.094-.07.058-.104.047-.116.058-.012.012 0 .047.023.035.023-.012.07-.035.14-.093.07-.06.14-.058.21-.058.21 0 .327.174.35.163.025-.013-.115-.2-.35-.2z" fill="#BF360C"/><path d="M24.96 23.673c-.27-.234-.61-.27-.796-.094-.046.06-.075.126-.087.194-.024.133.018.277.122.424-.013 0-.036.012-.048.023-.093-.177-.126-.36-.095-.532.008-.045.02-.09.037-.133.257-.21.607-.233.865.118z" fill="#BF360C"/><circle cx="24.514" cy="23.789" r=".105" fill="#BF360C"/><path d="M24.82 23.86c-.2.152-.4.14-.515.07-.117-.07-.117-.094-.094-.094.024 0 .048.023.14.07.094.048.235.048.47-.046zM23.767 24.21c-.05.01-.085.053-.085.104 0 .058.048.104.106.104.034 0 .066-.016.085-.044.04.03.097.034.127.034h.014c.03 0 .086-.004.127-.034.02.028.052.044.086.044.058 0 .106-.046.106-.104 0-.05-.036-.095-.085-.104.028.01.046.037.046.067 0 .04-.03.07-.07.07-.037 0-.068-.03-.07-.067-.01.023-.057.09-.145.094-.09-.003-.134-.07-.145-.094-.002.037-.033.067-.07.067-.04 0-.07-.03-.07-.07-.002-.03.016-.057.044-.067zM23.882 24.52c-.117 0-.163.107-.268.177.058-.023.104-.07.186-.116s.152.01.198.01H24c.047 0 .116-.056.198-.01.082.048.13.094.188.117-.105-.07-.153-.176-.27-.176-.023 0-.07.014-.116.037h-.002c-.047-.023-.093-.036-.116-.036z" fill="#BF360C"/><path d="M23.842 24.66c-.046.002-.107.01-.195.038.21-.047.257.024.35.024H24c.094 0 .14-.07.35-.024-.233-.07-.28-.024-.35-.024h-.002c-.044 0-.08-.017-.156-.014z" fill="#BF360C"/><path d="M23.658 24.696c-.014 0-.028 0-.044.002.246.023.128.164.385.164s.14-.14.386-.164c-.257-.023-.176.128-.386.128h-.002c-.197 0-.136-.133-.34-.13zM24.21 25.076c0-.116-.093-.21-.21-.21-.115 0-.21.094-.21.21.024-.097.11-.166.21-.166.1 0 .188.068.21.166zM23.055 23.673c.27-.234.608-.27.795-.094.046.06.075.126.087.194.024.133-.018.277-.122.424.012 0 .035.012.047.023.093-.177.126-.36.095-.532-.008-.045-.02-.09-.037-.133-.257-.21-.608-.233-.865.118z" fill="#BF360C"/><path d="M23.476 23.603c.152 0 .187.035.257.094.07.058.105.047.117.058.012.012 0 .047-.023.035-.023-.012-.07-.035-.14-.093-.07-.06-.14-.058-.21-.058-.21 0-.327.174-.35.163-.025-.013.115-.2.35-.2z" fill="#BF360C"/><path d="M23.47 23.675c-.105 0-.204.045-.263.14.117.104.375.116.55-.013-.075-.082-.185-.127-.288-.127zm-.003.024c.1-.003.195.044.21.09-.118.13-.305.117-.422.024.05-.082.133-.114.212-.115z" fill="#843511"/><circle cx="23.482" cy="23.789" r=".105" fill="#BF360C"/><path d="M23.195 23.86c.2.152.398.14.514.07.116-.07.116-.094.093-.094-.023 0-.047.023-.14.07-.094.048-.234.048-.468-.046z" fill="#BF360C"/></svg>