<?xml version="1.0" encoding="utf-8"?>
<!-- Generator: Adobe Illustrator 19.1.1, SVG Export Plug-In . SVG Version: 6.00 Build 0)  -->
<svg version="1.1" id="IOS_copy" xmlns="http://www.w3.org/2000/svg" xmlns:xlink="http://www.w3.org/1999/xlink" x="0px" y="0px"
	 viewBox="0 0 16 16" enable-background="new 0 0 16 16" xml:space="preserve">
<path d="M4.5,16h0.8l0.6-0.6l7.4-7.5l0.7-0.7l1.1-1.1c0.6-0.6,0.9-1.4,0.8-2.2c-0.1-0.7-0.4-1.2-0.9-1.7l-1.5-1.5l-0.1-0.1l-0.2-0.1
	c-0.5-0.3-1-0.5-1.6-0.5C11,0,10.3,0.3,9.9,0.7L9.6,1l0,0L8.2,2.4L8,2.6L7.3,3.3l0,0l-6.8,6.8L0,10.7v0.8V14v2h2H4.5z"/>
</svg>
