<?xml version="1.0" encoding="utf-8"?>
<!-- Generator: Adobe Illustrator 19.1.1, SVG Export Plug-In . SVG Version: 6.00 Build 0)  -->
<svg version="1.1" id="IOS_copy" xmlns="http://www.w3.org/2000/svg" xmlns:xlink="http://www.w3.org/1999/xlink" x="0px" y="0px"
	 viewBox="0 0 16 16" enable-background="new 0 0 16 16" xml:space="preserve">
<path d="M12.5,6.4C12.5,6.4,12.5,6.4,12.5,6.4C12.4,5,11.4,3.8,10,3.5c0-0.1,0-0.1,0-0.1c0-2-1.9-3.3-3.6-3.3C4.6,0,3,1.5,3,3.5
	c0,0,0,0,0,0.1C1.3,3.6,0,5,0,6.7v1.5c0,0.5,0.2,1,0.4,1.3C0.2,9.9,0,10.3,0,10.8v1.9C0,14.6,1.4,16,3.2,16h6.2c1.6,0,2.8-1,3.1-2.4
	c0.1,0,0.1,0,0.1,0c0.9,0,1.8-0.4,2.5-1.1c0.6-0.7,1-1.7,0.9-2.7C15.9,7.9,14.4,6.4,12.5,6.4z"/>
</svg>
