<?xml version="1.0" encoding="utf-8"?>
<!-- Generator: Adobe Illustrator 19.1.1, SVG Export Plug-In . SVG Version: 6.00 Build 0)  -->
<svg version="1.1" id="IOS_copy" xmlns="http://www.w3.org/2000/svg" xmlns:xlink="http://www.w3.org/1999/xlink" x="0px" y="0px"
	 viewBox="0 0 16 16" enable-background="new 0 0 16 16" xml:space="preserve">
<path d="M14.6,9.5C13.2,8.4,12,7.4,11,6.4c0.2-1.1,0.4-2.9-1.2-4.5C8.7,0.7,7,0,5.3,0c-0.5,0-1,0.1-1.5,0.2c-2.2,0.8-3,2-3.7,3.6
	c-0.5,2.1,0.1,4.5,1.7,6c0.9,0.9,2,1.3,3.3,1.3c0.5,0,0.9-0.1,1.2-0.1c1.4,1.5,2.6,2.9,3,3.4c0.2,0.2,0.3,0.4,0.4,0.4
	c0.7,0.7,1.7,1.1,2.6,1.1c1,0,1.9-0.4,2.5-1c0.7-0.7,1.1-1.6,1.1-2.5c0-1-0.4-1.9-1.1-2.6C14.9,9.8,14.8,9.7,14.6,9.5z"/>
</svg>
