<?xml version="1.0" encoding="utf-8"?>
<!-- Generator: Adobe Illustrator 19.1.1, SVG Export Plug-In . SVG Version: 6.00 Build 0)  -->
<svg version="1.1" id="IOS_copy" xmlns="http://www.w3.org/2000/svg" xmlns:xlink="http://www.w3.org/1999/xlink" x="0px" y="0px"
	 viewBox="0 0 16 16" enable-background="new 0 0 16 16" xml:space="preserve">
<path d="M15.3,7.9C15.8,7.4,16,6.8,16,6.1V5.6l-0.3-0.5l-1.2-2.2l-0.1-0.2l-0.2-0.2c-0.2-0.2-0.8-0.7-1.7-0.7
	c-0.3,0-0.6,0.1-0.9,0.2c-0.1-1.1-1.1-2-2.2-2H8H6.7C5.5,0,4.6,0.9,4.4,2C4.1,1.8,3.8,1.8,3.5,1.8C2.6,1.8,2,2.3,1.8,2.5L1.6,2.7
	L1.5,2.9L0.3,5.1L0,5.6v0.5c0,0.7,0.2,1.3,0.7,1.8L0.8,8l0,0l0,0L0.7,8.1C0.2,8.6,0,9.2,0,9.9v0.5l0.3,0.5l1.2,2.2l0.1,0.2l0.2,0.2
	c0.2,0.2,0.8,0.7,1.7,0.7c0.3,0,0.6-0.1,0.9-0.2c0.1,1.1,1.1,2,2.2,2H8h1.3c1.1,0,2.1-0.9,2.2-2c0.3,0.1,0.6,0.2,0.9,0.2
	c0.9,0,1.5-0.6,1.7-0.7l0.2-0.2l0.1-0.2l1.2-2.2l0.3-0.5V9.9c0-0.7-0.2-1.3-0.7-1.8L15.2,8l0,0l0,0L15.3,7.9z"/>
</svg>
