<?xml version="1.0" encoding="utf-8"?>
<!-- Generator: Adobe Illustrator 19.1.1, SVG Export Plug-In . SVG Version: 6.00 Build 0)  -->
<svg version="1.1" id="IOS_copy" xmlns="http://www.w3.org/2000/svg" xmlns:xlink="http://www.w3.org/1999/xlink" x="0px" y="0px"
	 viewBox="0 0 16 16" enable-background="new 0 0 16 16" xml:space="preserve">
<path d="M5.8,15c0.5,0.6,1.3,1,2.2,1c0.9,0,1.7-0.4,2.2-1H14h2v-2v-1v-0.8l-0.6-0.6L14,9.2V7c0-2.3-1.3-4.4-3.3-5.4
	C10.2,0.7,9.2,0,8,0C6.8,0,5.8,0.7,5.3,1.6C3.3,2.6,2,4.7,2,7v2.2l-1.4,1.4L0,11.2V12v1v2h2H5.8z"/>
</svg>
