<?xml version="1.0" encoding="utf-8"?>
<!-- Generator: Adobe Illustrator 19.1.1, SVG Export Plug-In . SVG Version: 6.00 Build 0)  -->
<svg version="1.1" id="IOS_copy" xmlns="http://www.w3.org/2000/svg" xmlns:xlink="http://www.w3.org/1999/xlink" x="0px" y="0px"
	 viewBox="0 0 15 16" enable-background="new 0 0 15 16" xml:space="preserve">
<path d="M3.2,16h8.6c1.8,0,3.2-1.4,3.2-3.2V12v-2h-1.6c-0.3-0.7-0.7-1.3-1.1-1.9c0.4-0.6,0.9-1.3,1.2-2.1H15V4V3.2
	C15,1.4,13.6,0,11.8,0H3.2C1.4,0,0,1.4,0,3.2V4v2h1.5c0.3,0.8,0.8,1.5,1.2,2.1C2.4,8.7,2,9.3,1.6,10H0v2v0.8C0,14.6,1.4,16,3.2,16z"
	/>
</svg>
