<?xml version="1.0" encoding="utf-8"?>
<!-- Generator: Adobe Illustrator 19.1.1, SVG Export Plug-In . SVG Version: 6.00 Build 0)  -->
<svg version="1.1" id="IOS_copy" xmlns="http://www.w3.org/2000/svg" xmlns:xlink="http://www.w3.org/1999/xlink" x="0px" y="0px"
	 viewBox="0 0 16.8 16.8" enable-background="new 0 0 16.8 16.8" xml:space="preserve">
<path d="M11.9,1.4L10.5,0L9.1,1.4L8.3,2.1C7.8,2.6,7.5,3.3,7.5,4L6.4,4.7C6.2,4.7,5.9,4.6,5.7,4.6c-0.8,0-1.6,0.3-2.1,0.9L2.8,6.2
	L1.4,7.6L2.8,9l0.6,0.6l-2.9,2.9L0,13.2V14v0.8v2h2h0.8h0.8l0.6-0.6l2.9-2.9L7.8,14l1.4,1.4l1.4-1.4l0.7-0.7
	c0.6-0.6,0.9-1.3,0.9-2.1c0-0.3,0-0.5-0.1-0.7l0.7-1.1c0.7-0.1,1.4-0.4,1.9-0.9l0.7-0.7l1.4-1.4L15.4,5L11.9,1.4z"/>
</svg>
